<svg width="1461" height="400" viewBox="0 0 1461 400" fill="none" xmlns="http://www.w3.org/2000/svg">
<path d="M159.786 111.243C167.153 119.144 175.321 126.351 182.741 134.199C186.371 138.096 198.489 155.606 202.387 155.606C206.284 155.606 218.402 138.096 222.032 134.199C230.146 125.55 240.29 114.927 249.098 107.133C253.048 103.663 272.587 90.9037 273.388 89.6224C274.189 88.2344 274.189 85.0848 273.388 83.6968C271.626 80.7072 248.244 70.8845 243.813 72.1657C241.944 72.6996 228.812 83.5366 226.196 85.7788C218.188 92.7721 211.515 102.648 202.44 107.987C197.849 107.987 170.729 74.568 161.014 72.2191C156.049 70.9912 147.294 75.1552 142.489 77.5575C138.432 79.5862 130.424 83.1095 130.958 87.4871C131.278 89.8894 156.529 106.972 159.839 111.243H159.786Z" fill="url(#paint0_linear_7902_236)"/>
<path d="M403.752 172.048C401.137 151.175 381.011 117.276 380.156 104.036C379.196 88.7683 399.695 64.5851 403.005 45.6336C405.567 30.8995 403.752 15.8985 404.126 1.16434C400.549 -2.8395 330.456 30.6326 315.134 30.2589C301.468 29.9386 259.668 3.99372 233.669 1.11095C215.732 -0.864274 185.73 -0.0635068 167.633 2.39218C143.556 5.64864 101.81 29.992 89.6914 30.2589C74.37 30.6326 4.27615 -2.8395 0.752777 1.16434C-0.63522 20.5963 0.752777 37.3057 5.82431 56.097C9.24091 68.6957 27.712 96.776 27.8721 99.6054C28.1924 105.104 14.3124 124.963 11.4297 134.305C-6.82782 193.135 2.728 252.178 0.91293 313.143C75.0106 324.674 144.197 356.759 204.842 400C263.565 356.865 331.363 324.034 403.966 313.143C400.763 268.3 409.251 215.93 403.806 172.048H403.752ZM98.4998 67.4145C100.528 66.9874 123.11 50.0112 133.947 45.5269C173.719 29.0844 212.956 25.8814 254.383 38.053C271.252 43.0178 294.795 61.7558 306.059 63.5708C326.665 66.8273 346.151 51.5593 365.689 49.2104C381.705 66.2934 272.693 148.025 260.202 162.225C246.588 177.654 209.967 250.63 204.735 250.95C191.763 251.698 168.273 190.466 149.429 167.03C117.238 126.992 57.1268 104.463 39.0295 51.6661C39.0295 42.5373 91.1328 68.9093 98.4464 67.4679L98.4998 67.4145ZM266.074 217.265C264.205 183.633 289.616 201.196 299.653 196.071C307.767 191.907 305.685 179.095 314.013 178.881C318.497 212.087 295.969 221.536 266.074 217.265ZM139.98 217.265C110.084 221.589 87.5026 212.087 92.0403 178.881C100.368 179.042 98.2863 191.907 106.401 196.071C116.437 201.249 141.848 183.633 139.98 217.265ZM370.067 288.853C310.81 302.413 255.664 327.077 204.842 359.801C151.671 328.838 95.8306 301.025 34.8121 288.853C36.2535 234.348 25.5766 177.226 48.7988 126.031C93.7486 138.416 57.6607 165.215 58.6216 190.466C59.9028 224.579 98.9269 255.755 132.452 250.79C140.834 249.562 148.308 242.302 152.899 241.875C169.128 240.327 191.122 307.218 197.688 313.357C199.503 315.012 204.308 314.531 207.564 310.367C217.334 297.929 234.951 250.096 245.734 243.423C253.101 238.832 282.036 260.453 312.518 243.316C327.146 235.095 346.044 208.189 346.845 190.839C348.179 162.225 312.412 142.206 353.678 126.084C383.573 175.198 373.483 234.615 370.12 288.907L370.067 288.853Z" fill="url(#paint1_linear_7902_236)"/>
<path d="M503.635 171.781V71.2048H518.049V117.116H518.316L539.349 71.2048H553.763L534.117 111.457L557.446 171.781H542.179L525.789 127.152L517.995 141.672V171.781H503.582H503.635Z" fill="#3AA4DD"/>
<path d="M605.76 100.139V171.728H591.346V164.788H591.079C589.585 167.03 587.77 168.898 585.634 170.393C583.499 171.835 580.83 172.582 577.52 172.582C575.705 172.582 573.943 172.262 572.128 171.674C570.313 171.087 568.765 170.073 567.323 168.632C565.935 167.244 564.761 165.428 563.907 163.186C563.053 160.998 562.625 158.275 562.625 155.072V100.139H577.039V149.733C577.039 152.349 577.627 154.431 578.854 155.926C580.082 157.421 581.844 158.168 584.086 158.168C586.809 158.168 588.677 157.314 589.745 155.606C590.813 153.897 591.293 151.442 591.293 148.239V100.086H605.707L605.76 100.139Z" fill="#3AA4DD"/>
<path d="M619 171.781V71.2048H633.413V106.652H633.68C635.282 104.303 637.204 102.488 639.392 101.207C641.581 99.9257 644.144 99.2851 646.973 99.2851C650.443 99.2851 653.166 99.8723 655.087 101.1C657.009 102.328 658.611 103.876 659.839 105.745C660.8 107.239 661.387 109.215 661.654 111.67C661.921 114.126 662.081 117.916 662.081 123.095V150.374C662.081 154.325 661.867 157.474 661.494 159.823C661.12 162.172 660.479 164.147 659.679 165.749C657.223 170.286 653.059 172.529 647.133 172.529C643.556 172.529 640.834 171.835 638.965 170.393C637.097 169.005 635.228 167.244 633.467 165.162V171.674H619.053L619 171.781ZM647.667 122.187C647.667 119.945 647.187 117.97 646.172 116.261C645.158 114.553 643.343 113.699 640.567 113.699C638.485 113.699 636.777 114.446 635.389 115.888C634.001 117.329 633.36 119.198 633.36 121.493V149.306C633.36 151.922 634.001 154.111 635.335 155.713C636.67 157.367 638.378 158.168 640.567 158.168C643.023 158.168 644.784 157.261 645.959 155.499C647.08 153.737 647.667 151.335 647.667 148.452V122.187Z" fill="#3AA4DD"/>
<path d="M717.013 141.406H688.506V151.175C688.506 153.417 689.146 155.179 690.427 156.407C691.709 157.634 693.417 158.222 695.606 158.222C698.328 158.222 700.143 157.421 701.051 155.819C701.959 154.218 702.492 152.616 702.653 151.015H717.066C717.066 157.314 715.145 162.386 711.301 166.283C709.432 168.258 707.137 169.806 704.521 170.927C701.905 172.048 698.916 172.635 695.606 172.635C691.068 172.635 687.224 171.675 684.075 169.806C680.925 167.938 678.523 165.429 676.814 162.332C675.8 160.464 675.053 158.275 674.679 155.819C674.305 153.364 674.092 150.694 674.092 147.758V124.162C674.092 121.226 674.252 118.557 674.679 116.101C675.106 113.646 675.747 111.51 676.814 109.588C678.523 106.492 680.925 103.983 684.075 102.114C687.224 100.246 691.068 99.2851 695.606 99.2851C698.916 99.2851 701.905 99.8724 704.574 100.993C707.244 102.115 709.539 103.663 711.408 105.638C715.144 109.855 717.066 115.194 717.066 121.6V141.352L717.013 141.406ZM688.506 130.088H702.653V121.92C702.653 119.198 702.012 117.116 700.731 115.781C699.449 114.393 697.741 113.752 695.552 113.752C693.364 113.752 691.655 114.446 690.374 115.781C689.093 117.169 688.452 119.198 688.452 121.92V130.088H688.506Z" fill="#3AA4DD"/>
<path d="M729.024 171.781V100.193H743.438V107.827C746.374 105.211 749.204 103.129 752.033 101.634C754.863 100.139 758.333 99.3918 762.497 99.3918V114.66C761.109 114.073 759.614 113.806 758.119 113.806C756.624 113.806 754.969 114.073 753.261 114.606C751.499 115.14 749.951 115.994 748.51 117.222C747.015 118.45 745.787 120.052 744.826 122.027C743.865 124.002 743.438 126.458 743.438 129.394V171.888H729.024V171.781Z" fill="#3AA4DD"/>
<path d="M769.704 171.781V100.193H784.118V107.133H784.385C785.88 104.89 787.695 103.022 789.83 101.581C791.965 100.139 794.635 99.3918 797.945 99.3918C799.76 99.3918 801.521 99.7122 803.336 100.299C805.151 100.887 806.7 101.901 808.141 103.342C809.582 104.73 810.703 106.545 811.558 108.788C812.412 110.976 812.839 113.699 812.839 116.902V171.835H798.425V122.24C798.425 119.625 797.784 117.543 796.61 116.048C795.382 114.553 793.62 113.806 791.378 113.806C788.656 113.806 786.787 114.66 785.719 116.368C784.705 118.076 784.171 120.532 784.171 123.735V171.888H769.758L769.704 171.781Z" fill="#3AA4DD"/>
<path d="M867.717 141.406H839.21V151.175C839.21 153.417 839.85 155.179 841.132 156.407C842.413 157.634 844.121 158.222 846.31 158.222C849.032 158.222 850.848 157.421 851.755 155.819C852.663 154.218 853.196 152.616 853.357 151.015H867.77C867.77 157.314 865.849 162.386 862.005 166.283C860.136 168.258 857.841 169.806 855.225 170.927C852.609 172.048 849.62 172.635 846.31 172.635C841.772 172.635 837.928 171.675 834.779 169.806C831.629 167.938 829.227 165.429 827.518 162.332C826.504 160.464 825.757 158.275 825.383 155.819C825.009 153.364 824.796 150.694 824.796 147.758V124.162C824.796 121.226 824.956 118.557 825.383 116.101C825.81 113.646 826.451 111.51 827.518 109.588C829.227 106.492 831.629 103.983 834.779 102.114C837.928 100.246 841.772 99.2851 846.31 99.2851C849.62 99.2851 852.609 99.8724 855.278 100.993C857.948 102.115 860.243 103.663 862.112 105.638C865.849 109.855 867.77 115.194 867.77 121.6V141.352L867.717 141.406ZM839.21 130.088H853.357V121.92C853.357 119.198 852.716 117.116 851.435 115.781C850.154 114.393 848.445 113.752 846.256 113.752C844.068 113.752 842.359 114.446 841.078 115.781C839.797 117.169 839.156 119.198 839.156 121.92V130.088H839.21Z" fill="#3AA4DD"/>
<path d="M879.728 100.139V78.4117H894.142V100.139H903.057V111.457H894.142V151.121C894.142 152.83 894.302 154.111 894.623 155.072C894.943 156.033 895.477 156.727 896.224 157.207C896.972 157.688 897.879 157.955 899 158.061C900.068 158.168 901.402 158.222 903.004 158.222V171.781H897.078C893.768 171.781 891.046 171.247 888.804 170.233C886.615 169.219 884.853 167.884 883.519 166.283C882.184 164.681 881.223 162.866 880.636 160.837C879.995 158.809 879.728 156.887 879.728 154.965V111.457H872.521V100.139H879.728Z" fill="#3AA4DD"/>
<path d="M951.639 141.406H923.132V151.175C923.132 153.417 923.772 155.179 925.053 156.407C926.335 157.634 928.043 158.222 930.232 158.222C932.954 158.222 934.769 157.421 935.677 155.819C936.585 154.218 937.118 152.616 937.279 151.015H951.692C951.692 157.314 949.77 162.386 945.927 166.283C944.058 168.258 941.763 169.806 939.147 170.927C936.531 172.048 933.542 172.635 930.232 172.635C925.694 172.635 921.85 171.675 918.701 169.806C915.551 167.938 913.149 165.429 911.44 162.332C910.426 160.464 909.679 158.275 909.305 155.819C908.931 153.364 908.718 150.694 908.718 147.758V124.162C908.718 121.226 908.878 118.557 909.305 116.101C909.732 113.646 910.373 111.51 911.44 109.588C913.149 106.492 915.551 103.983 918.701 102.114C921.85 100.246 925.694 99.2851 930.232 99.2851C933.542 99.2851 936.531 99.8724 939.2 100.993C941.87 102.115 944.165 103.663 946.034 105.638C949.77 109.855 951.692 115.194 951.692 121.6V141.352L951.639 141.406ZM923.078 130.088H937.225V121.92C937.225 119.198 936.584 117.116 935.303 115.781C934.022 114.393 932.314 113.752 930.125 113.752C927.936 113.752 926.228 114.446 924.947 115.781C923.665 117.169 923.025 119.198 923.025 121.92V130.088H923.078Z" fill="#3AA4DD"/>
<path d="M989.753 120.212C989.646 117.756 988.899 115.941 987.404 114.713C985.963 113.485 984.254 112.898 982.386 112.898C980.144 112.898 978.382 113.646 977.154 115.087C975.926 116.528 975.339 118.237 975.339 120.105C975.339 121.44 975.66 122.721 976.354 124.002C977.048 125.283 978.702 126.404 981.425 127.472L989.913 130.835C995.305 132.917 998.989 135.747 1001.02 139.324C1003.05 142.9 1004.06 146.797 1004.06 151.068C1004.06 154.058 1003.53 156.887 1002.46 159.449C1001.39 162.065 999.896 164.307 998.028 166.283C996.159 168.258 993.864 169.806 991.248 170.927C988.632 172.048 985.749 172.635 982.653 172.635C976.834 172.635 971.923 170.82 967.972 167.137C965.997 165.375 964.395 163.133 963.168 160.41C961.94 157.688 961.299 154.591 961.192 151.015H974.752C975.019 152.99 975.713 154.805 976.781 156.513C977.848 158.222 979.77 159.076 982.493 159.076C984.575 159.076 986.443 158.382 988.045 157.047C989.7 155.659 990.5 153.791 990.5 151.335C990.5 149.36 989.967 147.651 988.952 146.263C987.938 144.875 986.016 143.648 983.294 142.58L976.354 140.018C971.816 138.309 968.293 135.8 965.677 132.437C963.061 129.074 961.78 125.016 961.78 120.212C961.78 117.222 962.367 114.393 963.488 111.83C964.609 109.268 966.157 107.026 968.132 105.104C970.001 103.236 972.243 101.794 974.752 100.78C977.261 99.7656 980.037 99.2851 982.92 99.2851C985.803 99.2851 988.525 99.819 991.034 100.833C993.543 101.848 995.679 103.342 997.44 105.211C999.256 107.079 1000.64 109.321 1001.66 111.937C1002.67 114.553 1003.21 117.276 1003.21 120.212H989.646H989.753Z" fill="#3AA4DD"/>
<path d="M1043.3 171.781V71.2048H1086.22V84.7645H1057.71V114.286H1082.59V127.846H1057.71V157.367H1086.22V171.781H1043.3Z" fill="#3AA4DD"/>
<path d="M1088.62 171.781L1106.29 135.213L1089.48 100.193H1104.74L1113.66 120.532L1122.57 100.193H1137.84L1120.76 135.213L1138.7 171.781H1123.43L1113.71 149.894L1103.94 171.781H1088.67H1088.62Z" fill="#3AA4DD"/>
<path d="M1144.41 100.139V78.4117H1158.82V100.139H1167.74V111.457H1158.82V151.121C1158.82 152.83 1158.98 154.111 1159.3 155.072C1159.62 156.033 1160.16 156.727 1160.9 157.207C1161.65 157.688 1162.56 157.955 1163.68 158.061C1164.75 158.168 1166.08 158.222 1167.68 158.222V171.781H1161.76C1158.45 171.781 1155.73 171.247 1153.48 170.233C1151.24 169.219 1149.48 167.884 1148.2 166.283C1146.86 164.681 1145.9 162.866 1145.32 160.837C1144.68 158.809 1144.41 156.887 1144.41 154.965V111.457H1137.2V100.139H1144.41Z" fill="#3AA4DD"/>
<path d="M1216.26 141.406H1187.76V151.175C1187.76 153.417 1188.4 155.179 1189.68 156.407C1190.96 157.634 1192.67 158.222 1194.86 158.222C1197.58 158.222 1199.39 157.421 1200.3 155.819C1201.21 154.218 1201.74 152.616 1201.9 151.015H1216.32C1216.32 157.314 1214.4 162.386 1210.5 166.283C1208.63 168.258 1206.33 169.806 1203.72 170.927C1201.1 172.048 1198.11 172.635 1194.8 172.635C1190.27 172.635 1186.42 171.675 1183.27 169.806C1180.12 167.938 1177.67 165.429 1176.01 162.332C1175 160.464 1174.25 158.275 1173.88 155.819C1173.5 153.364 1173.29 150.694 1173.29 147.758V124.162C1173.29 121.226 1173.5 118.557 1173.88 116.101C1174.25 113.646 1174.94 111.51 1176.01 109.588C1177.72 106.492 1180.12 103.983 1183.27 102.114C1186.42 100.246 1190.27 99.2851 1194.8 99.2851C1198.11 99.2851 1201.1 99.8724 1203.77 100.993C1206.44 102.115 1208.74 103.663 1210.6 105.638C1214.4 109.855 1216.26 115.194 1216.26 121.6V141.352V141.406ZM1187.76 130.088H1201.9V121.92C1201.9 119.198 1201.26 117.116 1199.98 115.781C1198.7 114.393 1196.99 113.752 1194.8 113.752C1192.61 113.752 1190.91 114.446 1189.62 115.781C1188.34 117.169 1187.7 119.198 1187.7 121.92V130.088H1187.76Z" fill="#3AA4DD"/>
<path d="M1228.28 171.781V100.193H1242.69V107.133H1242.96C1244.45 104.89 1246.27 103.022 1248.4 101.581C1250.54 100.139 1253.21 99.3918 1256.52 99.3918C1258.33 99.3918 1260.09 99.7122 1261.91 100.299C1263.67 100.887 1265.27 101.901 1266.71 103.342C1268.1 104.73 1269.28 106.545 1270.08 108.788C1270.93 110.976 1271.36 113.699 1271.36 116.902V171.835H1256.94V122.24C1256.94 119.625 1256.36 117.543 1255.13 116.048C1253.9 114.553 1252.14 113.806 1249.9 113.806C1247.17 113.806 1245.31 114.66 1244.24 116.368C1243.22 118.076 1242.69 120.532 1242.69 123.735V171.888H1228.28V171.781Z" fill="#3AA4DD"/>
<path d="M1310.76 120.212C1310.65 117.756 1309.9 115.941 1308.41 114.713C1306.97 113.485 1305.26 112.898 1303.39 112.898C1301.15 112.898 1299.39 113.646 1298.16 115.087C1296.93 116.528 1296.34 118.237 1296.34 120.105C1296.34 121.44 1296.66 122.721 1297.36 124.002C1298.05 125.283 1299.71 126.404 1302.43 127.472L1310.92 130.835C1316.31 132.917 1319.99 135.747 1322.02 139.324C1324.05 142.9 1325.06 146.797 1325.06 151.068C1325.06 154.058 1324.53 156.887 1323.46 159.449C1322.39 162.065 1320.9 164.307 1319.03 166.283C1317.16 168.258 1314.87 169.806 1312.25 170.927C1309.63 172.048 1306.75 172.635 1303.66 172.635C1297.84 172.635 1292.93 170.82 1288.98 167.137C1287 165.375 1285.4 163.133 1284.17 160.41C1282.94 157.688 1282.3 154.591 1282.2 151.015H1295.76C1296.02 152.99 1296.72 154.805 1297.78 156.513C1298.85 158.222 1300.77 159.076 1303.5 159.076C1305.58 159.076 1307.45 158.382 1309.05 157.047C1310.7 155.659 1311.5 153.791 1311.5 151.335C1311.5 149.36 1310.97 147.651 1309.96 146.263C1308.94 144.875 1307.02 143.648 1304.3 142.58L1297.36 140.018C1292.82 138.309 1289.3 135.8 1286.68 132.437C1284.06 129.074 1282.78 125.016 1282.78 120.212C1282.78 117.222 1283.37 114.393 1284.49 111.83C1285.61 109.268 1287.16 107.026 1289.14 105.104C1291 103.236 1293.25 101.794 1295.76 100.78C1298.26 99.7656 1301.04 99.2851 1303.92 99.2851C1306.81 99.2851 1309.53 99.819 1312.04 100.833C1314.55 101.848 1316.68 103.342 1318.44 105.211C1320.26 107.079 1321.65 109.321 1322.66 111.937C1323.68 114.553 1324.21 117.276 1324.21 120.212H1310.65H1310.76Z" fill="#3AA4DD"/>
<path d="M1335.79 85.6187V71.2048H1350.21V85.6187H1335.79ZM1335.79 171.781V100.193H1350.21V171.781H1335.79Z" fill="#3AA4DD"/>
<path d="M1362.17 124.162C1362.17 121.226 1362.38 118.557 1362.75 116.101C1363.13 113.646 1363.82 111.51 1364.89 109.588C1366.6 106.492 1369 103.983 1372.15 102.114C1375.3 100.246 1379.14 99.2851 1383.68 99.2851C1388.22 99.2851 1392.01 100.246 1395.21 102.114C1398.36 103.983 1400.76 106.492 1402.47 109.588C1403.48 111.457 1404.23 113.646 1404.61 116.101C1404.98 118.557 1405.19 121.226 1405.19 124.162V147.758C1405.19 150.694 1404.98 153.364 1404.61 155.819C1404.23 158.275 1403.54 160.41 1402.47 162.332C1400.76 165.429 1398.36 167.938 1395.21 169.806C1392.06 171.675 1388.22 172.635 1383.68 172.635C1379.14 172.635 1375.3 171.675 1372.15 169.806C1369 167.938 1366.54 165.429 1364.89 162.332C1363.87 160.464 1363.13 158.275 1362.75 155.819C1362.38 153.364 1362.17 150.694 1362.17 147.758V124.162ZM1376.58 150C1376.58 152.723 1377.22 154.805 1378.5 156.14C1379.78 157.528 1381.49 158.168 1383.68 158.168C1385.87 158.168 1387.58 157.474 1388.86 156.14C1390.14 154.752 1390.78 152.723 1390.78 150V121.92C1390.78 119.198 1390.14 117.116 1388.86 115.781C1387.58 114.393 1385.87 113.752 1383.68 113.752C1381.49 113.752 1379.78 114.446 1378.5 115.781C1377.22 117.169 1376.58 119.198 1376.58 121.92V150Z" fill="#3AA4DD"/>
<path d="M1417.1 171.781V100.193H1431.51V107.133H1431.78C1433.27 104.89 1435.09 103.022 1437.22 101.581C1439.36 100.139 1442.03 99.3918 1445.34 99.3918C1447.15 99.3918 1448.92 99.7122 1450.73 100.299C1452.49 100.887 1454.09 101.901 1455.53 103.342C1456.92 104.73 1458.1 106.545 1458.9 108.788C1459.75 110.976 1460.18 113.699 1460.18 116.902V171.835H1445.77V122.24C1445.77 119.625 1445.18 117.543 1443.95 116.048C1442.72 114.553 1440.96 113.806 1438.72 113.806C1436 113.806 1434.13 114.66 1433.06 116.368C1432.05 118.076 1431.51 120.532 1431.51 123.735V171.888H1417.1V171.781Z" fill="#3AA4DD"/>
<path d="M504.597 312.983V252.659H497.55V241.341H504.597V231.572C504.597 228.102 505.13 225.166 506.145 222.763C507.159 220.361 508.6 218.386 510.362 216.784C512.07 215.183 513.992 214.062 516.234 213.421C518.423 212.781 520.719 212.407 523.068 212.407H529.687V225.967H523.174C520.345 225.967 518.957 227.621 518.957 230.931V241.395H529.687V252.712H518.957V313.037H504.543L504.597 312.983Z" fill="#3AA4DD"/>
<path d="M534.278 265.418C534.278 262.482 534.438 259.812 534.865 257.357C535.292 254.901 535.933 252.766 537 250.844C538.709 247.747 541.111 245.238 544.261 243.37C547.41 241.501 551.254 240.54 555.792 240.54C560.329 240.54 564.12 241.501 567.323 243.37C570.473 245.238 572.875 247.747 574.583 250.844C575.597 252.712 576.345 254.901 576.719 257.357C577.092 259.812 577.306 262.482 577.306 265.418V289.014C577.306 291.95 577.092 294.619 576.719 297.075C576.345 299.53 575.651 301.666 574.583 303.588C572.875 306.684 570.473 309.193 567.323 311.061C564.173 312.93 560.329 313.891 555.792 313.891C551.254 313.891 547.41 312.93 544.261 311.061C541.111 309.193 538.709 306.684 537 303.588C535.986 301.719 535.239 299.53 534.865 297.075C534.491 294.619 534.278 291.95 534.278 289.014V265.418ZM548.692 291.256C548.692 293.978 549.332 296.06 550.613 297.395C551.895 298.783 553.603 299.424 555.792 299.424C557.981 299.424 559.689 298.73 560.97 297.395C562.251 296.007 562.892 293.978 562.892 291.256V263.176C562.892 260.453 562.251 258.371 560.97 257.036C559.689 255.648 557.981 255.008 555.792 255.008C553.603 255.008 551.895 255.702 550.613 257.036C549.332 258.424 548.692 260.453 548.692 263.176V291.256Z" fill="#3AA4DD"/>
<path d="M589.211 312.983V241.395H603.625V249.029C606.561 246.413 609.39 244.331 612.22 242.836C615.049 241.341 618.519 240.594 622.683 240.594V255.862C621.295 255.275 619.8 255.008 618.305 255.008C616.811 255.008 615.156 255.275 613.448 255.809C611.686 256.342 610.138 257.197 608.696 258.424C607.201 259.652 605.974 261.254 605.013 263.229C604.052 265.204 603.625 267.66 603.625 270.596V313.09H589.211V312.983Z" fill="#3AA4DD"/>
<path d="M707.297 212.46L686.691 313.037H673.985L653.486 212.46H668.754L680.178 282.661H680.445L692.029 212.46H707.297Z" fill="#3AA4DD"/>
<path d="M763.937 241.395H749.523V238.138C749.523 234.828 748.775 231.999 747.174 229.597C745.626 227.194 743.01 226.02 739.326 226.02C737.351 226.02 735.75 226.394 734.522 227.141C733.294 227.888 732.333 228.849 731.532 229.97C730.785 231.198 730.251 232.586 729.984 234.134C729.717 235.682 729.557 237.337 729.557 238.992C729.557 240.968 729.61 242.622 729.771 243.957C729.931 245.292 730.251 246.466 730.838 247.48C731.425 248.495 732.226 249.402 733.294 250.15C734.362 250.897 735.856 251.644 737.725 252.392L748.722 256.769C751.925 257.997 754.488 259.439 756.463 261.094C758.438 262.748 759.986 264.67 761.107 266.806C762.122 269.048 762.869 271.61 763.243 274.493C763.616 277.376 763.83 280.632 763.83 284.316C763.83 288.533 763.403 292.484 762.549 296.114C761.694 299.744 760.36 302.84 758.438 305.349C756.463 307.965 753.847 310.047 750.644 311.542C747.441 313.037 743.544 313.784 738.899 313.784C735.429 313.784 732.173 313.197 729.183 311.969C726.194 310.741 723.578 309.033 721.389 306.897C719.2 304.709 717.492 302.2 716.211 299.317C714.93 296.434 714.289 293.338 714.289 289.921V284.529H728.703V289.067C728.703 291.683 729.504 294.085 731.052 296.221C732.6 298.356 735.216 299.424 738.899 299.424C741.355 299.424 743.277 299.05 744.611 298.356C745.946 297.662 747.014 296.648 747.815 295.313C748.562 293.978 748.989 292.43 749.149 290.562C749.309 288.747 749.363 286.665 749.363 284.423C749.363 281.807 749.256 279.618 749.096 277.91C748.936 276.201 748.509 274.867 747.975 273.799C747.334 272.785 746.426 271.931 745.359 271.237C744.291 270.596 742.85 269.849 741.035 269.101L730.732 264.884C724.539 262.321 720.375 258.958 718.239 254.794C716.104 250.63 715.036 245.345 715.036 239.046C715.036 235.255 715.57 231.679 716.585 228.315C717.599 224.952 719.147 222.016 721.229 219.56C723.204 217.105 725.713 215.183 728.81 213.688C731.853 212.247 735.536 211.499 739.753 211.499C743.33 211.499 746.587 212.14 749.576 213.475C752.566 214.809 755.128 216.517 757.264 218.706C761.588 223.244 763.777 228.422 763.777 234.241V241.288L763.937 241.395Z" fill="#3AA4DD"/>
<path d="M849.512 284.316V290.508C849.512 293.605 848.925 296.541 847.751 299.317C846.576 302.093 844.921 304.549 842.893 306.737C840.811 308.926 838.408 310.634 835.632 311.916C832.856 313.197 829.867 313.838 826.664 313.838C823.941 313.838 821.165 313.464 818.336 312.716C815.506 311.969 812.944 310.634 810.702 308.766C808.46 306.898 806.591 304.442 805.096 301.506C803.655 298.516 802.908 294.726 802.908 290.135V234.775C802.908 231.465 803.495 228.422 804.616 225.593C805.737 222.764 807.339 220.308 809.421 218.226C811.503 216.144 813.958 214.542 816.841 213.368C819.724 212.193 822.874 211.606 826.397 211.606C833.177 211.606 838.675 213.795 842.946 218.226C845.028 220.415 846.63 222.977 847.804 225.913C848.979 228.903 849.566 232.106 849.566 235.576V241.235H835.152V236.43C835.152 233.601 834.351 231.145 832.75 229.063C831.148 226.981 828.959 225.967 826.237 225.967C822.66 225.967 820.258 227.088 819.083 229.276C817.909 231.465 817.322 234.295 817.322 237.658V289.067C817.322 292.003 817.962 294.459 819.243 296.434C820.525 298.409 822.82 299.424 826.077 299.424C827.038 299.424 828.052 299.264 829.12 298.943C830.187 298.623 831.202 298.089 832.162 297.342C833.017 296.594 833.711 295.58 834.298 294.245C834.885 292.911 835.152 291.256 835.152 289.281V284.316H849.566H849.512Z" fill="#3AA4DD"/>
<path d="M860.51 265.418C860.51 262.482 860.67 259.812 861.097 257.357C861.524 254.901 862.165 252.766 863.232 250.844C864.941 247.747 867.343 245.238 870.493 243.37C873.642 241.501 877.486 240.54 882.024 240.54C886.561 240.54 890.352 241.501 893.555 243.37C896.704 245.238 899.107 247.747 900.815 250.844C901.829 252.712 902.577 254.901 902.95 257.357C903.324 259.812 903.538 262.482 903.538 265.418V289.014C903.538 291.95 903.324 294.619 902.95 297.075C902.577 299.53 901.883 301.666 900.815 303.588C899.107 306.684 896.704 309.193 893.555 311.061C890.405 312.93 886.561 313.891 882.024 313.891C877.486 313.891 873.642 312.93 870.493 311.061C867.343 309.193 864.941 306.684 863.232 303.588C862.218 301.719 861.471 299.53 861.097 297.075C860.723 294.619 860.51 291.95 860.51 289.014V265.418ZM874.924 291.256C874.924 293.978 875.564 296.06 876.845 297.395C878.127 298.783 879.835 299.424 882.024 299.424C884.212 299.424 885.921 298.73 887.202 297.395C888.483 296.007 889.124 293.978 889.124 291.256V263.176C889.124 260.453 888.483 258.371 887.202 257.036C885.921 255.648 884.212 255.008 882.024 255.008C879.835 255.008 878.127 255.702 876.845 257.036C875.564 258.424 874.924 260.453 874.924 263.176V291.256Z" fill="#3AA4DD"/>
<path d="M944.112 312.983V306.47C943.151 307.485 942.297 308.446 941.442 309.353C940.588 310.261 939.627 311.008 938.613 311.702C937.599 312.343 936.371 312.876 935.09 313.25C933.755 313.624 932.207 313.837 930.445 313.837C924.413 313.837 920.249 311.595 917.9 307.058C917.046 305.456 916.458 303.481 916.085 301.132C915.711 298.783 915.498 295.633 915.498 291.683V264.403C915.498 259.225 915.658 255.435 915.925 252.979C916.512 248.281 918.701 244.758 922.544 242.409C924.359 241.181 927.029 240.594 930.605 240.594C933.435 240.594 935.944 241.234 938.133 242.516C940.321 243.797 942.243 245.612 943.845 247.961H944.112V212.514H958.525V313.09H944.112V312.983ZM929.858 289.708C929.858 292.644 930.445 294.993 931.566 296.754C932.687 298.569 934.502 299.424 936.958 299.424C939.147 299.424 940.855 298.623 942.19 296.968C943.524 295.313 944.165 293.178 944.165 290.562V262.748C944.165 260.506 943.471 258.638 942.136 257.143C940.748 255.702 939.04 254.954 936.958 254.954C934.235 254.954 932.367 255.808 931.353 257.517C930.338 259.225 929.858 261.2 929.858 263.442V289.708Z" fill="#3AA4DD"/>
<path d="M1013.46 282.607H984.95V292.377C984.95 294.619 985.59 296.381 986.872 297.608C988.153 298.836 989.861 299.424 992.05 299.424C994.772 299.424 996.588 298.623 997.495 297.021C998.403 295.42 998.936 293.818 999.097 292.217H1013.51C1013.51 298.516 1011.59 303.588 1007.69 307.485C1005.82 309.46 1003.53 311.008 1000.91 312.129C998.296 313.25 995.306 313.837 991.996 313.837C987.459 313.837 983.615 312.876 980.465 311.008C977.316 309.14 974.86 306.63 973.205 303.534C972.191 301.666 971.443 299.477 971.07 297.021C970.696 294.566 970.482 291.896 970.482 288.96V265.364C970.482 262.428 970.696 259.759 971.07 257.303C971.443 254.848 972.137 252.712 973.205 250.79C974.913 247.694 977.316 245.185 980.465 243.316C983.615 241.448 987.459 240.487 991.996 240.487C995.306 240.487 998.296 241.074 1000.97 242.195C1003.63 243.316 1005.93 244.865 1007.8 246.84C1011.59 251.057 1013.46 256.396 1013.46 262.802V282.554V282.607ZM984.95 271.343H999.097V263.175C999.097 260.453 998.456 258.371 997.175 257.036C995.893 255.648 994.185 255.008 991.996 255.008C989.808 255.008 988.099 255.702 986.818 257.036C985.537 258.424 984.896 260.453 984.896 263.175V271.343H984.95Z" fill="#3AA4DD"/>
<defs>
<linearGradient id="paint0_linear_7902_236" x1="202.44" y1="4.47414" x2="202.44" y2="378.059" gradientUnits="userSpaceOnUse">
<stop offset="0.28" stop-color="#6BC390"/>
<stop offset="0.67" stop-color="#13BDDA"/>
<stop offset="0.89" stop-color="#3F9ED8"/>
</linearGradient>
<linearGradient id="paint1_linear_7902_236" x1="202.813" y1="21.7708" x2="202.813" y2="395.356" gradientUnits="userSpaceOnUse">
<stop offset="0.28" stop-color="#6BC390"/>
<stop offset="0.67" stop-color="#13BDDA"/>
<stop offset="0.89" stop-color="#3F9ED8"/>
</linearGradient>
</defs>
</svg>
