<?xml version="1.0" standalone="no"?><svg xmlns="http://www.w3.org/2000/svg" xmlns:xlink="http://www.w3.org/1999/xlink" style="isolation:isolate" viewBox="0 0 32 32" width="32" height="32"><defs><clipPath id="_clipPath_JJxmZepvpd3FwCSK8tyBNtVr2dlLm31q"><rect width="32" height="32"/></clipPath></defs><g clip-path="url(#_clipPath_JJxmZepvpd3FwCSK8tyBNtVr2dlLm31q)"><clipPath id="_clipPath_gBOzAWyBkYJbBs8SBNtUNY86mvH6gVr3"><rect x="0" y="0" width="32" height="32" transform="matrix(1,0,0,1,0,0)" fill="rgb(255,255,255)"/></clipPath><g clip-path="url(#_clipPath_gBOzAWyBkYJbBs8SBNtUNY86mvH6gVr3)"><g id="Group"><path d=" M 15.813 2.073 C 15.948 1.981 16.123 1.975 16.264 2.058 C 16.46 2.195 16.61 2.388 16.696 2.611 C 16.875 3.041 16.985 3.496 17.021 3.96 C 17.095 4.698 17.038 5.442 16.852 6.16 C 18.477 6.315 20.04 6.864 21.405 7.76 C 21.624 7.145 21.943 6.57 22.35 6.06 C 22.699 5.589 23.134 5.19 23.633 4.883 C 23.85 4.734 24.12 4.683 24.376 4.743 C 24.58 4.857 24.694 5.084 24.665 5.316 C 24.635 5.77 24.51 6.213 24.297 6.616 C 23.904 7.43 23.336 8.147 22.634 8.716 C 23.344 9.362 23.958 10.105 24.459 10.924 L 23.09 11.756 C 21.585 9.278 18.91 7.748 16.011 7.708 C 13.112 7.667 10.395 9.121 8.821 11.556 L 7.476 10.687 C 7.987 9.903 8.603 9.193 9.308 8.578 C 8.72 8.057 8.235 7.43 7.876 6.731 C 7.639 6.306 7.493 5.836 7.449 5.351 C 7.418 5.128 7.506 4.905 7.681 4.764 C 7.892 4.674 8.132 4.688 8.331 4.802 C 8.759 5.021 9.141 5.322 9.454 5.687 C 9.964 6.244 10.371 6.887 10.654 7.587 C 12.043 6.735 13.619 6.234 15.245 6.127 C 15.067 5.421 15.013 4.69 15.084 3.966 C 15.119 3.51 15.225 3.061 15.397 2.637 C 15.481 2.414 15.625 2.219 15.813 2.073 Z " fill="rgb(39,122,159)"/><path d=" M 2.549 12.6 L 4.477 12.6 Q 4.477 13.957 4.477 15.314 L 6.652 15.314 Q 6.652 13.958 6.652 12.601 L 8.581 12.601 Q 8.581 16.245 8.581 19.889 L 6.652 19.889 Q 6.652 18.442 6.652 16.997 L 4.477 16.997 Q 4.477 18.444 4.477 19.89 L 2.549 19.89 L 2.549 12.6 L 2.549 12.6 Z " fill="rgb(39,122,159)"/><path d=" M 10.153 12.6 L 14.862 12.6 L 14.862 14.214 L 12.082 14.214 L 12.082 15.358 L 14.459 15.358 Q 14.459 16.165 14.459 16.972 L 12.082 16.972 L 12.082 18.272 L 14.974 18.272 Q 14.974 19.079 14.974 19.886 L 10.153 19.886 L 10.153 12.6 L 10.153 12.6 Z " fill="rgb(39,122,159)"/><path d=" M 16.416 12.6 L 18.344 12.6 L 18.344 18.273 L 21.1 18.273 Q 21.1 19.08 21.1 19.887 L 16.416 19.887 L 16.416 12.6 L 16.416 12.6 Z " fill="rgb(39,122,159)"/><path d=" M 22.366 12.6 L 24.429 12.6 Q 24.911 13.907 25.392 15.215 C 25.604 15.759 25.741 16.326 25.918 16.881 C 25.956 16.834 25.983 16.78 25.996 16.721 C 26.108 16.33 26.224 15.939 26.347 15.55 Q 26.866 14.075 27.388 12.601 L 29.452 12.601 L 29.452 19.889 L 27.7 19.889 C 27.67 18.77 27.697 17.65 27.78 16.533 C 27.824 16.058 27.902 15.586 27.942 15.11 C 27.89 15.177 27.852 15.254 27.831 15.337 C 27.386 16.669 26.893 17.985 26.395 19.298 C 26.053 19.291 25.711 19.298 25.369 19.298 Q 24.927 18.111 24.486 16.924 C 24.314 16.424 24.148 15.914 23.98 15.409 C 23.958 15.303 23.913 15.204 23.849 15.117 C 23.979 16.032 24.06 16.954 24.091 17.878 Q 24.091 18.885 24.091 19.892 L 22.366 19.892 L 22.366 12.6 L 22.366 12.6 Z " fill="rgb(39,122,159)"/><path d=" M 7.667 21.8 Q 8.323 21.342 8.981 20.885 C 10.557 23.149 13.142 24.498 15.901 24.496 C 18.659 24.493 21.242 23.14 22.814 20.873 L 24.13 21.785 C 23.727 22.364 23.264 22.901 22.751 23.385 C 23.364 23.914 23.868 24.556 24.237 25.277 C 24.474 25.701 24.619 26.17 24.664 26.654 C 24.698 26.887 24.598 27.12 24.404 27.254 C 24.152 27.331 23.879 27.29 23.661 27.142 C 23.176 26.853 22.751 26.474 22.409 26.025 C 22.013 25.537 21.693 24.992 21.46 24.409 C 20.097 25.32 18.531 25.88 16.9 26.041 C 17.01 26.533 17.058 27.037 17.044 27.541 C 17.046 28.137 16.942 28.729 16.736 29.289 C 16.651 29.539 16.496 29.759 16.29 29.924 C 16.135 30.029 15.93 30.022 15.783 29.907 C 15.561 29.711 15.399 29.455 15.316 29.171 C 15.089 28.457 15.004 27.706 15.065 26.959 C 15.083 26.659 15.124 26.361 15.189 26.067 C 13.555 25.953 11.973 25.44 10.583 24.573 C 10.26 25.306 9.803 25.972 9.235 26.537 C 8.939 26.85 8.578 27.095 8.178 27.253 C 7.968 27.35 7.72 27.3 7.564 27.129 C 7.428 26.861 7.404 26.551 7.496 26.265 C 7.691 25.542 8.033 24.867 8.5 24.282 C 8.707 24.01 8.938 23.756 9.188 23.523 C 8.619 23.006 8.109 22.429 7.667 21.8 Z " fill="rgb(39,122,159)"/><path d=" M 20.1 25.765 C 20.1 23.557 21.892 21.765 24.1 21.765 C 26.308 21.765 28.1 23.557 28.1 25.765 C 28.1 27.973 26.308 29.765 24.1 29.765 C 21.892 29.765 20.1 27.973 20.1 25.765 Z " fill="rgb(229,20,0)"/></g></g></g></svg>
