<?xml version="1.0" encoding="UTF-8" standalone="no"?>
<!-- Created with Inkscape (http://www.inkscape.org/) -->

<svg
   xmlns:osb="http://www.openswatchbook.org/uri/2009/osb"
   xmlns:dc="http://purl.org/dc/elements/1.1/"
   xmlns:cc="http://creativecommons.org/ns#"
   xmlns:rdf="http://www.w3.org/1999/02/22-rdf-syntax-ns#"
   xmlns:svg="http://www.w3.org/2000/svg"
   xmlns="http://www.w3.org/2000/svg"
   xmlns:sodipodi="http://sodipodi.sourceforge.net/DTD/sodipodi-0.dtd"
   xmlns:inkscape="http://www.inkscape.org/namespaces/inkscape"
   width="29"
   height="28"
   id="svg2"
   version="1.1"
   inkscape:version="0.91 r13725"
   sodipodi:docname="logo.svg"
   inkscape:export-filename="/home/thockin/src/kubernetes/new.png"
   inkscape:export-xdpi="460.95001"
   inkscape:export-ydpi="460.95001">
  <defs
     id="defs4">
    <linearGradient
       id="linearGradient5603"
       osb:paint="solid">
      <stop
         style="stop-color:#010101;stop-opacity:1;"
         offset="0"
         id="stop5605" />
    </linearGradient>
    <linearGradient
       id="linearGradient5597"
       osb:paint="solid">
      <stop
         style="stop-color:#010101;stop-opacity:1;"
         offset="0"
         id="stop5599" />
    </linearGradient>
  </defs>
  <sodipodi:namedview
     id="base"
     pagecolor="#ffffff"
     bordercolor="#666666"
     borderopacity="1.0"
     inkscape:pageopacity="0.0"
     inkscape:pageshadow="2"
     inkscape:zoom="22.589975"
     inkscape:cx="22.631507"
     inkscape:cy="17.426082"
     inkscape:document-units="px"
     inkscape:current-layer="g3052"
     showgrid="false"
     inkscape:window-width="1920"
     inkscape:window-height="1156"
     inkscape:window-x="0"
     inkscape:window-y="0"
     inkscape:window-maximized="1"
     inkscape:snap-global="false"
     fit-margin-top="10"
     fit-margin-left="10"
     fit-margin-right="10"
     fit-margin-bottom="10"
     units="mm" />
  <metadata
     id="metadata7">
    <rdf:RDF>
      <cc:Work
         rdf:about="">
        <dc:format>image/svg+xml</dc:format>
        <dc:type
           rdf:resource="http://purl.org/dc/dcmitype/StillImage" />
        <dc:title></dc:title>
      </cc:Work>
    </rdf:RDF>
  </metadata>
  <g
     inkscape:label="Layer 1"
     inkscape:groupmode="layer"
     id="layer1"
     transform="translate(-6.3260942,-848.71877)">
    <g
       id="g3052">
      <path
         style="fill:#010101;fill-opacity:1;stroke:#ffffff;stroke-width:0;stroke-miterlimit:4;stroke-dasharray:none;stroke-opacity:1"
         d="M 14.357422 0.48632812 A 1.861436 1.8462027 0 0 0 13.644531 0.66796875 L 3.9101562 5.3183594 A 1.861436 1.8462027 0 0 0 2.9023438 6.5703125 L 0.50195312 17.019531 A 1.861436 1.8462027 0 0 0 0.75390625 18.433594 A 1.861436 1.8462027 0 0 0 0.859375 18.582031 L 7.5976562 26.958984 A 1.861436 1.8462027 0 0 0 9.0527344 27.652344 L 19.857422 27.650391 A 1.861436 1.8462027 0 0 0 21.3125 26.957031 L 28.048828 18.580078 A 1.861436 1.8462027 0 0 0 28.408203 17.017578 L 26.003906 6.5683594 A 1.861436 1.8462027 0 0 0 24.996094 5.3164062 L 15.259766 0.66796875 A 1.861436 1.8462027 0 0 0 14.357422 0.48828125 L 14.357422 0.48632812 z M 14.455078 4.0429688 C 14.776858 4.0429387 15.037069 4.3319431 15.037109 4.6894531 C 15.037109 4.7401431 15.041062 4.8085687 15.039062 4.8554688 C 15.031363 5.0616687 14.986084 5.2201763 14.958984 5.4101562 C 14.909984 5.8167762 14.867178 6.1535069 14.892578 6.4667969 C 14.915598 6.6235869 15.008184 6.6852125 15.083984 6.7578125 C 15.085684 6.8000425 15.092656 6.9399781 15.097656 7.0175781 C 16.950196 7.1821481 18.669954 8.0284556 19.933594 9.3535156 L 20.154297 9.1972656 C 20.229387 9.2016656 20.394823 9.2240031 20.507812 9.1582031 C 20.768532 8.9826731 21.007582 8.7391256 21.294922 8.4472656 C 21.426572 8.3076656 21.523257 8.1736425 21.679688 8.0390625 C 21.715357 8.0083325 21.768794 7.9670469 21.808594 7.9355469 C 22.088074 7.7126169 22.477074 7.7367413 22.677734 7.9882812 C 22.878394 8.2398312 22.814636 8.6246963 22.535156 8.8476562 C 22.495726 8.8793863 22.44375 8.9234719 22.40625 8.9511719 C 22.24026 9.0737419 22.087275 9.137075 21.921875 9.234375 C 21.573415 9.449585 21.283808 9.6266369 21.054688 9.8417969 C 20.946128 9.9575569 20.954313 10.067325 20.945312 10.171875 C 20.912993 10.201565 20.798681 10.302522 20.738281 10.357422 C 21.240481 11.104912 21.617018 11.953229 21.830078 12.880859 C 22.041188 13.799929 22.075115 14.718962 21.953125 15.601562 L 22.1875 15.669922 C 22.22979 15.729782 22.317213 15.874475 22.439453 15.921875 C 22.739243 16.016285 23.077045 16.05105 23.484375 16.09375 C 23.675615 16.10965 23.840229 16.100272 24.042969 16.138672 C 24.091489 16.147772 24.162891 16.168288 24.212891 16.179688 C 24.556321 16.262567 24.775978 16.577652 24.705078 16.888672 C 24.634118 17.199752 24.298615 17.388853 23.953125 17.314453 C 23.950125 17.314093 23.948313 17.315013 23.945312 17.314453 C 23.941112 17.313453 23.937594 17.311487 23.933594 17.310547 C 23.885434 17.299947 23.825303 17.288644 23.783203 17.277344 C 23.583883 17.223984 23.438976 17.144772 23.259766 17.076172 C 22.874256 16.937922 22.555211 16.822344 22.244141 16.777344 C 22.086151 16.764904 22.005569 16.840637 21.917969 16.898438 C 21.875399 16.889837 21.743369 16.865316 21.667969 16.853516 C 21.109679 18.608046 19.922317 20.128418 18.310547 21.080078 C 18.338347 21.147248 18.38415 21.289153 18.40625 21.314453 C 18.36945 21.412743 18.314028 21.506963 18.361328 21.658203 C 18.474428 21.951463 18.658306 22.238894 18.878906 22.583984 C 18.985706 22.743404 19.095006 22.864415 19.191406 23.046875 C 19.214406 23.090525 19.245278 23.158978 19.267578 23.205078 C 19.417408 23.525438 19.307141 23.894653 19.019531 24.033203 C 18.729641 24.172863 18.370004 24.025205 18.214844 23.703125 C 18.192644 23.657505 18.161378 23.595834 18.142578 23.552734 C 18.059968 23.363614 18.030756 23.202431 17.972656 23.019531 C 17.840376 22.631921 17.731046 22.310322 17.572266 22.039062 C 17.483496 21.907753 17.375191 21.891875 17.275391 21.859375 C 17.256911 21.827525 17.187491 21.700566 17.150391 21.634766 C 16.828511 21.756396 16.495271 21.857247 16.150391 21.935547 C 14.638581 22.278797 13.125487 22.140054 11.773438 21.621094 L 11.642578 21.859375 C 11.544358 21.885665 11.448725 21.913122 11.390625 21.982422 C 11.178405 22.235592 11.093613 22.642057 10.939453 23.029297 C 10.881403 23.212197 10.853984 23.37338 10.771484 23.5625 C 10.752784 23.6053 10.721319 23.665438 10.699219 23.710938 C 10.699219 23.710938 10.699219 23.712891 10.699219 23.712891 C 10.543729 24.033551 10.184001 24.180376 9.8945312 24.041016 C 9.6068913 23.902536 9.4967344 23.535244 9.6464844 23.214844 C 9.6687844 23.168704 9.6976031 23.100341 9.7207031 23.056641 C 9.8170831 22.874181 9.9264031 22.751217 10.033203 22.591797 C 10.253783 22.246697 10.447457 21.935838 10.560547 21.642578 C 10.588947 21.545188 10.547866 21.413053 10.509766 21.314453 L 10.615234 21.060547 C 9.0643444 20.141587 7.8402994 18.677194 7.2558594 16.865234 L 7.0019531 16.908203 C 6.9338631 16.870143 6.7959456 16.778862 6.6660156 16.789062 C 6.3549556 16.834062 6.0359006 16.949621 5.6503906 17.087891 C 5.4711906 17.156541 5.3262731 17.235662 5.1269531 17.289062 C 5.0848231 17.300363 5.0247625 17.311666 4.9765625 17.322266 C 4.9723625 17.323266 4.9688437 17.325282 4.9648438 17.326172 C 4.9618437 17.326532 4.9590313 17.327565 4.9570312 17.328125 C 4.6115712 17.402585 4.2760781 17.213424 4.2050781 16.902344 C 4.1340581 16.591344 4.3538456 16.276359 4.6972656 16.193359 C 4.7002656 16.193359 4.7040312 16.190093 4.7070312 16.189453 C 4.7090313 16.189313 4.7089375 16.189853 4.7109375 16.189453 C 4.7597675 16.178053 4.8225875 16.160344 4.8671875 16.152344 C 5.0699375 16.113544 5.2345513 16.125275 5.4257812 16.109375 C 5.8331112 16.066665 6.1709031 16.0319 6.4707031 15.9375 C 6.5657531 15.8985 6.6564031 15.766694 6.7207031 15.683594 L 6.9648438 15.613281 C 6.6914137 13.719831 7.1546169 11.861872 8.1542969 10.357422 L 7.9667969 10.189453 C 7.9548969 10.116763 7.9391094 9.9489156 7.8496094 9.8535156 C 7.6204794 9.6383656 7.332845 9.4593406 6.984375 9.2441406 C 6.818975 9.1468406 6.666 9.0854506 6.5 8.9628906 C 6.46464 8.9367906 6.4173062 8.8963344 6.3789062 8.8652344 L 6.3710938 8.859375 C 6.0915537 8.636495 6.0279156 8.2516 6.2285156 8 C 6.3413456 7.85848 6.5122963 7.7889219 6.6914062 7.7949219 C 6.8307162 7.7996919 6.9753663 7.8497656 7.0976562 7.9472656 C 7.1374362 7.9786956 7.1910625 8.0201812 7.2265625 8.0507812 C 7.3830025 8.1853513 7.4796681 8.3193844 7.6113281 8.4589844 C 7.8986881 8.7508244 8.1357544 8.9924587 8.3964844 9.1679688 C 8.5334344 9.2477687 8.6381675 9.2151719 8.7421875 9.2011719 C 8.7756675 9.2259219 8.888825 9.3076625 8.953125 9.3515625 C 9.944805 8.2993925 11.246916 7.5192812 12.759766 7.1757812 C 13.111356 7.0959413 13.46284 7.0426719 13.8125 7.0136719 L 13.826172 6.7675781 C 13.903742 6.6924781 13.990925 6.5849369 14.015625 6.4667969 C 14.041025 6.1535069 14.000172 5.8167762 13.951172 5.4101562 C 13.924072 5.2201663 13.879094 5.0616687 13.871094 4.8554688 C 13.869094 4.8131687 13.872567 4.7556312 13.873047 4.7070312 C 13.873047 4.7015313 13.871094 4.6944531 13.871094 4.6894531 C 13.871054 4.3319331 14.133298 4.0429988 14.455078 4.0429688 z M 13.724609 8.5605469 C 13.518079 8.5856269 13.310916 8.6208687 13.103516 8.6679688 C 11.968146 8.9257488 10.983111 9.4848175 10.212891 10.242188 L 12.71875 12.019531 L 12.724609 12.017578 C 12.809499 12.079578 12.912221 12.115234 13.025391 12.115234 C 13.301671 12.115234 13.527462 11.89843 13.539062 11.625 L 13.550781 11.617188 L 13.724609 8.5625 L 13.724609 8.5605469 z M 15.185547 8.5625 L 15.357422 11.613281 L 15.359375 11.613281 C 15.363825 11.718301 15.402056 11.823609 15.472656 11.912109 C 15.644926 12.128079 15.956744 12.167279 16.177734 12.005859 L 16.185547 12.009766 L 18.675781 10.244141 C 17.736391 9.3242306 16.511117 8.72554 15.185547 8.5625 z M 9.3046875 11.384766 C 8.6255875 12.491086 8.303835 13.818524 8.453125 15.183594 L 11.386719 14.337891 L 11.388672 14.328125 C 11.490072 14.300415 11.583697 14.240844 11.654297 14.152344 C 11.826587 13.936344 11.796384 13.624862 11.589844 13.445312 L 11.591797 13.431641 L 9.3046875 11.384766 z M 19.587891 11.388672 L 17.3125 13.423828 L 17.314453 13.429688 C 17.235163 13.498658 17.175591 13.590842 17.150391 13.701172 C 17.088941 13.970522 17.251635 14.2404 17.515625 14.3125 L 17.517578 14.324219 L 20.466797 15.173828 C 20.529237 14.537838 20.491284 13.879963 20.339844 13.220703 C 20.18672 12.554035 19.927432 11.939367 19.587891 11.388672 z M 13.984375 13.589844 L 13.400391 14.316406 L 13.609375 15.226562 L 14.455078 15.630859 L 15.294922 15.226562 L 15.505859 14.318359 L 14.921875 13.589844 L 13.984375 13.589844 z M 16.990234 16.082031 C 16.923834 16.085331 16.856669 16.104066 16.792969 16.134766 C 16.544059 16.254646 16.436732 16.549391 16.544922 16.800781 L 16.541016 16.804688 L 17.71875 19.650391 C 18.85398 18.927181 19.704418 17.845126 20.148438 16.597656 L 17.113281 16.085938 L 17.109375 16.091797 C 17.070595 16.084797 17.030034 16.080031 16.990234 16.082031 z M 11.894531 16.09375 C 11.861481 16.09375 11.828522 16.097516 11.794922 16.103516 L 11.789062 16.097656 L 8.78125 16.607422 C 9.24545 17.891752 10.113655 18.939572 11.203125 19.638672 L 12.367188 16.822266 L 12.359375 16.810547 C 12.400875 16.713987 12.411919 16.604471 12.386719 16.494141 C 12.332919 16.258461 12.126051 16.09675 11.894531 16.09375 z M 14.435547 17.328125 C 14.258127 17.334645 14.0888 17.433709 14 17.599609 L 13.998047 17.599609 L 12.519531 20.273438 C 13.543081 20.622197 14.672661 20.700829 15.806641 20.443359 C 16.008981 20.397419 16.207961 20.341844 16.400391 20.277344 L 14.917969 17.597656 L 14.90625 17.597656 C 14.85667 17.504966 14.777751 17.428006 14.675781 17.378906 C 14.597991 17.341506 14.516247 17.325125 14.435547 17.328125 z "
         transform="translate(6.3260942,848.71877)"
         id="path3055" />
    </g>
  </g>
</svg>
