<?xml version="1.0" encoding="UTF-8"?>
<svg width="717px" height="146px" viewBox="0 0 717 146" version="1.1" xmlns="http://www.w3.org/2000/svg" xmlns:xlink="http://www.w3.org/1999/xlink">
    <!-- Generator: Sketch 51.3 (57544) - http://www.bohemiancoding.com/sketch -->
    <title>Cloud Native Applica</title>
    <desc>Created with Sketch.</desc>
    <defs></defs>
    <g id="Page-1" stroke="none" stroke-width="1" fill="none" fill-rule="evenodd">
        <path d="M3.63,28.748 C3.63,25.1839822 4.15799472,22.005014 5.214,19.211 C6.27000528,16.416986 7.72199076,14.0520097 9.57,12.116 C11.4180092,10.1799903 13.5959875,8.70600506 16.104,7.694 C18.6120125,6.68199494 21.2959857,6.176 24.156,6.176 C26.9280139,6.176 29.3809893,6.73699439 31.515,7.859 C33.6490107,8.98100561 35.4419927,10.245993 36.894,11.654 L31.548,17.66 C30.5359949,16.7359954 29.4360059,15.9880029 28.248,15.416 C27.0599941,14.8439971 25.6960077,14.558 24.156,14.558 C22.6159923,14.558 21.2080064,14.8769968 19.932,15.515 C18.6559936,16.1530032 17.5450047,17.0659941 16.599,18.254 C15.6529953,19.4420059 14.9160026,20.8939914 14.388,22.61 C13.8599974,24.3260086 13.596,26.2619892 13.596,28.418 C13.596,32.8620222 14.6079899,36.3049878 16.632,38.747 C18.6560101,41.1890122 21.2959837,42.41 24.552,42.41 C26.0920077,42.41 27.4889937,42.0580035 28.743,41.354 C29.9970063,40.6499965 31.1519947,39.7260057 32.208,38.582 L37.554,44.456 C33.945982,48.6800211 29.4140273,50.792 23.958,50.792 C21.1859861,50.792 18.5680123,50.3190047 16.104,49.373 C13.6399877,48.4269953 11.4840092,47.0300092 9.636,45.182 C7.78799076,43.3339908 6.32500539,41.0350137 5.247,38.285 C4.16899461,35.5349862 3.63,32.356018 3.63,28.748 Z M44.119141,3.734 L63.325141,3.734 L63.325141,37.592 C63.325141,38.6040051 63.4681396,39.4509966 63.754141,40.133 C64.0401424,40.8150034 64.4361385,41.3649979 64.942141,41.783 C65.4481435,42.2010021 66.0201378,42.4979991 66.658141,42.674 C67.2961442,42.8500009 67.9451377,42.938 68.605141,42.938 C69.3531447,42.938 70.1451368,42.8610008 70.981141,42.707 C71.8171452,42.5529992 72.7411359,42.278002 73.753141,41.882 L75.931141,49.01 C75.0511366,49.2740013 74.2371447,49.5159989 73.489141,49.736 C72.7411373,49.9560011 71.9931447,50.1429992 71.245141,50.297 C70.4971373,50.4510008 69.7051452,50.5719996 68.869141,50.66 C68.0331368,50.7480004 67.1091461,50.792 66.097141,50.792 C61.9611203,50.792 58.8481515,49.5710122 56.758141,47.129 C54.6681306,44.6869878 53.623141,41.3760209 53.623141,37.196 L53.623141,11.39 L44.119141,11.39 L44.119141,3.734 Z M83.156282,33.632 C83.156282,30.9039864 83.6182774,28.4730107 84.542282,26.339 C85.4662866,24.2049893 86.7092742,22.4120073 88.271282,20.96 C89.8332898,19.5079927 91.615272,18.3970039 93.617282,17.627 C95.619292,16.8569961 97.6982712,16.472 99.854282,16.472 C102.010293,16.472 104.089272,16.8569961 106.091282,17.627 C108.093292,18.3970039 109.875274,19.5079927 111.437282,20.96 C112.99929,22.4120073 114.242277,24.2049893 115.166282,26.339 C116.090287,28.4730107 116.552282,30.9039864 116.552282,33.632 C116.552282,36.3600136 116.090287,38.7909893 115.166282,40.925 C114.242277,43.0590107 112.99929,44.8519927 111.437282,46.304 C109.875274,47.7560073 108.093292,48.8669961 106.091282,49.637 C104.089272,50.4070038 102.010293,50.792 99.854282,50.792 C97.6982712,50.792 95.619292,50.4070038 93.617282,49.637 C91.615272,48.8669961 89.8332898,47.7560073 88.271282,46.304 C86.7092742,44.8519927 85.4662866,43.0590107 84.542282,40.925 C83.6182774,38.7909893 83.156282,36.3600136 83.156282,33.632 Z M93.122282,33.632 C93.122282,36.4920143 93.6832764,38.7579916 94.805282,40.43 C95.9272876,42.1020084 97.6102708,42.938 99.854282,42.938 C102.098293,42.938 103.781276,42.1020084 104.903282,40.43 C106.025288,38.7579916 106.586282,36.4920143 106.586282,33.632 C106.586282,30.7719857 106.025288,28.5060084 104.903282,26.834 C103.781276,25.1619916 102.098293,24.326 99.854282,24.326 C97.6102708,24.326 95.9272876,25.1619916 94.805282,26.834 C93.6832764,28.5060084 93.122282,30.7719857 93.122282,33.632 Z M154.731423,50 L146.811423,50 L146.085423,45.314 L145.821423,45.314 C144.369416,46.9860084 142.763432,48.3169951 141.003423,49.307 C139.243414,50.297005 137.175435,50.792 134.799423,50.792 C131.059404,50.792 128.353431,49.6040119 126.681423,47.228 C125.009415,44.8519881 124.173423,41.5960207 124.173423,37.46 L124.173423,17.264 L133.875423,17.264 L133.875423,36.206 C133.875423,38.406011 134.20542,40.0119949 134.865423,41.024 C135.525426,42.0360051 136.779414,42.542 138.627423,42.542 C139.859429,42.542 140.948418,42.2780026 141.894423,41.75 C142.840428,41.2219974 143.885417,40.2320073 145.029423,38.78 L145.029423,17.264 L154.731423,17.264 L154.731423,50 Z M163.210564,33.632 C163.210564,30.9479866 163.60656,28.5500106 164.398564,26.438 C165.190568,24.3259894 166.235558,22.5330074 167.533564,21.059 C168.83157,19.5849926 170.316556,18.452004 171.988564,17.66 C173.660572,16.867996 175.398555,16.472 177.202564,16.472 C179.094573,16.472 180.678558,16.7909968 181.954564,17.429 C183.23057,18.0670032 184.440558,18.9139947 185.584564,19.97 L185.254564,14.888 L185.254564,3.734 L194.956564,3.734 L194.956564,50 L187.036564,50 L186.310564,46.634 L186.112564,46.634 C184.880558,47.8220059 183.472572,48.811996 181.888564,49.604 C180.304556,50.396004 178.676572,50.792 177.004564,50.792 C174.936554,50.792 173.055572,50.396004 171.361564,49.604 C169.667556,48.811996 168.21557,47.6790074 167.005564,46.205 C165.795558,44.7309926 164.860567,42.9380106 164.200564,40.826 C163.540561,38.7139894 163.210564,36.3160134 163.210564,33.632 Z M173.176564,33.5 C173.176564,36.7560163 173.726559,39.1319925 174.826564,40.628 C175.92657,42.1240075 177.488554,42.872 179.512564,42.872 C180.61257,42.872 181.624559,42.6410023 182.548564,42.179 C183.472569,41.7169977 184.37456,40.9360055 185.254564,39.836 L185.254564,26.57 C184.37456,25.777996 183.483569,25.2170016 182.581564,24.887 C181.679559,24.5569984 180.744569,24.392 179.776564,24.392 C177.972555,24.392 176.42157,25.1399925 175.123564,26.636 C173.825558,28.1320075 173.176564,30.4199846 173.176564,33.5 Z M244.518846,6.968 L254.418846,6.968 L263.526846,28.418 L267.222846,37.856 L267.486846,37.856 C267.266845,35.5679886 266.980848,33.0160141 266.628846,30.2 C266.276844,27.3839859 266.100846,24.7220125 266.100846,22.214 L266.100846,6.968 L275.406846,6.968 L275.406846,50 L265.506846,50 L256.398846,28.55 L252.702846,19.178 L252.438846,19.178 C252.658847,21.5540119 252.944844,24.1059864 253.296846,26.834 C253.648848,29.5620136 253.824846,32.2019872 253.824846,34.754 L253.824846,50 L244.518846,50 L244.518846,6.968 Z M284.215987,40.892 C284.215987,39.0439908 284.611983,37.4270069 285.403987,36.041 C286.195991,34.6549931 287.460978,33.4780048 289.198987,32.51 C290.936996,31.5419952 293.169973,30.761003 295.897987,30.167 C298.626001,29.572997 301.925968,29.1660011 305.797987,28.946 C305.621986,27.4499925 304.972993,26.2840042 303.850987,25.448 C302.728981,24.6119958 301.045998,24.194 298.801987,24.194 C297.217979,24.194 295.622995,24.4689973 294.016987,25.019 C292.410979,25.5690027 290.683996,26.3059954 288.835987,27.23 L285.403987,20.894 C287.647998,19.6179936 290.056974,18.5620042 292.630987,17.726 C295.205,16.8899958 297.899973,16.472 300.715987,16.472 C305.29201,16.472 308.899974,17.6819879 311.539987,20.102 C314.18,22.5220121 315.499987,26.2399749 315.499987,31.256 L315.499987,50 L307.579987,50 L306.853987,46.304 L306.589987,46.304 C304.917979,47.5800064 303.091997,48.6469957 301.111987,49.505 C299.131977,50.3630043 297.085998,50.792 294.973987,50.792 C293.301979,50.792 291.805994,50.5390025 290.485987,50.033 C289.16598,49.5269975 288.043992,48.8230045 287.119987,47.921 C286.195982,47.0189955 285.48099,45.9740059 284.974987,44.786 C284.468984,43.5979941 284.215987,42.300007 284.215987,40.892 Z M293.521987,40.166 C293.521987,41.2220053 293.928983,42.0029975 294.742987,42.509 C295.556991,43.0150025 296.66798,43.268 298.075987,43.268 C299.527994,43.268 300.891981,42.971003 302.167987,42.377 C303.443993,41.782997 304.653981,41.0460044 305.797987,40.166 L305.797987,34.754 C303.377975,34.8860007 301.375995,35.1059985 299.791987,35.414 C298.207979,35.7220015 296.953992,36.1069977 296.029987,36.569 C295.105982,37.0310023 294.456989,37.5699969 294.082987,38.186 C293.708985,38.8020031 293.521987,39.4619965 293.521987,40.166 Z M331.701128,24.854 L323.451128,24.854 L323.451128,17.66 L332.163128,17.264 L333.417128,8.552 L341.403128,8.552 L341.403128,17.264 L355.263128,17.264 L355.263128,24.854 L341.403128,24.854 L341.403128,36.338 C341.403128,38.8460125 341.953123,40.6169948 343.053128,41.651 C344.153134,42.6850052 345.891116,43.202 348.267128,43.202 C349.543134,43.202 350.709123,43.0920011 351.765128,42.872 C352.821133,42.6519989 353.833123,42.3660018 354.801128,42.014 L356.517128,49.01 C355.065121,49.4500022 353.448137,49.8569981 351.666128,50.231 C349.884119,50.6050019 347.937139,50.792 345.825128,50.792 C343.229115,50.792 341.029137,50.4400035 339.225128,49.736 C337.421119,49.0319965 335.958134,48.0530063 334.836128,46.799 C333.714122,45.5449937 332.91113,44.0380088 332.427128,42.278 C331.943126,40.5179912 331.701128,38.5600108 331.701128,36.404 L331.701128,24.854 Z M365.458269,17.264 L388.294269,17.264 L388.294269,50 L378.592269,50 L378.592269,24.854 L365.458269,24.854 L365.458269,17.264 Z M383.014269,12.446 C381.12226,12.446 379.571275,11.9180053 378.361269,10.862 C377.151263,9.80599472 376.546269,8.37600902 376.546269,6.572 C376.546269,4.76799098 377.151263,3.30500561 378.361269,2.183 C379.571275,1.06099439 381.12226,0.5 383.014269,0.5 C384.906278,0.5 386.457263,1.06099439 387.667269,2.183 C388.877275,3.30500561 389.482269,4.76799098 389.482269,6.572 C389.482269,8.37600902 388.877275,9.80599472 387.667269,10.862 C386.457263,11.9180053 384.906278,12.446 383.014269,12.446 Z M402.31741,17.264 L412.08541,17.264 L417.23341,32.708 C417.761413,34.3800084 418.267408,36.0519916 418.75141,37.724 C419.235412,39.3960084 419.719408,41.0899914 420.20341,42.806 L420.46741,42.806 C420.951412,41.0899914 421.424408,39.3960084 421.88641,37.724 C422.348412,36.0519916 422.843407,34.3800084 423.37141,32.708 L428.51941,17.264 L437.82541,17.264 L425.81341,50 L414.65941,50 L402.31741,17.264 Z M443.928551,33.632 C443.928551,30.9479866 444.401546,28.5500106 445.347551,26.438 C446.293556,24.3259894 447.558543,22.5330074 449.142551,21.059 C450.726559,19.5849926 452.541541,18.452004 454.587551,17.66 C456.633561,16.867996 458.75654,16.472 460.956551,16.472 C463.464564,16.472 465.686541,16.867996 467.622551,17.66 C469.558561,18.452004 471.164545,19.551993 472.440551,20.96 C473.716557,22.368007 474.684548,24.0289904 475.344551,25.943 C476.004554,27.8570096 476.334551,29.9359888 476.334551,32.18 C476.334551,33.0600044 476.290551,33.895996 476.202551,34.688 C476.114551,35.480004 476.026551,36.073998 475.938551,36.47 L453.894551,36.47 C454.246553,38.9340123 455.313542,40.7049946 457.095551,41.783 C458.87756,42.8610054 460.978539,43.4 463.398551,43.4 C464.894558,43.4 466.313544,43.2130019 467.655551,42.839 C468.997558,42.4649981 470.394544,41.9040037 471.846551,41.156 L475.014551,46.964 C473.166542,48.1520059 471.098562,49.0869966 468.810551,49.769 C466.52254,50.4510034 464.278562,50.792 462.078551,50.792 C459.526538,50.792 457.150562,50.4070038 454.950551,49.637 C452.75054,48.8669961 450.836559,47.7450074 449.208551,46.271 C447.580543,44.7969926 446.293556,43.0040106 445.347551,40.892 C444.401546,38.7799894 443.928551,36.3600136 443.928551,33.632 Z M467.556551,30.068 C467.556551,28.2199908 467.050556,26.7240057 466.038551,25.58 C465.026546,24.4359943 463.398562,23.864 461.154551,23.864 C459.394542,23.864 457.832558,24.3699949 456.468551,25.382 C455.104544,26.3940051 454.202553,27.9559894 453.762551,30.068 L467.556551,30.068 Z M24.156,115.18 L23.166,111.22 C22.5939971,109.063989 22.0220029,106.776012 21.45,104.356 C20.8779971,101.935988 20.3060029,99.6040112 19.734,97.36 L19.47,97.36 C18.9419974,99.6480114 18.3920029,101.990988 17.82,104.389 C17.2479971,106.787012 16.6760029,109.063989 16.104,111.22 L15.114,115.18 L24.156,115.18 Z M26.136,122.77 L13.134,122.77 L10.494,133 L0.594,133 L13.992,89.968 L25.608,89.968 L39.006,133 L28.71,133 L26.136,122.77 Z M54.481141,135.574 L54.481141,145.144 L44.779141,145.144 L44.779141,100.264 L52.699141,100.264 L53.425141,103.564 L53.623141,103.564 C54.9431476,102.375994 56.4611324,101.397004 58.177141,100.627 C59.8931496,99.8569961 61.6311322,99.472 63.391141,99.472 C65.4151511,99.472 67.2411329,99.867996 68.869141,100.66 C70.4971491,101.452004 71.8831353,102.573993 73.027141,104.026 C74.1711467,105.478007 75.040138,107.22699 75.634141,109.273 C76.228144,111.31901 76.525141,113.595987 76.525141,116.104 C76.525141,118.920014 76.129145,121.416989 75.337141,123.595 C74.545137,125.773011 73.4891476,127.620992 72.169141,129.139 C70.8491344,130.657008 69.3421495,131.811996 67.648141,132.604 C65.9541325,133.396004 64.1831502,133.792 62.335141,133.792 C59.343126,133.792 56.6151533,132.604012 54.151141,130.228 L54.481141,135.574 Z M54.481141,123.694 C55.4051456,124.486004 56.3621361,125.046998 57.352141,125.377 C58.342146,125.707002 59.2551368,125.872 60.091141,125.872 C61.9391502,125.872 63.4791348,125.113008 64.711141,123.595 C65.9431472,122.076992 66.559141,119.624017 66.559141,116.236 C66.559141,110.339971 64.557161,107.392 60.553141,107.392 C58.4851307,107.392 56.4611509,108.40399 54.481141,110.428 L54.481141,123.694 Z M94.508282,135.574 L94.508282,145.144 L84.806282,145.144 L84.806282,100.264 L92.726282,100.264 L93.452282,103.564 L93.650282,103.564 C94.9702886,102.375994 96.4882734,101.397004 98.204282,100.627 C99.9202906,99.8569961 101.658273,99.472 103.418282,99.472 C105.442292,99.472 107.268274,99.867996 108.896282,100.66 C110.52429,101.452004 111.910276,102.573993 113.054282,104.026 C114.198288,105.478007 115.067279,107.22699 115.661282,109.273 C116.255285,111.31901 116.552282,113.595987 116.552282,116.104 C116.552282,118.920014 116.156286,121.416989 115.364282,123.595 C114.572278,125.773011 113.516289,127.620992 112.196282,129.139 C110.876275,130.657008 109.36929,131.811996 107.675282,132.604 C105.981274,133.396004 104.210291,133.792 102.362282,133.792 C99.370267,133.792 96.6422943,132.604012 94.178282,130.228 L94.508282,135.574 Z M94.508282,123.694 C95.4322866,124.486004 96.3892771,125.046998 97.379282,125.377 C98.369287,125.707002 99.2822778,125.872 100.118282,125.872 C101.966291,125.872 103.506276,125.113008 104.738282,123.595 C105.970288,122.076992 106.586282,119.624017 106.586282,116.236 C106.586282,110.339971 104.584302,107.392 100.580282,107.392 C98.5122717,107.392 96.4882919,108.40399 94.508282,110.428 L94.508282,123.694 Z M124.173423,86.734 L143.379423,86.734 L143.379423,120.592 C143.379423,121.604005 143.522422,122.450997 143.808423,123.133 C144.094424,123.815003 144.49042,124.364998 144.996423,124.783 C145.502426,125.201002 146.07442,125.497999 146.712423,125.674 C147.350426,125.850001 147.99942,125.938 148.659423,125.938 C149.407427,125.938 150.199419,125.861001 151.035423,125.707 C151.871427,125.552999 152.795418,125.278002 153.807423,124.882 L155.985423,132.01 C155.105419,132.274001 154.291427,132.515999 153.543423,132.736 C152.795419,132.956001 152.047427,133.142999 151.299423,133.297 C150.551419,133.451001 149.759427,133.572 148.923423,133.66 C148.087419,133.748 147.163428,133.792 146.151423,133.792 C142.015402,133.792 138.902433,132.571012 136.812423,130.129 C134.722413,127.686988 133.677423,124.376021 133.677423,120.196 L133.677423,94.39 L124.173423,94.39 L124.173423,86.734 Z M165.322564,100.264 L188.158564,100.264 L188.158564,133 L178.456564,133 L178.456564,107.854 L165.322564,107.854 L165.322564,100.264 Z M182.878564,95.446 C180.986555,95.446 179.43557,94.9180053 178.225564,93.862 C177.015558,92.8059947 176.410564,91.376009 176.410564,89.572 C176.410564,87.767991 177.015558,86.3050056 178.225564,85.183 C179.43557,84.0609944 180.986555,83.5 182.878564,83.5 C184.770573,83.5 186.321558,84.0609944 187.531564,85.183 C188.74157,86.3050056 189.346564,87.767991 189.346564,89.572 C189.346564,91.376009 188.74157,92.8059947 187.531564,93.862 C186.321558,94.9180053 184.770573,95.446 182.878564,95.446 Z M204.557705,116.632 C204.557705,113.903986 205.0747,111.473011 206.108705,109.339 C207.14271,107.204989 208.528696,105.412007 210.266705,103.96 C212.004714,102.507993 214.017694,101.397004 216.305705,100.627 C218.593716,99.8569961 220.991692,99.472 223.499705,99.472 C226.095718,99.472 228.438695,99.8899958 230.528705,100.726 C232.618715,101.562004 234.367698,102.617994 235.775705,103.894 L231.287705,109.9 C228.867693,108.183991 226.447717,107.326 224.027705,107.326 C221.211691,107.326 218.923714,108.161992 217.163705,109.834 C215.403696,111.506008 214.523705,113.771986 214.523705,116.632 C214.523705,119.492014 215.370697,121.757992 217.064705,123.43 C218.758713,125.102008 220.969691,125.938 223.697705,125.938 C225.413714,125.938 226.997698,125.630003 228.449705,125.014 C229.901712,124.397997 231.199699,123.672004 232.343705,122.836 L236.303705,128.974 C234.323695,130.646008 232.134717,131.866996 229.736705,132.637 C227.338693,133.407004 225.017716,133.792 222.773705,133.792 C220.177692,133.792 217.779716,133.407004 215.579705,132.637 C213.379694,131.866996 211.454713,130.756007 209.804705,129.304 C208.154697,127.851993 206.86771,126.059011 205.943705,123.925 C205.0197,121.790989 204.557705,119.360014 204.557705,116.632 Z M244.188846,123.892 C244.188846,122.043991 244.584842,120.427007 245.376846,119.041 C246.16885,117.654993 247.433837,116.478005 249.171846,115.51 C250.909855,114.541995 253.142832,113.761003 255.870846,113.167 C258.59886,112.572997 261.898827,112.166001 265.770846,111.946 C265.594845,110.449993 264.945852,109.284004 263.823846,108.448 C262.70184,107.611996 261.018857,107.194 258.774846,107.194 C257.190838,107.194 255.595854,107.468997 253.989846,108.019 C252.383838,108.569003 250.656855,109.305995 248.808846,110.23 L245.376846,103.894 C247.620857,102.617994 250.029833,101.562004 252.603846,100.726 C255.177859,99.8899958 257.872832,99.472 260.688846,99.472 C265.264869,99.472 268.872833,100.681988 271.512846,103.102 C274.152859,105.522012 275.472846,109.239975 275.472846,114.256 L275.472846,133 L267.552846,133 L266.826846,129.304 L266.562846,129.304 C264.890838,130.580006 263.064856,131.646996 261.084846,132.505 C259.104836,133.363004 257.058857,133.792 254.946846,133.792 C253.274838,133.792 251.778853,133.539003 250.458846,133.033 C249.138839,132.526997 248.016851,131.823005 247.092846,130.921 C246.168841,130.018995 245.453849,128.974006 244.947846,127.786 C244.441843,126.597994 244.188846,125.300007 244.188846,123.892 Z M253.494846,123.166 C253.494846,124.222005 253.901842,125.002997 254.715846,125.509 C255.52985,126.015003 256.640839,126.268 258.048846,126.268 C259.500853,126.268 260.86484,125.971003 262.140846,125.377 C263.416852,124.782997 264.62684,124.046004 265.770846,123.166 L265.770846,117.754 C263.350834,117.886001 261.348854,118.105998 259.764846,118.414 C258.180838,118.722002 256.926851,119.106998 256.002846,119.569 C255.078841,120.031002 254.429848,120.569997 254.055846,121.186 C253.681844,121.802003 253.494846,122.461996 253.494846,123.166 Z M291.673987,107.854 L283.423987,107.854 L283.423987,100.66 L292.135987,100.264 L293.389987,91.552 L301.375987,91.552 L301.375987,100.264 L315.235987,100.264 L315.235987,107.854 L301.375987,107.854 L301.375987,119.338 C301.375987,121.846013 301.925982,123.616995 303.025987,124.651 C304.125993,125.685005 305.863975,126.202 308.239987,126.202 C309.515993,126.202 310.681982,126.092001 311.737987,125.872 C312.793992,125.651999 313.805982,125.366002 314.773987,125.014 L316.489987,132.01 C315.03798,132.450002 313.420996,132.856998 311.638987,133.231 C309.856978,133.605002 307.909998,133.792 305.797987,133.792 C303.201974,133.792 301.001996,133.440004 299.197987,132.736 C297.393978,132.031996 295.930993,131.053006 294.808987,129.799 C293.686981,128.544994 292.883989,127.038009 292.399987,125.278 C291.915985,123.517991 291.673987,121.560011 291.673987,119.404 L291.673987,107.854 Z M325.431128,100.264 L348.267128,100.264 L348.267128,133 L338.565128,133 L338.565128,107.854 L325.431128,107.854 L325.431128,100.264 Z M342.987128,95.446 C341.095119,95.446 339.544134,94.9180053 338.334128,93.862 C337.124122,92.8059947 336.519128,91.376009 336.519128,89.572 C336.519128,87.767991 337.124122,86.3050056 338.334128,85.183 C339.544134,84.0609944 341.095119,83.5 342.987128,83.5 C344.879137,83.5 346.430122,84.0609944 347.640128,85.183 C348.850134,86.3050056 349.455128,87.767991 349.455128,89.572 C349.455128,91.376009 348.850134,92.8059947 347.640128,93.862 C346.430122,94.9180053 344.879137,95.446 342.987128,95.446 Z M363.346269,116.632 C363.346269,113.903986 363.808264,111.473011 364.732269,109.339 C365.656274,107.204989 366.899261,105.412007 368.461269,103.96 C370.023277,102.507993 371.805259,101.397004 373.807269,100.627 C375.809279,99.8569961 377.888258,99.472 380.044269,99.472 C382.20028,99.472 384.279259,99.8569961 386.281269,100.627 C388.283279,101.397004 390.065261,102.507993 391.627269,103.96 C393.189277,105.412007 394.432264,107.204989 395.356269,109.339 C396.280274,111.473011 396.742269,113.903986 396.742269,116.632 C396.742269,119.360014 396.280274,121.790989 395.356269,123.925 C394.432264,126.059011 393.189277,127.851993 391.627269,129.304 C390.065261,130.756007 388.283279,131.866996 386.281269,132.637 C384.279259,133.407004 382.20028,133.792 380.044269,133.792 C377.888258,133.792 375.809279,133.407004 373.807269,132.637 C371.805259,131.866996 370.023277,130.756007 368.461269,129.304 C366.899261,127.851993 365.656274,126.059011 364.732269,123.925 C363.808264,121.790989 363.346269,119.360014 363.346269,116.632 Z M373.312269,116.632 C373.312269,119.492014 373.873263,121.757992 374.995269,123.43 C376.117275,125.102008 377.800258,125.938 380.044269,125.938 C382.28828,125.938 383.971263,125.102008 385.093269,123.43 C386.215275,121.757992 386.776269,119.492014 386.776269,116.632 C386.776269,113.771986 386.215275,111.506008 385.093269,109.834 C383.971263,108.161992 382.28828,107.326 380.044269,107.326 C377.800258,107.326 376.117275,108.161992 374.995269,109.834 C373.873263,111.506008 373.312269,113.771986 373.312269,116.632 Z M405.02341,100.264 L412.94341,100.264 L413.66941,104.62 L413.93341,104.62 C415.341417,103.211993 416.958401,102.002005 418.78441,100.99 C420.610419,99.9779949 422.755398,99.472 425.21941,99.472 C428.915428,99.472 431.621401,100.659988 433.33741,103.036 C435.053419,105.412012 435.91141,108.667979 435.91141,112.804 L435.91141,133 L426.20941,133 L426.20941,114.058 C426.20941,111.857989 425.857414,110.252005 425.15341,109.24 C424.449406,108.227995 423.195419,107.722 421.39141,107.722 C420.071403,107.722 418.916415,108.007997 417.92641,108.58 C416.936405,109.152003 415.869416,110.009994 414.72541,111.154 L414.72541,133 L405.02341,133 L405.02341,100.264 Z M485.869692,89.968 L499.333692,89.968 C501.577703,89.968 503.656682,90.1329983 505.570692,90.463 C507.484702,90.7930017 509.145685,91.3759958 510.553692,92.212 C511.961699,93.0480042 513.072688,94.1479932 513.886692,95.512 C514.700696,96.8760068 515.107692,98.5919897 515.107692,100.66 C515.107692,101.628005 514.964693,102.595995 514.678692,103.564 C514.392691,104.532005 513.941695,105.433996 513.325692,106.27 C512.709689,107.106004 511.939697,107.853997 511.015692,108.514 C510.091687,109.174003 508.991698,109.657998 507.715692,109.966 L507.715692,110.23 C510.795707,110.802003 513.127684,111.901992 514.711692,113.53 C516.2957,115.158008 517.087692,117.423985 517.087692,120.328 C517.087692,122.528011 516.669696,124.419992 515.833692,126.004 C514.997688,127.588008 513.831699,128.896995 512.335692,129.931 C510.839685,130.965005 509.090702,131.734997 507.088692,132.241 C505.086682,132.747003 502.919704,133 500.587692,133 L485.869692,133 L485.869692,89.968 Z M498.871692,107.326 C501.247704,107.326 502.963687,106.853005 504.019692,105.907 C505.075697,104.960995 505.603692,103.674008 505.603692,102.046 C505.603692,100.417992 505.064697,99.2520035 503.986692,98.548 C502.908687,97.8439965 501.225703,97.492 498.937692,97.492 L495.571692,97.492 L495.571692,107.326 L498.871692,107.326 Z M499.795692,125.476 C504.987718,125.476 507.583692,123.51802 507.583692,119.602 C507.583692,117.709991 506.956698,116.335004 505.702692,115.477 C504.448686,114.618996 502.479705,114.19 499.795692,114.19 L495.571692,114.19 L495.571692,125.476 L499.795692,125.476 Z M555.002833,133 L547.082833,133 L546.356833,128.314 L546.092833,128.314 C544.640826,129.986008 543.034842,131.316995 541.274833,132.307 C539.514824,133.297005 537.446845,133.792 535.070833,133.792 C531.330814,133.792 528.624841,132.604012 526.952833,130.228 C525.280825,127.851988 524.444833,124.596021 524.444833,120.46 L524.444833,100.264 L534.146833,100.264 L534.146833,119.206 C534.146833,121.406011 534.47683,123.011995 535.136833,124.024 C535.796836,125.036005 537.050824,125.542 538.898833,125.542 C540.130839,125.542 541.219828,125.278003 542.165833,124.75 C543.111838,124.221997 544.156827,123.232007 545.300833,121.78 L545.300833,100.264 L555.002833,100.264 L555.002833,133 Z M565.131974,100.264 L573.051974,100.264 L573.777974,104.62 L574.041974,104.62 C575.449981,103.211993 577.066965,102.002005 578.892974,100.99 C580.718983,99.9779949 582.863962,99.472 585.327974,99.472 C589.023992,99.472 591.729965,100.659988 593.445974,103.036 C595.161983,105.412012 596.019974,108.667979 596.019974,112.804 L596.019974,133 L586.317974,133 L586.317974,114.058 C586.317974,111.857989 585.965978,110.252005 585.261974,109.24 C584.55797,108.227995 583.303983,107.722 581.499974,107.722 C580.179967,107.722 579.024979,108.007997 578.034974,108.58 C577.044969,109.152003 575.97798,110.009994 574.833974,111.154 L574.833974,133 L565.131974,133 L565.131974,100.264 Z M603.509115,116.632 C603.509115,113.947987 603.905111,111.550011 604.697115,109.438 C605.489119,107.325989 606.534109,105.533007 607.832115,104.059 C609.130121,102.584993 610.615107,101.452004 612.287115,100.66 C613.959123,99.867996 615.697106,99.472 617.501115,99.472 C619.393124,99.472 620.977109,99.7909968 622.253115,100.429 C623.529121,101.067003 624.739109,101.913995 625.883115,102.97 L625.553115,97.888 L625.553115,86.734 L635.255115,86.734 L635.255115,133 L627.335115,133 L626.609115,129.634 L626.411115,129.634 C625.179109,130.822006 623.771123,131.811996 622.187115,132.604 C620.603107,133.396004 618.975123,133.792 617.303115,133.792 C615.235105,133.792 613.354123,133.396004 611.660115,132.604 C609.966107,131.811996 608.514121,130.679007 607.304115,129.205 C606.094109,127.730993 605.159118,125.938011 604.499115,123.826 C603.839112,121.713989 603.509115,119.316013 603.509115,116.632 Z M613.475115,116.5 C613.475115,119.756016 614.02511,122.131993 615.125115,123.628 C616.225121,125.124007 617.787105,125.872 619.811115,125.872 C620.911121,125.872 621.92311,125.641002 622.847115,125.179 C623.77112,124.716998 624.673111,123.936005 625.553115,122.836 L625.553115,109.57 C624.673111,108.777996 623.78212,108.217002 622.880115,107.887 C621.97811,107.556998 621.04312,107.392 620.075115,107.392 C618.271106,107.392 616.720121,108.139993 615.422115,109.636 C614.124109,111.132007 613.475115,113.419985 613.475115,116.5 Z M644.526256,86.734 L663.732256,86.734 L663.732256,120.592 C663.732256,121.604005 663.875255,122.450997 664.161256,123.133 C664.447257,123.815003 664.843253,124.364998 665.349256,124.783 C665.855259,125.201002 666.427253,125.497999 667.065256,125.674 C667.703259,125.850001 668.352253,125.938 669.012256,125.938 C669.76026,125.938 670.552252,125.861001 671.388256,125.707 C672.22426,125.552999 673.148251,125.278002 674.160256,124.882 L676.338256,132.01 C675.458252,132.274001 674.64426,132.515999 673.896256,132.736 C673.148252,132.956001 672.40026,133.142999 671.652256,133.297 C670.904252,133.451001 670.11226,133.572 669.276256,133.66 C668.440252,133.748 667.516261,133.792 666.504256,133.792 C662.368235,133.792 659.255266,132.571012 657.165256,130.129 C655.075246,127.686988 654.030256,124.376021 654.030256,120.196 L654.030256,94.39 L644.526256,94.39 L644.526256,86.734 Z M684.091397,116.632 C684.091397,113.947987 684.564392,111.550011 685.510397,109.438 C686.456402,107.325989 687.721389,105.533007 689.305397,104.059 C690.889405,102.584993 692.704387,101.452004 694.750397,100.66 C696.796407,99.867996 698.919386,99.472 701.119397,99.472 C703.62741,99.472 705.849387,99.867996 707.785397,100.66 C709.721407,101.452004 711.327391,102.551993 712.603397,103.96 C713.879403,105.368007 714.847394,107.02899 715.507397,108.943 C716.1674,110.85701 716.497397,112.935989 716.497397,115.18 C716.497397,116.060004 716.453397,116.895996 716.365397,117.688 C716.277397,118.480004 716.189397,119.073998 716.101397,119.47 L694.057397,119.47 C694.409399,121.934012 695.476388,123.704995 697.258397,124.783 C699.040406,125.861005 701.141385,126.4 703.561397,126.4 C705.057404,126.4 706.47639,126.213002 707.818397,125.839 C709.160404,125.464998 710.55739,124.904004 712.009397,124.156 L715.177397,129.964 C713.329388,131.152006 711.261408,132.086997 708.973397,132.769 C706.685386,133.451003 704.441408,133.792 702.241397,133.792 C699.689384,133.792 697.313408,133.407004 695.113397,132.637 C692.913386,131.866996 690.999405,130.745007 689.371397,129.271 C687.743389,127.796993 686.456402,126.004011 685.510397,123.892 C684.564392,121.779989 684.091397,119.360014 684.091397,116.632 Z M707.719397,113.068 C707.719397,111.219991 707.213402,109.724006 706.201397,108.58 C705.189392,107.435994 703.561408,106.864 701.317397,106.864 C699.557388,106.864 697.995404,107.369995 696.631397,108.382 C695.26739,109.394005 694.365399,110.955989 693.925397,113.068 L707.719397,113.068 Z" id="Cloud-Native-Applica" fill="#3731AA"></path>
    </g>
</svg>