<?xml version="1.0" encoding="UTF-8"?>
<svg width="132px" height="144px" viewBox="0 0 132 144" version="1.1" xmlns="http://www.w3.org/2000/svg" xmlns:xlink="http://www.w3.org/1999/xlink">
    <!-- Generator: Sketch 51.3 (57544) - http://www.bohemiancoding.com/sketch -->
    <title>CNAB Logo</title>
    <desc>Created with Sketch.</desc>
    <defs></defs>
    <g id="Page-1" stroke="none" stroke-width="1" fill="none" fill-rule="evenodd">
        <g id="Full" transform="translate(-1355.000000, -570.000000)" fill-rule="nonzero">
            <g id="Intro" transform="translate(2.000000, 125.000000)">
                <g id="CNAB-Logo" transform="translate(1353.000000, 445.000000)">
                    <rect id="Rectangle" fill="#FFF3E6" x="28" y="69" width="58" height="58"></rect>
                    <rect id="Rectangle" fill="#2EC4B6" x="69" y="81" width="46" height="47"></rect>
                    <rect id="Rectangle" fill="#D3DDF7" x="76" y="17" width="41" height="41"></rect>
                    <polygon id="Triangle" fill="#3731AA" points="57 11 86 69 28 69"></polygon>
                    <circle id="Oval-2" fill="#E83683" cx="30" cy="98" r="29"></circle>
                    <polygon id="Path-5" fill="#CCFF66" points="43 17 17 68 17 17"></polygon>
                    <g id="corner" fill="#3731AA">
                        <rect id="Rectangle-2" x="0" y="0" width="5.85714286" height="41"></rect>
                        <rect id="Rectangle-2" transform="translate(20.500000, 2.928571) rotate(-90.000000) translate(-20.500000, -2.928571) " x="17.5714286" y="-17.5714286" width="5.85714286" height="41"></rect>
                    </g>
                    <g id="corner" transform="translate(111.500000, 20.500000) scale(-1, 1) translate(-111.500000, -20.500000) translate(91.000000, 0.000000)" fill="#3731AA">
                        <rect id="Rectangle-2" x="0" y="0" width="5.85714286" height="41"></rect>
                        <rect id="Rectangle-2" transform="translate(20.500000, 2.928571) rotate(-90.000000) translate(-20.500000, -2.928571) " x="17.5714286" y="-17.5714286" width="5.85714286" height="41"></rect>
                    </g>
                    <g id="corner" transform="translate(111.500000, 123.500000) scale(-1, -1) translate(-111.500000, -123.500000) translate(91.000000, 103.000000)" fill="#3731AA">
                        <rect id="Rectangle-2" x="0" y="0" width="5.85714286" height="41"></rect>
                        <rect id="Rectangle-2" transform="translate(20.500000, 2.928571) rotate(-90.000000) translate(-20.500000, -2.928571) " x="17.5714286" y="-17.5714286" width="5.85714286" height="41"></rect>
                    </g>
                </g>
            </g>
        </g>
    </g>
</svg>