<?xml version="1.0" encoding="UTF-8"?>
<svg width="98px" height="120px" viewBox="0 0 98 120" version="1.1" xmlns="http://www.w3.org/2000/svg" xmlns:xlink="http://www.w3.org/1999/xlink">
    <!-- Generator: Sketch 51.3 (57544) - http://www.bohemiancoding.com/sketch -->
    <title>Duffle logo</title>
    <desc>Created with Sketch.</desc>
    <defs>
        <path d="M12.2766418,64.0814228 C4.11251246,64.6735902 0.0304477867,60.5653285 0.0304477867,51.7566376 C0.0304477867,46.7363209 0.0304477867,50.4412033 0.0304477867,43.1367082 C0.0304477867,39.4620184 0.0304477867,33.2996391 0.0304477867,24.6495704 C-0.565916349,8.21652347 7.598213,-1.01747977e-15 24.5228358,-7.27196081e-15 C41.4474587,-7.27196081e-15 57.7757174,-7.27196081e-15 73.5076119,-7.27196081e-15 C89.8358706,0.343425004 98,8.55994847 98,24.6495704 C98,40.7391923 98,49.7748814 98,51.7566376 C98,59.9731611 93.9179353,64.0814228 85.753806,64.0814228 C77.5896766,64.0814228 53.0972886,64.0814228 12.2766418,64.0814228 Z" id="path-1"></path>
        <rect id="path-3" x="-4.54747351e-13" y="2.27373675e-13" width="21.7636364" height="6.5304878"></rect>
    </defs>
    <g id="Page-1" stroke="none" stroke-width="1" fill="none" fill-rule="evenodd">
        <g id="Full" transform="translate(-842.000000, -2599.000000)">
            <g id="Other-Resources" transform="translate(338.000000, 2345.000000)">
                <g id="2" transform="translate(440.000000, 225.000000)">
                    <g id="Duffle-logo" transform="translate(64.000000, 29.000000)">
                        <g id="Bag-Final">
                            <g id="straps" transform="translate(0.490000, 0.000000)" fill-rule="nonzero">
                                <polygon id="Path-11" fill="#9392CE" transform="translate(73.745919, 34.248562) scale(1, -1) translate(-73.745919, -34.248562) " points="96.3842871 0 62.4267355 68.4971238 51.1075516 68.4971238 85.0651032 0"></polygon>
                                <rect id="Rectangle-17" fill="#9392CE" x="39.935" y="0" width="19.845" height="3.94691535"></rect>
                                <polygon id="Path-11" fill="#3731AA" points="45.4642777 0 11.5067261 68.4971238 0.187542214 68.4971238 34.1450938 0"></polygon>
                            </g>
                            <g id="bag" transform="translate(0.000000, 19.734577)">
                                <mask id="mask-2" fill="white">
                                    <use xlink:href="#path-1"></use>
                                </mask>
                                <use id="Path-10" fill="#3731AA" fill-rule="nonzero" xlink:href="#path-1"></use>
                                <polygon id="Path-11" fill="#1D1789" fill-rule="nonzero" mask="url(#mask-2)" transform="translate(82.775919, 31.781740) scale(1, -1) translate(-82.775919, -31.781740) " points="105.414287 -2.46682209 71.4567355 66.0303017 60.1375516 66.0303017 94.0951032 -2.46682209"></polygon>
                                <polygon id="Path-11" fill="#1D1789" fill-rule="nonzero" mask="url(#mask-2)" points="37.3951868 -2.46682209 3.43763517 66.0303017 -7.8815487 66.0303017 26.0760029 -2.46682209"></polygon>
                                <g id="Group-12" mask="url(#mask-2)">
                                    <g transform="translate(10.503182, 16.104017)" id="shapes">
                                        <g transform="translate(0.060455, 0.015065)">
                                            <rect id="Rectangle-16" fill="#9392CE" fill-rule="nonzero" x="0.127272727" y="31.6280488" width="22.6545455" height="6.78658537"></rect>
                                            <rect id="Rectangle-20" fill="#FFF3E6" fill-rule="nonzero" x="56.6363636" y="2.56097561" width="18.7090909" height="35.8536585"></rect>
                                            <rect id="Rectangle-20" fill="#9392CE" fill-rule="nonzero" x="56.6363636" y="25.6097561" width="18.7090909" height="12.9329268"></rect>
                                            <g id="Group" transform="translate(55.363636, 21.640244)">
                                                <mask id="mask-4" fill="white">
                                                    <use xlink:href="#path-3"></use>
                                                </mask>
                                                <use id="Rectangle-20" fill="#3731AA" fill-rule="nonzero" xlink:href="#path-3"></use>
                                                <polygon id="Path-11" fill="#1D1789" fill-rule="nonzero" mask="url(#mask-4)" transform="translate(6.157738, -27.617830) scale(1, -1) translate(-6.157738, 27.617830) " points="28.7961052 -61.8663917 -5.16144636 6.63073215 -16.4806302 6.63073215 17.4769214 -61.8663917"></polygon>
                                            </g>
                                            <polygon id="Triangle" fill="#2EC4B6" fill-rule="nonzero" points="34.9363636 12.1646341 48.8727273 38.4146341 21 38.4146341"></polygon>
                                            <polygon id="Path-2" fill="#3731AA" fill-rule="nonzero" points="34.8727273 12.2926829 20.7097207 38.7987805 15.8025494 38.7987805 14.7636364 38.7987805 28.7265525 12.2926829"></polygon>
                                            <polygon id="Path-5" fill="#CCFF66" fill-rule="nonzero" transform="translate(43.527273, 15.301829) scale(-1, 1) translate(-43.527273, -15.301829) " points="50.1454545 2.43292683 36.9090909 28.1707317 36.9090909 2.43292683"></polygon>
                                            <ellipse id="Oval-2" fill="#E83683" fill-rule="nonzero" cx="13.6181818" cy="13.7012195" rx="13.6181818" ry="13.7012195"></ellipse>
                                        </g>
                                    </g>
                                </g>
                            </g>
                        </g>
                        <g id="wordmark" transform="translate(11.000000, 99.000000)">
                            <path d="M0.050052023,14.3411788 C0.050052023,10.8659335 2.47565006,8.03940071 5.94079011,8.03940071 C7.53475454,8.03940071 8.85150776,8.57227166 9.82174697,9.52217203 L9.82174697,0.347524527 L13.9106122,0.347524527 L13.9106122,20.2722641 L9.86794884,20.2722641 L9.86794884,18.9285025 L9.82174697,18.9285025 C8.94391149,19.9015712 7.55785547,20.6197886 5.94079011,20.6197886 C2.47565006,20.6197886 0.050052023,17.8164241 0.050052023,14.3411788 Z M4.39302756,14.3411788 C4.39302756,15.9629599 5.50187237,17.121375 7.1651396,17.121375 C8.75910402,17.121375 9.91415071,15.9629599 9.91415071,14.3411788 C9.91415071,12.6962294 8.68980122,11.5378143 7.1651396,11.5378143 C5.61737704,11.5378143 4.39302756,12.6962294 4.39302756,14.3411788 Z M20.8614265,8.38692524 L20.8614265,14.0399909 C20.8614265,16.3799894 21.4851517,17.2835531 23.1946208,17.2835531 C24.9040899,17.2835531 25.5278151,16.3799894 25.5278151,14.0399909 L25.5278151,8.38692524 L29.6166804,8.38692524 L29.6166804,15.0362279 C29.6166804,19.0211758 27.6300001,20.6197886 23.1946208,20.6197886 C18.7592415,20.6197886 16.7725612,19.0211758 16.7725612,15.0362279 L16.7725612,8.38692524 L20.8614265,8.38692524 Z M33.4925037,8.38692524 L33.4925037,5.86158035 C33.5156046,2.38633508 35.1788719,0 38.1357914,0 C40.2148754,0 41.5085277,1.06574188 41.5085277,1.06574188 L40.0762698,3.9617796 C40.0762698,3.9617796 39.5218474,3.63742338 38.8519203,3.63742338 C37.8123783,3.63742338 37.581369,4.33247243 37.581369,5.97742186 L37.581369,8.38692524 L40.3072791,8.38692524 L40.3072791,11.514646 L37.581369,11.514646 L37.581369,20.2722641 L33.4925037,20.2722641 L33.4925037,11.514646 L31.7830346,11.514646 L31.7830346,8.38692524 L33.4925037,8.38692524 Z M43.4605566,8.38692524 L43.4605566,5.86158035 C43.4836575,2.38633508 45.1469247,0 48.1038443,0 C50.1829283,0 51.4765806,1.06574188 51.4765806,1.06574188 L50.0443227,3.9617796 C50.0443227,3.9617796 49.4899003,3.63742338 48.8199732,3.63742338 C47.7804312,3.63742338 47.5494218,4.33247243 47.5494218,5.97742186 L47.5494218,8.38692524 L50.275332,8.38692524 L50.275332,11.514646 L47.5494218,11.514646 L47.5494218,20.2722641 L43.4605566,20.2722641 L43.4605566,11.514646 L41.7510875,11.514646 L41.7510875,8.38692524 L43.4605566,8.38692524 Z M52.8741871,20.2722641 L52.8741871,0.347524527 L56.9630523,0.347524527 L56.9630523,20.2722641 L52.8741871,20.2722641 Z M72.0453953,14.897218 L63.4518479,14.897218 C63.4518479,16.7275139 64.9765095,17.353058 66.0160516,17.353058 C67.3328048,17.353058 67.9103281,17.0982067 68.9036683,16.0324648 L71.8605878,17.5152361 C70.5207336,19.7625614 68.3492459,20.6197886 65.7157394,20.6197886 C62.1350947,20.6197886 59.2012761,17.7932558 59.2012761,14.3411788 C59.2012761,10.8659335 62.1350947,8.03940071 65.7157394,8.03940071 C69.3194851,8.03940071 72.0684962,10.1708845 72.0684962,14.3411788 C72.0684962,14.5033569 72.0684962,14.7582082 72.0453953,14.897218 Z M63.5673526,12.6267245 L68.0720347,12.6267245 C67.8872272,11.3756362 67.0324926,10.7037554 65.8312441,10.7037554 C64.4220871,10.7037554 63.6366554,11.5378143 63.5673526,12.6267245 Z" id="duffle" fill="#3731AA"></path>
                            <ellipse id="Oval" fill="#E83683" fill-rule="nonzero" cx="75.8801503" cy="18.0197903" rx="2.24592411" ry="2.25247378"></ellipse>
                        </g>
                    </g>
                </g>
            </g>
        </g>
    </g>
</svg>