<?xml version="1.0" encoding="UTF-8"?>
<svg width="1843px" height="490px" viewBox="0 0 1843 490" version="1.1" xmlns="http://www.w3.org/2000/svg" xmlns:xlink="http://www.w3.org/1999/xlink">
    <!-- Generator: Sketch 51.3 (57544) - http://www.bohemiancoding.com/sketch -->
    <title>intro</title>
    <desc>Created with Sketch.</desc>
    <defs>
        <rect id="path-1" x="0" y="0" width="1843" height="786"></rect>
        <linearGradient x1="50%" y1="0%" x2="50%" y2="100%" id="linearGradient-3">
            <stop stop-color="#FFFFFF" offset="0%"></stop>
            <stop stop-color="#D8D8D8" stop-opacity="0" offset="100%"></stop>
        </linearGradient>
        <rect id="path-4" x="0" y="0" width="1843" height="786"></rect>
        <linearGradient x1="78.7231228%" y1="-44.0671411%" x2="3.52746212%" y2="230.043317%" id="linearGradient-6">
            <stop stop-color="#CEDAFA" offset="0%"></stop>
            <stop stop-color="#F7F9FF" offset="100%"></stop>
        </linearGradient>
        <rect id="path-7" x="0" y="0" width="1843" height="786"></rect>
        <rect id="path-9" x="0" y="0" width="1843" height="786"></rect>
        <rect id="path-11" x="0" y="0" width="1843" height="786"></rect>
        <rect id="path-13" x="0" y="0" width="1843" height="786"></rect>
        <rect id="path-15" x="0" y="0" width="1843" height="786"></rect>
        <rect id="path-17" x="0" y="0" width="1843" height="786"></rect>
        <linearGradient x1="85.3553391%" y1="14.6446609%" x2="14.6446609%" y2="85.3553391%" id="linearGradient-19">
            <stop stop-color="#86E4DB" offset="0%"></stop>
            <stop stop-color="#3FD0C3" offset="100%"></stop>
        </linearGradient>
        <polygon id="path-20" points="777 0 1554 355.378906 777 710.757812 0 355.378906"></polygon>
        <rect id="path-22" x="0" y="0" width="1843" height="786"></rect>
        <rect id="path-24" x="0" y="0" width="1843" height="786"></rect>
        <rect id="path-26" x="0" y="0" width="1843" height="786"></rect>
        <rect id="path-28" x="0" y="0" width="1843" height="786"></rect>
        <rect id="path-30" x="0" y="0" width="1843" height="786"></rect>
        <rect id="path-32" x="0" y="0" width="1843" height="786"></rect>
        <rect id="path-34" x="0" y="0" width="1843" height="786"></rect>
        <rect id="path-36" x="0" y="0" width="1843" height="786"></rect>
        <rect id="path-38" x="0" y="0" width="1843" height="786"></rect>
        <rect id="path-40" x="0" y="0" width="1843" height="786"></rect>
        <rect id="path-42" x="0" y="0" width="1843" height="786"></rect>
        <rect id="path-44" x="0" y="0" width="1843" height="786"></rect>
        <rect id="path-46" x="0" y="0" width="1843" height="786"></rect>
        <path d="M36.5,73 C56.658393,73 73,56.658393 73,36.5 C73,16.341607 56.658393,0 36.5,0 C16.341607,0 0,16.341607 0,36.5 C0,56.658393 16.341607,73 36.5,73 Z" id="path-48"></path>
        <rect id="path-50" x="0" y="0" width="1843" height="786"></rect>
        <rect id="path-52" x="0" y="0" width="1843" height="786"></rect>
        <rect id="path-54" x="0" y="0" width="1843" height="786"></rect>
        <rect id="path-56" x="0" y="0" width="1843" height="786"></rect>
        <rect id="path-58" x="0" y="0" width="1843" height="786"></rect>
        <path d="M312.386,557.4 C312.844669,557.4 313.236665,557.322667 313.562,557.168 C313.887335,557.013333 314.153999,556.805335 314.362,556.544 C314.570001,556.282665 314.724666,555.984002 314.826,555.648 C314.927334,555.311998 314.978,554.957335 314.978,554.584 L314.978,554.392 L316.322,554.392 L316.322,554.584 C316.322,555.149336 316.236668,555.679998 316.066,556.176 C315.895332,556.672002 315.644668,557.103998 315.314,557.472 C314.983332,557.840002 314.572669,558.127999 314.082,558.336 C313.591331,558.544001 313.026003,558.648 312.386,558.648 C311.14866,558.648 310.183337,558.258671 309.49,557.48 C308.796663,556.701329 308.45,555.565341 308.45,554.072 L308.45,551.576 C308.45,550.125326 308.796663,549.000004 309.49,548.2 C310.183337,547.399996 311.14866,547 312.386,547 C313.026003,547 313.591331,547.103999 314.082,547.312 C314.572669,547.520001 314.983332,547.807998 315.314,548.176 C315.644668,548.544002 315.895332,548.975998 316.066,549.472 C316.236668,549.968002 316.322,550.498664 316.322,551.064 L316.322,551.256 L314.978,551.256 L314.978,551.064 C314.967333,550.701332 314.911334,550.349335 314.81,550.008 C314.708666,549.666665 314.554001,549.365335 314.346,549.104 C314.137999,548.842665 313.874002,548.634667 313.554,548.48 C313.233998,548.325333 312.844669,548.248 312.386,548.248 C311.521996,548.248 310.874002,548.562664 310.442,549.192 C310.009998,549.821336 309.794,550.647995 309.794,551.672 L309.794,553.976 C309.794,555.074672 310.009998,555.919997 310.442,556.512 C310.874002,557.104003 311.521996,557.4 312.386,557.4 Z M326.098,554.552 C326.098,555.213337 325.988668,555.797331 325.77,556.304 C325.551332,556.810669 325.260668,557.237332 324.898,557.584 C324.535332,557.930668 324.111336,558.194666 323.626,558.376 C323.140664,558.557334 322.636669,558.648 322.114,558.648 C321.580664,558.648 321.074002,558.557334 320.594,558.376 C320.113998,558.194666 319.692668,557.930668 319.33,557.584 C318.967332,557.237332 318.676668,556.810669 318.458,556.304 C318.239332,555.797331 318.13,555.213337 318.13,554.552 L318.13,554.36 C318.13,553.70933 318.239332,553.130669 318.458,552.624 C318.676668,552.117331 318.969998,551.688002 319.338,551.336 C319.706002,550.983998 320.129998,550.717334 320.61,550.536 C321.090002,550.354666 321.591331,550.264 322.114,550.264 C322.636669,550.264 323.137998,550.354666 323.618,550.536 C324.098002,550.717334 324.521998,550.983998 324.89,551.336 C325.258002,551.688002 325.551332,552.117331 325.77,552.624 C325.988668,553.130669 326.098,553.70933 326.098,554.36 L326.098,554.552 Z M322.114,557.464 C322.498002,557.464 322.852665,557.397334 323.178,557.264 C323.503335,557.130666 323.788665,556.936001 324.034,556.68 C324.279335,556.423999 324.471333,556.117335 324.61,555.76 C324.748667,555.402665 324.818,555.000002 324.818,554.552 L324.818,554.36 C324.818,553.933331 324.748667,553.541335 324.61,553.184 C324.471333,552.826665 324.279335,552.520001 324.034,552.264 C323.788665,552.007999 323.500668,551.808001 323.17,551.664 C322.839332,551.519999 322.487335,551.448 322.114,551.448 C321.740665,551.448 321.388668,551.519999 321.058,551.664 C320.727332,551.808001 320.439335,552.007999 320.194,552.264 C319.948665,552.520001 319.756667,552.826665 319.618,553.184 C319.479333,553.541335 319.41,553.933331 319.41,554.36 L319.41,554.552 C319.41,555.000002 319.479333,555.402665 319.618,555.76 C319.756667,556.117335 319.948665,556.423999 320.194,556.68 C320.439335,556.936001 320.724665,557.130666 321.05,557.264 C321.375335,557.397334 321.729998,557.464 322.114,557.464 Z M334.546,557.208 L334.354,557.208 C334.225999,557.453335 334.063334,557.666666 333.866,557.848 C333.668666,558.029334 333.455334,558.178666 333.226,558.296 C332.996666,558.413334 332.754001,558.501333 332.498,558.56 C332.241999,558.618667 331.996668,558.648 331.762,558.648 C331.228664,558.648 330.732669,558.557334 330.274,558.376 C329.815331,558.194666 329.412668,557.933335 329.066,557.592 C328.719332,557.250665 328.447334,556.826669 328.25,556.32 C328.052666,555.813331 327.954,555.23467 327.954,554.584 L327.954,554.328 C327.954,553.687997 328.055332,553.114669 328.258,552.608 C328.460668,552.101331 328.732665,551.674668 329.074,551.328 C329.415335,550.981332 329.815331,550.717334 330.274,550.536 C330.732669,550.354666 331.217997,550.264 331.73,550.264 C332.274003,550.264 332.783331,550.383999 333.258,550.624 C333.732669,550.864001 334.097999,551.234664 334.354,551.736 L334.546,551.736 L334.546,547.224 L335.794,547.224 L335.794,558.424 L334.546,558.424 L334.546,557.208 Z M331.89,557.464 C332.263335,557.464 332.609998,557.394667 332.93,557.256 C333.250002,557.117333 333.529999,556.920001 333.77,556.664 C334.010001,556.407999 334.199333,556.101335 334.338,555.744 C334.476667,555.386665 334.546,554.989336 334.546,554.552 L334.546,554.36 C334.546,553.933331 334.476667,553.541335 334.338,553.184 C334.199333,552.826665 334.010001,552.520001 333.77,552.264 C333.529999,552.007999 333.247335,551.808001 332.922,551.664 C332.596665,551.519999 332.252668,551.448 331.89,551.448 C331.516665,551.448 331.167335,551.517333 330.842,551.656 C330.516665,551.794667 330.234001,551.991999 329.994,552.248 C329.753999,552.504001 329.567334,552.807998 329.434,553.16 C329.300666,553.512002 329.234,553.901331 329.234,554.328 L329.234,554.584 C329.234,555.032002 329.300666,555.431998 329.434,555.784 C329.567334,556.136002 329.753999,556.437332 329.994,556.688 C330.234001,556.938668 330.513998,557.130666 330.834,557.264 C331.154002,557.397334 331.505998,557.464 331.89,557.464 Z M339.106,554.84 C339.138,555.629337 339.383331,556.263998 339.842,556.744 C340.300669,557.224002 340.940663,557.464 341.762,557.464 C342.135335,557.464 342.460665,557.421334 342.738,557.336 C343.015335,557.250666 343.252666,557.133334 343.45,556.984 C343.647334,556.834666 343.807333,556.661334 343.93,556.464 C344.052667,556.266666 344.151333,556.056001 344.226,555.832 L345.41,556.152 C345.185999,556.888004 344.77267,557.487998 344.17,557.952 C343.56733,558.416002 342.754005,558.648 341.73,558.648 C341.164664,558.648 340.644669,558.549334 340.17,558.352 C339.695331,558.154666 339.287335,557.874668 338.946,557.512 C338.604665,557.149332 338.338001,556.717336 338.146,556.216 C337.953999,555.714664 337.858,555.160003 337.858,554.552 L337.858,554.168 C337.858,553.613331 337.956666,553.096002 338.154,552.616 C338.351334,552.135998 338.625998,551.722668 338.978,551.376 C339.330002,551.029332 339.743331,550.757334 340.218,550.56 C340.692669,550.362666 341.207331,550.264 341.762,550.264 C342.41267,550.264 342.975331,550.383999 343.45,550.624 C343.924669,550.864001 344.313998,551.159998 344.618,551.512 C344.922002,551.864002 345.145999,552.247998 345.29,552.664 C345.434001,553.080002 345.506,553.463998 345.506,553.816 L345.506,554.84 L339.106,554.84 Z M341.762,551.448 C341.409998,551.448 341.082002,551.503999 340.778,551.616 C340.473998,551.728001 340.207334,551.885332 339.978,552.088 C339.748666,552.290668 339.562001,552.527999 339.418,552.8 C339.273999,553.072001 339.180667,553.367998 339.138,553.688 L344.258,553.688 C344.236667,553.346665 344.154001,553.037335 344.01,552.76 C343.865999,552.482665 343.679334,552.248001 343.45,552.056 C343.220666,551.863999 342.959335,551.714667 342.666,551.608 C342.372665,551.501333 342.071335,551.448 341.762,551.448 Z" id="path-60"></path>
        <rect id="path-61" x="0" y="0" width="1843" height="786"></rect>
        <path d="M295.43,436.2 L294.086,436.2 L294.086,432.456 C294.086,432.178665 294.022001,431.965334 293.894,431.816 C293.765999,431.666666 293.542002,431.592 293.222,431.592 L289.734,431.592 L289.734,436.2 L288.39,436.2 L288.39,425 L292.39,425 C292.966003,425 293.467331,425.082666 293.894,425.248 C294.320669,425.413334 294.675332,425.634665 294.958,425.912 C295.240668,426.189335 295.453999,426.511998 295.598,426.88 C295.742001,427.248002 295.814,427.634665 295.814,428.04 L295.814,428.52 C295.814,428.936002 295.699334,429.351998 295.47,429.768 C295.240666,430.184002 294.886002,430.503999 294.406,430.728 L294.406,430.92 C294.726002,430.973334 294.976666,431.101332 295.158,431.304 C295.339334,431.506668 295.43,431.794665 295.43,432.168 L295.43,436.2 Z M289.734,430.344 L292.23,430.344 C292.987337,430.344 293.549998,430.181335 293.918,429.856 C294.286002,429.530665 294.47,429.053336 294.47,428.424 L294.47,428.136 C294.47,427.570664 294.286002,427.114668 293.918,426.768 C293.549998,426.421332 292.987337,426.248 292.23,426.248 L289.734,426.248 L289.734,430.344 Z M299.126,432.616 C299.158,433.405337 299.403331,434.039998 299.862,434.52 C300.320669,435.000002 300.960663,435.24 301.782,435.24 C302.155335,435.24 302.480665,435.197334 302.758,435.112 C303.035335,435.026666 303.272666,434.909334 303.47,434.76 C303.667334,434.610666 303.827333,434.437334 303.95,434.24 C304.072667,434.042666 304.171333,433.832001 304.246,433.608 L305.43,433.928 C305.205999,434.664004 304.79267,435.263998 304.19,435.728 C303.58733,436.192002 302.774005,436.424 301.75,436.424 C301.184664,436.424 300.664669,436.325334 300.19,436.128 C299.715331,435.930666 299.307335,435.650668 298.966,435.288 C298.624665,434.925332 298.358001,434.493336 298.166,433.992 C297.973999,433.490664 297.878,432.936003 297.878,432.328 L297.878,431.944 C297.878,431.389331 297.976666,430.872002 298.174,430.392 C298.371334,429.911998 298.645998,429.498668 298.998,429.152 C299.350002,428.805332 299.763331,428.533334 300.238,428.336 C300.712669,428.138666 301.227331,428.04 301.782,428.04 C302.43267,428.04 302.995331,428.159999 303.47,428.4 C303.944669,428.640001 304.333998,428.935998 304.638,429.288 C304.942002,429.640002 305.165999,430.023998 305.31,430.44 C305.454001,430.856002 305.526,431.239998 305.526,431.592 L305.526,432.616 L299.126,432.616 Z M301.782,429.224 C301.429998,429.224 301.102002,429.279999 300.798,429.392 C300.493998,429.504001 300.227334,429.661332 299.998,429.864 C299.768666,430.066668 299.582001,430.303999 299.438,430.576 C299.293999,430.848001 299.200667,431.143998 299.158,431.464 L304.278,431.464 C304.256667,431.122665 304.174001,430.813335 304.03,430.536 C303.885999,430.258665 303.699334,430.024001 303.47,429.832 C303.240666,429.639999 302.979335,429.490667 302.686,429.384 C302.392665,429.277333 302.091335,429.224 301.782,429.224 Z M308.006,435.048 L310.886,435.048 L310.886,426.152 L308.102,426.152 L308.102,425 L312.134,425 L312.134,435.048 L315.014,435.048 L315.014,436.2 L308.006,436.2 L308.006,435.048 Z M318.71,432.616 C318.742,433.405337 318.987331,434.039998 319.446,434.52 C319.904669,435.000002 320.544663,435.24 321.366,435.24 C321.739335,435.24 322.064665,435.197334 322.342,435.112 C322.619335,435.026666 322.856666,434.909334 323.054,434.76 C323.251334,434.610666 323.411333,434.437334 323.534,434.24 C323.656667,434.042666 323.755333,433.832001 323.83,433.608 L325.014,433.928 C324.789999,434.664004 324.37667,435.263998 323.774,435.728 C323.17133,436.192002 322.358005,436.424 321.334,436.424 C320.768664,436.424 320.248669,436.325334 319.774,436.128 C319.299331,435.930666 318.891335,435.650668 318.55,435.288 C318.208665,434.925332 317.942001,434.493336 317.75,433.992 C317.557999,433.490664 317.462,432.936003 317.462,432.328 L317.462,431.944 C317.462,431.389331 317.560666,430.872002 317.758,430.392 C317.955334,429.911998 318.229998,429.498668 318.582,429.152 C318.934002,428.805332 319.347331,428.533334 319.822,428.336 C320.296669,428.138666 320.811331,428.04 321.366,428.04 C322.01667,428.04 322.579331,428.159999 323.054,428.4 C323.528669,428.640001 323.917998,428.935998 324.222,429.288 C324.526002,429.640002 324.749999,430.023998 324.894,430.44 C325.038001,430.856002 325.11,431.239998 325.11,431.592 L325.11,432.616 L318.71,432.616 Z M321.366,429.224 C321.013998,429.224 320.686002,429.279999 320.382,429.392 C320.077998,429.504001 319.811334,429.661332 319.582,429.864 C319.352666,430.066668 319.166001,430.303999 319.022,430.576 C318.877999,430.848001 318.784667,431.143998 318.742,431.464 L323.862,431.464 C323.840667,431.122665 323.758001,430.813335 323.614,430.536 C323.469999,430.258665 323.283334,430.024001 323.054,429.832 C322.824666,429.639999 322.563335,429.490667 322.27,429.384 C321.976665,429.277333 321.675335,429.224 321.366,429.224 Z M333.35,434.856 L333.158,434.856 C332.901999,435.389336 332.547336,435.783999 332.094,436.04 C331.640664,436.296001 331.163336,436.424 330.662,436.424 C330.139331,436.424 329.654002,436.336001 329.206,436.16 C328.757998,435.983999 328.366002,435.722668 328.03,435.376 C327.693998,435.029332 327.430001,434.605336 327.238,434.104 C327.045999,433.602664 326.95,433.021337 326.95,432.36 L326.95,432.104 C326.95,431.45333 327.045999,430.877336 327.238,430.376 C327.430001,429.874664 327.693998,429.450668 328.03,429.104 C328.366002,428.757332 328.757998,428.493334 329.206,428.312 C329.654002,428.130666 330.128664,428.04 330.63,428.04 C331.174003,428.04 331.667331,428.159999 332.11,428.4 C332.552669,428.640001 332.901999,429.010664 333.158,429.512 L333.35,429.512 L333.35,428.264 L334.598,428.264 L334.598,434.568 C334.598,434.888002 334.741999,435.048 335.03,435.048 L335.43,435.048 L335.43,436.2 L334.582,436.2 C334.219332,436.2 333.923334,436.082668 333.694,435.848 C333.464666,435.613332 333.35,435.314668 333.35,434.952 L333.35,434.856 Z M330.79,435.24 C331.163335,435.24 331.507332,435.170667 331.822,435.032 C332.136668,434.893333 332.405999,434.696001 332.63,434.44 C332.854001,434.183999 333.029999,433.877335 333.158,433.52 C333.286001,433.162665 333.35,432.765336 333.35,432.328 L333.35,432.136 C333.35,431.709331 333.286001,431.317335 333.158,430.96 C333.029999,430.602665 332.851334,430.296001 332.622,430.04 C332.392666,429.783999 332.120668,429.584001 331.806,429.44 C331.491332,429.295999 331.152668,429.224 330.79,429.224 C330.416665,429.224 330.075335,429.293333 329.766,429.432 C329.456665,429.570667 329.187334,429.765332 328.958,430.016 C328.728666,430.266668 328.550001,430.570665 328.422,430.928 C328.293999,431.285335 328.23,431.677331 328.23,432.104 L328.23,432.36 C328.23,433.266671 328.467331,433.973331 328.942,434.48 C329.416669,434.986669 330.032663,435.24 330.79,435.24 Z M339.03,430.312 C339.03,430.696002 339.192665,430.989332 339.518,431.192 C339.843335,431.394668 340.437996,431.528 341.302,431.592 C342.230005,431.666667 342.936664,431.887998 343.422,432.256 C343.907336,432.624002 344.15,433.159996 344.15,433.864 L344.15,433.96 C344.15,434.344002 344.072667,434.687998 343.918,434.992 C343.763333,435.296002 343.550001,435.554666 343.278,435.768 C343.005999,435.981334 342.675335,436.143999 342.286,436.256 C341.896665,436.368001 341.472669,436.424 341.014,436.424 C340.39533,436.424 339.864669,436.341334 339.422,436.176 C338.979331,436.010666 338.611335,435.792001 338.318,435.52 C338.024665,435.247999 337.803334,434.938668 337.654,434.592 C337.504666,434.245332 337.419333,433.896002 337.398,433.544 L338.582,433.256 C338.635334,433.864003 338.869998,434.351998 339.286,434.72 C339.702002,435.088002 340.256663,435.272 340.95,435.272 C341.53667,435.272 342.008665,435.157334 342.366,434.928 C342.723335,434.698666 342.902,434.376002 342.902,433.96 C342.902,433.511998 342.726002,433.192001 342.374,433 C342.021998,432.807999 341.451337,432.685334 340.662,432.632 C339.744662,432.568 339.040669,432.354668 338.55,431.992 C338.059331,431.629332 337.814,431.101337 337.814,430.408 L337.814,430.312 C337.814,429.938665 337.893999,429.610668 338.054,429.328 C338.214001,429.045332 338.429999,428.808001 338.702,428.616 C338.974001,428.423999 339.280665,428.28 339.622,428.184 C339.963335,428.088 340.320665,428.04 340.694,428.04 C341.216669,428.04 341.675331,428.111999 342.07,428.256 C342.464669,428.400001 342.795332,428.586666 343.062,428.816 C343.328668,429.045334 343.533999,429.309332 343.678,429.608 C343.822001,429.906668 343.915333,430.205332 343.958,430.504 L342.774,430.792 C342.720666,430.279997 342.515335,429.880001 342.158,429.592 C341.800665,429.303999 341.334003,429.16 340.758,429.16 C340.533999,429.16 340.318001,429.184 340.11,429.232 C339.901999,429.28 339.718001,429.352 339.558,429.448 C339.397999,429.544 339.27,429.663999 339.174,429.808 C339.078,429.952001 339.03,430.119999 339.03,430.312 Z M348.086,432.616 C348.118,433.405337 348.363331,434.039998 348.822,434.52 C349.280669,435.000002 349.920663,435.24 350.742,435.24 C351.115335,435.24 351.440665,435.197334 351.718,435.112 C351.995335,435.026666 352.232666,434.909334 352.43,434.76 C352.627334,434.610666 352.787333,434.437334 352.91,434.24 C353.032667,434.042666 353.131333,433.832001 353.206,433.608 L354.39,433.928 C354.165999,434.664004 353.75267,435.263998 353.15,435.728 C352.54733,436.192002 351.734005,436.424 350.71,436.424 C350.144664,436.424 349.624669,436.325334 349.15,436.128 C348.675331,435.930666 348.267335,435.650668 347.926,435.288 C347.584665,434.925332 347.318001,434.493336 347.126,433.992 C346.933999,433.490664 346.838,432.936003 346.838,432.328 L346.838,431.944 C346.838,431.389331 346.936666,430.872002 347.134,430.392 C347.331334,429.911998 347.605998,429.498668 347.958,429.152 C348.310002,428.805332 348.723331,428.533334 349.198,428.336 C349.672669,428.138666 350.187331,428.04 350.742,428.04 C351.39267,428.04 351.955331,428.159999 352.43,428.4 C352.904669,428.640001 353.293998,428.935998 353.598,429.288 C353.902002,429.640002 354.125999,430.023998 354.27,430.44 C354.414001,430.856002 354.486,431.239998 354.486,431.592 L354.486,432.616 L348.086,432.616 Z M350.742,429.224 C350.389998,429.224 350.062002,429.279999 349.758,429.392 C349.453998,429.504001 349.187334,429.661332 348.958,429.864 C348.728666,430.066668 348.542001,430.303999 348.398,430.576 C348.253999,430.848001 348.160667,431.143998 348.118,431.464 L353.238,431.464 C353.216667,431.122665 353.134001,430.813335 352.99,430.536 C352.845999,430.258665 352.659334,430.024001 352.43,429.832 C352.200666,429.639999 351.939335,429.490667 351.646,429.384 C351.352665,429.277333 351.051335,429.224 350.742,429.224 Z M358.614,430.312 C358.614,430.696002 358.776665,430.989332 359.102,431.192 C359.427335,431.394668 360.021996,431.528 360.886,431.592 C361.814005,431.666667 362.520664,431.887998 363.006,432.256 C363.491336,432.624002 363.734,433.159996 363.734,433.864 L363.734,433.96 C363.734,434.344002 363.656667,434.687998 363.502,434.992 C363.347333,435.296002 363.134001,435.554666 362.862,435.768 C362.589999,435.981334 362.259335,436.143999 361.87,436.256 C361.480665,436.368001 361.056669,436.424 360.598,436.424 C359.97933,436.424 359.448669,436.341334 359.006,436.176 C358.563331,436.010666 358.195335,435.792001 357.902,435.52 C357.608665,435.247999 357.387334,434.938668 357.238,434.592 C357.088666,434.245332 357.003333,433.896002 356.982,433.544 L358.166,433.256 C358.219334,433.864003 358.453998,434.351998 358.87,434.72 C359.286002,435.088002 359.840663,435.272 360.534,435.272 C361.12067,435.272 361.592665,435.157334 361.95,434.928 C362.307335,434.698666 362.486,434.376002 362.486,433.96 C362.486,433.511998 362.310002,433.192001 361.958,433 C361.605998,432.807999 361.035337,432.685334 360.246,432.632 C359.328662,432.568 358.624669,432.354668 358.134,431.992 C357.643331,431.629332 357.398,431.101337 357.398,430.408 L357.398,430.312 C357.398,429.938665 357.477999,429.610668 357.638,429.328 C357.798001,429.045332 358.013999,428.808001 358.286,428.616 C358.558001,428.423999 358.864665,428.28 359.206,428.184 C359.547335,428.088 359.904665,428.04 360.278,428.04 C360.800669,428.04 361.259331,428.111999 361.654,428.256 C362.048669,428.400001 362.379332,428.586666 362.646,428.816 C362.912668,429.045334 363.117999,429.309332 363.262,429.608 C363.406001,429.906668 363.499333,430.205332 363.542,430.504 L362.358,430.792 C362.304666,430.279997 362.099335,429.880001 361.742,429.592 C361.384665,429.303999 360.918003,429.16 360.342,429.16 C360.117999,429.16 359.902001,429.184 359.694,429.232 C359.485999,429.28 359.302001,429.352 359.142,429.448 C358.981999,429.544 358.854,429.663999 358.758,429.808 C358.662,429.952001 358.614,430.119999 358.614,430.312 Z" id="path-63"></path>
        <rect id="path-64" x="0" y="0" width="1843" height="786"></rect>
        <path d="M407.4,461 L411.08,461 C412.466674,461 413.479997,461.330663 414.12,461.992 C414.760003,462.653337 415.08,463.709326 415.08,465.16 L415.08,468.04 C415.08,469.490674 414.760003,470.546663 414.12,471.208 C413.479997,471.869337 412.466674,472.2 411.08,472.2 L407.4,472.2 L407.4,470.936 L408.36,470.936 L408.36,462.248 L407.4,462.248 L407.4,461 Z M410.888,470.952 C411.378669,470.952 411.802665,470.904 412.16,470.808 C412.517335,470.712 412.813332,470.549334 413.048,470.32 C413.282668,470.090666 413.455999,469.784002 413.568,469.4 C413.680001,469.015998 413.736,468.53067 413.736,467.944 L413.736,465.256 C413.736,464.66933 413.680001,464.184002 413.568,463.8 C413.455999,463.415998 413.282668,463.109334 413.048,462.88 C412.813332,462.650666 412.517335,462.488 412.16,462.392 C411.802665,462.296 411.378669,462.248 410.888,462.248 L409.704,462.248 L409.704,470.952 L410.888,470.952 Z M418.328,468.616 C418.36,469.405337 418.605331,470.039998 419.064,470.52 C419.522669,471.000002 420.162663,471.24 420.984,471.24 C421.357335,471.24 421.682665,471.197334 421.96,471.112 C422.237335,471.026666 422.474666,470.909334 422.672,470.76 C422.869334,470.610666 423.029333,470.437334 423.152,470.24 C423.274667,470.042666 423.373333,469.832001 423.448,469.608 L424.632,469.928 C424.407999,470.664004 423.99467,471.263998 423.392,471.728 C422.78933,472.192002 421.976005,472.424 420.952,472.424 C420.386664,472.424 419.866669,472.325334 419.392,472.128 C418.917331,471.930666 418.509335,471.650668 418.168,471.288 C417.826665,470.925332 417.560001,470.493336 417.368,469.992 C417.175999,469.490664 417.08,468.936003 417.08,468.328 L417.08,467.944 C417.08,467.389331 417.178666,466.872002 417.376,466.392 C417.573334,465.911998 417.847998,465.498668 418.2,465.152 C418.552002,464.805332 418.965331,464.533334 419.44,464.336 C419.914669,464.138666 420.429331,464.04 420.984,464.04 C421.63467,464.04 422.197331,464.159999 422.672,464.4 C423.146669,464.640001 423.535998,464.935998 423.84,465.288 C424.144002,465.640002 424.367999,466.023998 424.512,466.44 C424.656001,466.856002 424.728,467.239998 424.728,467.592 L424.728,468.616 L418.328,468.616 Z M420.984,465.224 C420.631998,465.224 420.304002,465.279999 420,465.392 C419.695998,465.504001 419.429334,465.661332 419.2,465.864 C418.970666,466.066668 418.784001,466.303999 418.64,466.576 C418.495999,466.848001 418.402667,467.143998 418.36,467.464 L423.48,467.464 C423.458667,467.122665 423.376001,466.813335 423.232,466.536 C423.087999,466.258665 422.901334,466.024001 422.672,465.832 C422.442666,465.639999 422.181335,465.490667 421.888,465.384 C421.594665,465.277333 421.293335,465.224 420.984,465.224 Z M428.168,475.4 L426.92,475.4 L426.92,464.264 L428.168,464.264 L428.168,465.512 L428.36,465.512 C428.637335,465.031998 429.021331,464.666668 429.512,464.416 C430.002669,464.165332 430.535997,464.04 431.112,464.04 C431.602669,464.04 432.066664,464.130666 432.504,464.312 C432.941336,464.493334 433.327998,464.754665 433.664,465.096 C434.000002,465.437335 434.266666,465.858664 434.464,466.36 C434.661334,466.861336 434.76,467.431997 434.76,468.072 L434.76,468.392 C434.76,469.04267 434.664001,469.618664 434.472,470.12 C434.279999,470.621336 434.016002,471.042665 433.68,471.384 C433.343998,471.725335 432.952002,471.983999 432.504,472.16 C432.055998,472.336001 431.581336,472.424 431.08,472.424 C430.823999,472.424 430.562668,472.394667 430.296,472.336 C430.029332,472.277333 429.776001,472.186667 429.536,472.064 C429.295999,471.941333 429.074668,471.792001 428.872,471.616 C428.669332,471.439999 428.498667,471.229335 428.36,470.984 L428.168,470.984 L428.168,475.4 Z M430.824,471.24 C431.208002,471.24 431.559998,471.173334 431.88,471.04 C432.200002,470.906666 432.479999,470.717335 432.72,470.472 C432.960001,470.226665 433.146666,469.928002 433.28,469.576 C433.413334,469.223998 433.48,468.829336 433.48,468.392 L433.48,468.072 C433.48,467.645331 433.413334,467.258668 433.28,466.912 C433.146666,466.565332 432.960001,466.266668 432.72,466.016 C432.479999,465.765332 432.197335,465.570667 431.872,465.432 C431.546665,465.293333 431.197335,465.224 430.824,465.224 C430.450665,465.224 430.104002,465.295999 429.784,465.44 C429.463998,465.584001 429.184001,465.783999 428.944,466.04 C428.703999,466.296001 428.514667,466.602665 428.376,466.96 C428.237333,467.317335 428.168,467.709331 428.168,468.136 L428.168,468.328 C428.168,468.765336 428.237333,469.162665 428.376,469.52 C428.514667,469.877335 428.703999,470.183999 428.944,470.44 C429.184001,470.696001 429.463998,470.893333 429.784,471.032 C430.104002,471.170667 430.450665,471.24 430.824,471.24 Z M437,471.048 L439.88,471.048 L439.88,462.152 L437.096,462.152 L437.096,461 L441.128,461 L441.128,471.048 L444.008,471.048 L444.008,472.2 L437,472.2 L437,471.048 Z M454.28,468.328 C454.28,468.989337 454.170668,469.573331 453.952,470.08 C453.733332,470.586669 453.442668,471.013332 453.08,471.36 C452.717332,471.706668 452.293336,471.970666 451.808,472.152 C451.322664,472.333334 450.818669,472.424 450.296,472.424 C449.762664,472.424 449.256002,472.333334 448.776,472.152 C448.295998,471.970666 447.874668,471.706668 447.512,471.36 C447.149332,471.013332 446.858668,470.586669 446.64,470.08 C446.421332,469.573331 446.312,468.989337 446.312,468.328 L446.312,468.136 C446.312,467.48533 446.421332,466.906669 446.64,466.4 C446.858668,465.893331 447.151998,465.464002 447.52,465.112 C447.888002,464.759998 448.311998,464.493334 448.792,464.312 C449.272002,464.130666 449.773331,464.04 450.296,464.04 C450.818669,464.04 451.319998,464.130666 451.8,464.312 C452.280002,464.493334 452.703998,464.759998 453.072,465.112 C453.440002,465.464002 453.733332,465.893331 453.952,466.4 C454.170668,466.906669 454.28,467.48533 454.28,468.136 L454.28,468.328 Z M450.296,471.24 C450.680002,471.24 451.034665,471.173334 451.36,471.04 C451.685335,470.906666 451.970665,470.712001 452.216,470.456 C452.461335,470.199999 452.653333,469.893335 452.792,469.536 C452.930667,469.178665 453,468.776002 453,468.328 L453,468.136 C453,467.709331 452.930667,467.317335 452.792,466.96 C452.653333,466.602665 452.461335,466.296001 452.216,466.04 C451.970665,465.783999 451.682668,465.584001 451.352,465.44 C451.021332,465.295999 450.669335,465.224 450.296,465.224 C449.922665,465.224 449.570668,465.295999 449.24,465.44 C448.909332,465.584001 448.621335,465.783999 448.376,466.04 C448.130665,466.296001 447.938667,466.602665 447.8,466.96 C447.661333,467.317335 447.592,467.709331 447.592,468.136 L447.592,468.328 C447.592,468.776002 447.661333,469.178665 447.8,469.536 C447.938667,469.893335 448.130665,470.199999 448.376,470.456 C448.621335,470.712001 448.906665,470.906666 449.232,471.04 C449.557335,471.173334 449.911998,471.24 450.296,471.24 Z M462.344,470.76 L462.152,470.76 C461.895999,471.272003 461.560002,471.677332 461.144,471.976 C460.727998,472.274668 460.200003,472.424 459.56,472.424 C459.122664,472.424 458.720002,472.352001 458.352,472.208 C457.983998,472.063999 457.669335,471.848001 457.408,471.56 C457.146665,471.271999 456.944001,470.914669 456.8,470.488 C456.655999,470.061331 456.584,469.565336 456.584,469 L456.584,464.264 L457.832,464.264 L457.832,468.84 C457.832,469.672004 458.002665,470.279998 458.344,470.664 C458.685335,471.048002 459.207996,471.24 459.912,471.24 C460.669337,471.24 461.263998,470.981336 461.696,470.464 C462.128002,469.946664 462.344,469.256004 462.344,468.392 L462.344,464.264 L463.592,464.264 L463.592,474.152 C463.592,474.514668 463.477334,474.813332 463.248,475.048 C463.018666,475.282668 462.722668,475.4 462.36,475.4 L457.832,475.4 L457.832,474.248 L461.912,474.248 C462.200001,474.248 462.344,474.088002 462.344,473.768 L462.344,470.76 Z M468.024,466.312 C468.024,466.696002 468.186665,466.989332 468.512,467.192 C468.837335,467.394668 469.431996,467.528 470.296,467.592 C471.224005,467.666667 471.930664,467.887998 472.416,468.256 C472.901336,468.624002 473.144,469.159996 473.144,469.864 L473.144,469.96 C473.144,470.344002 473.066667,470.687998 472.912,470.992 C472.757333,471.296002 472.544001,471.554666 472.272,471.768 C471.999999,471.981334 471.669335,472.143999 471.28,472.256 C470.890665,472.368001 470.466669,472.424 470.008,472.424 C469.38933,472.424 468.858669,472.341334 468.416,472.176 C467.973331,472.010666 467.605335,471.792001 467.312,471.52 C467.018665,471.247999 466.797334,470.938668 466.648,470.592 C466.498666,470.245332 466.413333,469.896002 466.392,469.544 L467.576,469.256 C467.629334,469.864003 467.863998,470.351998 468.28,470.72 C468.696002,471.088002 469.250663,471.272 469.944,471.272 C470.53067,471.272 471.002665,471.157334 471.36,470.928 C471.717335,470.698666 471.896,470.376002 471.896,469.96 C471.896,469.511998 471.720002,469.192001 471.368,469 C471.015998,468.807999 470.445337,468.685334 469.656,468.632 C468.738662,468.568 468.034669,468.354668 467.544,467.992 C467.053331,467.629332 466.808,467.101337 466.808,466.408 L466.808,466.312 C466.808,465.938665 466.887999,465.610668 467.048,465.328 C467.208001,465.045332 467.423999,464.808001 467.696,464.616 C467.968001,464.423999 468.274665,464.28 468.616,464.184 C468.957335,464.088 469.314665,464.04 469.688,464.04 C470.210669,464.04 470.669331,464.111999 471.064,464.256 C471.458669,464.400001 471.789332,464.586666 472.056,464.816 C472.322668,465.045334 472.527999,465.309332 472.672,465.608 C472.816001,465.906668 472.909333,466.205332 472.952,466.504 L471.768,466.792 C471.714666,466.279997 471.509335,465.880001 471.152,465.592 C470.794665,465.303999 470.328003,465.16 469.752,465.16 C469.527999,465.16 469.312001,465.184 469.104,465.232 C468.895999,465.28 468.712001,465.352 468.552,465.448 C468.391999,465.544 468.264,465.663999 468.168,465.808 C468.072,465.952001 468.024,466.119999 468.024,466.312 Z" id="path-66"></path>
        <rect id="path-67" x="0" y="0" width="1843" height="786"></rect>
        <path d="M265.35,741.624 L265.542,741.624 L265.542,731 L266.886,731 L266.886,742.2 L264.198,742.2 L260.966,731.576 L260.774,731.576 L260.774,742.2 L259.43,742.2 L259.43,731 L262.118,731 L265.35,741.624 Z M276.934,738.328 C276.934,738.989337 276.824668,739.573331 276.606,740.08 C276.387332,740.586669 276.096668,741.013332 275.734,741.36 C275.371332,741.706668 274.947336,741.970666 274.462,742.152 C273.976664,742.333334 273.472669,742.424 272.95,742.424 C272.416664,742.424 271.910002,742.333334 271.43,742.152 C270.949998,741.970666 270.528668,741.706668 270.166,741.36 C269.803332,741.013332 269.512668,740.586669 269.294,740.08 C269.075332,739.573331 268.966,738.989337 268.966,738.328 L268.966,738.136 C268.966,737.48533 269.075332,736.906669 269.294,736.4 C269.512668,735.893331 269.805998,735.464002 270.174,735.112 C270.542002,734.759998 270.965998,734.493334 271.446,734.312 C271.926002,734.130666 272.427331,734.04 272.95,734.04 C273.472669,734.04 273.973998,734.130666 274.454,734.312 C274.934002,734.493334 275.357998,734.759998 275.726,735.112 C276.094002,735.464002 276.387332,735.893331 276.606,736.4 C276.824668,736.906669 276.934,737.48533 276.934,738.136 L276.934,738.328 Z M272.95,741.24 C273.334002,741.24 273.688665,741.173334 274.014,741.04 C274.339335,740.906666 274.624665,740.712001 274.87,740.456 C275.115335,740.199999 275.307333,739.893335 275.446,739.536 C275.584667,739.178665 275.654,738.776002 275.654,738.328 L275.654,738.136 C275.654,737.709331 275.584667,737.317335 275.446,736.96 C275.307333,736.602665 275.115335,736.296001 274.87,736.04 C274.624665,735.783999 274.336668,735.584001 274.006,735.44 C273.675332,735.295999 273.323335,735.224 272.95,735.224 C272.576665,735.224 272.224668,735.295999 271.894,735.44 C271.563332,735.584001 271.275335,735.783999 271.03,736.04 C270.784665,736.296001 270.592667,736.602665 270.454,736.96 C270.315333,737.317335 270.246,737.709331 270.246,738.136 L270.246,738.328 C270.246,738.776002 270.315333,739.178665 270.454,739.536 C270.592667,739.893335 270.784665,740.199999 271.03,740.456 C271.275335,740.712001 271.560665,740.906666 271.886,741.04 C272.211335,741.173334 272.565998,741.24 272.95,741.24 Z M285.382,740.984 L285.19,740.984 C285.061999,741.229335 284.899334,741.442666 284.702,741.624 C284.504666,741.805334 284.291334,741.954666 284.062,742.072 C283.832666,742.189334 283.590001,742.277333 283.334,742.336 C283.077999,742.394667 282.832668,742.424 282.598,742.424 C282.064664,742.424 281.568669,742.333334 281.11,742.152 C280.651331,741.970666 280.248668,741.709335 279.902,741.368 C279.555332,741.026665 279.283334,740.602669 279.086,740.096 C278.888666,739.589331 278.79,739.01067 278.79,738.36 L278.79,738.104 C278.79,737.463997 278.891332,736.890669 279.094,736.384 C279.296668,735.877331 279.568665,735.450668 279.91,735.104 C280.251335,734.757332 280.651331,734.493334 281.11,734.312 C281.568669,734.130666 282.053997,734.04 282.566,734.04 C283.110003,734.04 283.619331,734.159999 284.094,734.4 C284.568669,734.640001 284.933999,735.010664 285.19,735.512 L285.382,735.512 L285.382,731 L286.63,731 L286.63,742.2 L285.382,742.2 L285.382,740.984 Z M282.726,741.24 C283.099335,741.24 283.445998,741.170667 283.766,741.032 C284.086002,740.893333 284.365999,740.696001 284.606,740.44 C284.846001,740.183999 285.035333,739.877335 285.174,739.52 C285.312667,739.162665 285.382,738.765336 285.382,738.328 L285.382,738.136 C285.382,737.709331 285.312667,737.317335 285.174,736.96 C285.035333,736.602665 284.846001,736.296001 284.606,736.04 C284.365999,735.783999 284.083335,735.584001 283.758,735.44 C283.432665,735.295999 283.088668,735.224 282.726,735.224 C282.352665,735.224 282.003335,735.293333 281.678,735.432 C281.352665,735.570667 281.070001,735.767999 280.83,736.024 C280.589999,736.280001 280.403334,736.583998 280.27,736.936 C280.136666,737.288002 280.07,737.677331 280.07,738.104 L280.07,738.36 C280.07,738.808002 280.136666,739.207998 280.27,739.56 C280.403334,739.912002 280.589999,740.213332 280.83,740.464 C281.070001,740.714668 281.349998,740.906666 281.67,741.04 C281.990002,741.173334 282.341998,741.24 282.726,741.24 Z M289.942,738.616 C289.974,739.405337 290.219331,740.039998 290.678,740.52 C291.136669,741.000002 291.776663,741.24 292.598,741.24 C292.971335,741.24 293.296665,741.197334 293.574,741.112 C293.851335,741.026666 294.088666,740.909334 294.286,740.76 C294.483334,740.610666 294.643333,740.437334 294.766,740.24 C294.888667,740.042666 294.987333,739.832001 295.062,739.608 L296.246,739.928 C296.021999,740.664004 295.60867,741.263998 295.006,741.728 C294.40333,742.192002 293.590005,742.424 292.566,742.424 C292.000664,742.424 291.480669,742.325334 291.006,742.128 C290.531331,741.930666 290.123335,741.650668 289.782,741.288 C289.440665,740.925332 289.174001,740.493336 288.982,739.992 C288.789999,739.490664 288.694,738.936003 288.694,738.328 L288.694,737.944 C288.694,737.389331 288.792666,736.872002 288.99,736.392 C289.187334,735.911998 289.461998,735.498668 289.814,735.152 C290.166002,734.805332 290.579331,734.533334 291.054,734.336 C291.528669,734.138666 292.043331,734.04 292.598,734.04 C293.24867,734.04 293.811331,734.159999 294.286,734.4 C294.760669,734.640001 295.149998,734.935998 295.454,735.288 C295.758002,735.640002 295.981999,736.023998 296.126,736.44 C296.270001,736.856002 296.342,737.239998 296.342,737.592 L296.342,738.616 L289.942,738.616 Z M292.598,735.224 C292.245998,735.224 291.918002,735.279999 291.614,735.392 C291.309998,735.504001 291.043334,735.661332 290.814,735.864 C290.584666,736.066668 290.398001,736.303999 290.254,736.576 C290.109999,736.848001 290.016667,737.143998 289.974,737.464 L295.094,737.464 C295.072667,737.122665 294.990001,736.813335 294.846,736.536 C294.701999,736.258665 294.515334,736.024001 294.286,735.832 C294.056666,735.639999 293.795335,735.490667 293.502,735.384 C293.208665,735.277333 292.907335,735.224 292.598,735.224 Z M300.47,736.312 C300.47,736.696002 300.632665,736.989332 300.958,737.192 C301.283335,737.394668 301.877996,737.528 302.742,737.592 C303.670005,737.666667 304.376664,737.887998 304.862,738.256 C305.347336,738.624002 305.59,739.159996 305.59,739.864 L305.59,739.96 C305.59,740.344002 305.512667,740.687998 305.358,740.992 C305.203333,741.296002 304.990001,741.554666 304.718,741.768 C304.445999,741.981334 304.115335,742.143999 303.726,742.256 C303.336665,742.368001 302.912669,742.424 302.454,742.424 C301.83533,742.424 301.304669,742.341334 300.862,742.176 C300.419331,742.010666 300.051335,741.792001 299.758,741.52 C299.464665,741.247999 299.243334,740.938668 299.094,740.592 C298.944666,740.245332 298.859333,739.896002 298.838,739.544 L300.022,739.256 C300.075334,739.864003 300.309998,740.351998 300.726,740.72 C301.142002,741.088002 301.696663,741.272 302.39,741.272 C302.97667,741.272 303.448665,741.157334 303.806,740.928 C304.163335,740.698666 304.342,740.376002 304.342,739.96 C304.342,739.511998 304.166002,739.192001 303.814,739 C303.461998,738.807999 302.891337,738.685334 302.102,738.632 C301.184662,738.568 300.480669,738.354668 299.99,737.992 C299.499331,737.629332 299.254,737.101337 299.254,736.408 L299.254,736.312 C299.254,735.938665 299.333999,735.610668 299.494,735.328 C299.654001,735.045332 299.869999,734.808001 300.142,734.616 C300.414001,734.423999 300.720665,734.28 301.062,734.184 C301.403335,734.088 301.760665,734.04 302.134,734.04 C302.656669,734.04 303.115331,734.111999 303.51,734.256 C303.904669,734.400001 304.235332,734.586666 304.502,734.816 C304.768668,735.045334 304.973999,735.309332 305.118,735.608 C305.262001,735.906668 305.355333,736.205332 305.398,736.504 L304.214,736.792 C304.160666,736.279997 303.955335,735.880001 303.598,735.592 C303.240665,735.303999 302.774003,735.16 302.198,735.16 C301.973999,735.16 301.758001,735.184 301.55,735.232 C301.341999,735.28 301.158001,735.352 300.998,735.448 C300.837999,735.544 300.71,735.663999 300.614,735.808 C300.518,735.952001 300.47,736.119999 300.47,736.312 Z" id="path-69"></path>
        <rect id="path-70" x="0" y="0" width="1843" height="786"></rect>
        <path d="M294.42,611 L301.524,611 L301.524,612.248 L298.644,612.248 L298.644,620.952 L301.524,620.952 L301.524,622.2 L294.42,622.2 L294.42,620.952 L297.3,620.952 L297.3,612.248 L294.42,612.248 L294.42,611 Z M311.892,622.2 L310.644,622.2 L310.644,616.504 C310.644,616.130665 310.558668,615.824001 310.388,615.584 C310.217332,615.343999 309.945335,615.224 309.572,615.224 C309.219998,615.224 308.934668,615.354665 308.716,615.616 C308.497332,615.877335 308.388,616.279997 308.388,616.824 L308.388,622.2 L307.14,622.2 L307.14,616.44 C307.14,616.087998 307.044001,615.797334 306.852,615.568 C306.659999,615.338666 306.404002,615.224 306.084,615.224 C305.699998,615.224 305.404001,615.362665 305.196,615.64 C304.987999,615.917335 304.884,616.279998 304.884,616.728 L304.884,622.2 L303.636,622.2 L303.636,614.264 L304.884,614.264 L304.884,615.128 L305.076,615.128 C305.214667,614.754665 305.417332,614.480001 305.684,614.304 C305.950668,614.127999 306.265332,614.04 306.628,614.04 C307.012002,614.04 307.329332,614.141332 307.58,614.344 C307.830668,614.546668 308.004,614.807998 308.1,615.128 L308.292,615.128 C308.654668,614.402663 309.230663,614.04 310.02,614.04 C310.617336,614.04 311.078665,614.229331 311.404,614.608 C311.729335,614.986669 311.892,615.479997 311.892,616.088 L311.892,622.2 Z M319.812,620.856 L319.62,620.856 C319.363999,621.389336 319.009336,621.783999 318.556,622.04 C318.102664,622.296001 317.625336,622.424 317.124,622.424 C316.601331,622.424 316.116002,622.336001 315.668,622.16 C315.219998,621.983999 314.828002,621.722668 314.492,621.376 C314.155998,621.029332 313.892001,620.605336 313.7,620.104 C313.507999,619.602664 313.412,619.021337 313.412,618.36 L313.412,618.104 C313.412,617.45333 313.507999,616.877336 313.7,616.376 C313.892001,615.874664 314.155998,615.450668 314.492,615.104 C314.828002,614.757332 315.219998,614.493334 315.668,614.312 C316.116002,614.130666 316.590664,614.04 317.092,614.04 C317.636003,614.04 318.129331,614.159999 318.572,614.4 C319.014669,614.640001 319.363999,615.010664 319.62,615.512 L319.812,615.512 L319.812,614.264 L321.06,614.264 L321.06,620.568 C321.06,620.888002 321.203999,621.048 321.492,621.048 L321.892,621.048 L321.892,622.2 L321.044,622.2 C320.681332,622.2 320.385334,622.082668 320.156,621.848 C319.926666,621.613332 319.812,621.314668 319.812,620.952 L319.812,620.856 Z M317.252,621.24 C317.625335,621.24 317.969332,621.170667 318.284,621.032 C318.598668,620.893333 318.867999,620.696001 319.092,620.44 C319.316001,620.183999 319.491999,619.877335 319.62,619.52 C319.748001,619.162665 319.812,618.765336 319.812,618.328 L319.812,618.136 C319.812,617.709331 319.748001,617.317335 319.62,616.96 C319.491999,616.602665 319.313334,616.296001 319.084,616.04 C318.854666,615.783999 318.582668,615.584001 318.268,615.44 C317.953332,615.295999 317.614668,615.224 317.252,615.224 C316.878665,615.224 316.537335,615.293333 316.228,615.432 C315.918665,615.570667 315.649334,615.765332 315.42,616.016 C315.190666,616.266668 315.012001,616.570665 314.884,616.928 C314.755999,617.285335 314.692,617.677331 314.692,618.104 L314.692,618.36 C314.692,619.266671 314.929331,619.973331 315.404,620.48 C315.878669,620.986669 316.494663,621.24 317.252,621.24 Z M329.876,620.984 L329.684,620.984 C329.427999,621.464002 329.078669,621.823999 328.636,622.064 C328.193331,622.304001 327.710669,622.424 327.188,622.424 C326.654664,622.424 326.153336,622.333334 325.684,622.152 C325.214664,621.970666 324.801335,621.709335 324.444,621.368 C324.086665,621.026665 323.804001,620.602669 323.596,620.096 C323.387999,619.589331 323.284,619.01067 323.284,618.36 L323.284,618.104 C323.284,617.463997 323.390666,616.890669 323.604,616.384 C323.817334,615.877331 324.099998,615.450668 324.452,615.104 C324.804002,614.757332 325.214664,614.493334 325.684,614.312 C326.153336,614.130666 326.643997,614.04 327.156,614.04 C327.732003,614.04 328.235998,614.165332 328.668,614.416 C329.100002,614.666668 329.438665,615.031998 329.684,615.512 L329.876,615.512 L329.876,614.264 L331.124,614.264 L331.124,624.152 C331.124,624.514668 331.009334,624.813332 330.78,625.048 C330.550666,625.282668 330.254668,625.4 329.892,625.4 L324.724,625.4 L324.724,624.248 L329.444,624.248 C329.732001,624.248 329.876,624.088002 329.876,623.768 L329.876,620.984 Z M327.22,621.24 C327.593335,621.24 327.939998,621.170667 328.26,621.032 C328.580002,620.893333 328.859999,620.696001 329.1,620.44 C329.340001,620.183999 329.529333,619.877335 329.668,619.52 C329.806667,619.162665 329.876,618.765336 329.876,618.328 L329.876,618.136 C329.876,617.709331 329.806667,617.317335 329.668,616.96 C329.529333,616.602665 329.340001,616.296001 329.1,616.04 C328.859999,615.783999 328.577335,615.584001 328.252,615.44 C327.926665,615.295999 327.582668,615.224 327.22,615.224 C326.846665,615.224 326.497335,615.293333 326.172,615.432 C325.846665,615.570667 325.564001,615.767999 325.324,616.024 C325.083999,616.280001 324.897334,616.583998 324.764,616.936 C324.630666,617.288002 324.564,617.677331 324.564,618.104 L324.564,618.36 C324.564,618.808002 324.630666,619.207998 324.764,619.56 C324.897334,619.912002 325.083999,620.213332 325.324,620.464 C325.564001,620.714668 325.843998,620.906666 326.164,621.04 C326.484002,621.173334 326.835998,621.24 327.22,621.24 Z M334.548,618.616 C334.58,619.405337 334.825331,620.039998 335.284,620.52 C335.742669,621.000002 336.382663,621.24 337.204,621.24 C337.577335,621.24 337.902665,621.197334 338.18,621.112 C338.457335,621.026666 338.694666,620.909334 338.892,620.76 C339.089334,620.610666 339.249333,620.437334 339.372,620.24 C339.494667,620.042666 339.593333,619.832001 339.668,619.608 L340.852,619.928 C340.627999,620.664004 340.21467,621.263998 339.612,621.728 C339.00933,622.192002 338.196005,622.424 337.172,622.424 C336.606664,622.424 336.086669,622.325334 335.612,622.128 C335.137331,621.930666 334.729335,621.650668 334.388,621.288 C334.046665,620.925332 333.780001,620.493336 333.588,619.992 C333.395999,619.490664 333.3,618.936003 333.3,618.328 L333.3,617.944 C333.3,617.389331 333.398666,616.872002 333.596,616.392 C333.793334,615.911998 334.067998,615.498668 334.42,615.152 C334.772002,614.805332 335.185331,614.533334 335.66,614.336 C336.134669,614.138666 336.649331,614.04 337.204,614.04 C337.85467,614.04 338.417331,614.159999 338.892,614.4 C339.366669,614.640001 339.755998,614.935998 340.06,615.288 C340.364002,615.640002 340.587999,616.023998 340.732,616.44 C340.876001,616.856002 340.948,617.239998 340.948,617.592 L340.948,618.616 L334.548,618.616 Z M337.204,615.224 C336.851998,615.224 336.524002,615.279999 336.22,615.392 C335.915998,615.504001 335.649334,615.661332 335.42,615.864 C335.190666,616.066668 335.004001,616.303999 334.86,616.576 C334.715999,616.848001 334.622667,617.143998 334.58,617.464 L339.7,617.464 C339.678667,617.122665 339.596001,616.813335 339.452,616.536 C339.307999,616.258665 339.121334,616.024001 338.892,615.832 C338.662666,615.639999 338.401335,615.490667 338.108,615.384 C337.814665,615.277333 337.513335,615.224 337.204,615.224 Z M345.076,616.312 C345.076,616.696002 345.238665,616.989332 345.564,617.192 C345.889335,617.394668 346.483996,617.528 347.348,617.592 C348.276005,617.666667 348.982664,617.887998 349.468,618.256 C349.953336,618.624002 350.196,619.159996 350.196,619.864 L350.196,619.96 C350.196,620.344002 350.118667,620.687998 349.964,620.992 C349.809333,621.296002 349.596001,621.554666 349.324,621.768 C349.051999,621.981334 348.721335,622.143999 348.332,622.256 C347.942665,622.368001 347.518669,622.424 347.06,622.424 C346.44133,622.424 345.910669,622.341334 345.468,622.176 C345.025331,622.010666 344.657335,621.792001 344.364,621.52 C344.070665,621.247999 343.849334,620.938668 343.7,620.592 C343.550666,620.245332 343.465333,619.896002 343.444,619.544 L344.628,619.256 C344.681334,619.864003 344.915998,620.351998 345.332,620.72 C345.748002,621.088002 346.302663,621.272 346.996,621.272 C347.58267,621.272 348.054665,621.157334 348.412,620.928 C348.769335,620.698666 348.948,620.376002 348.948,619.96 C348.948,619.511998 348.772002,619.192001 348.42,619 C348.067998,618.807999 347.497337,618.685334 346.708,618.632 C345.790662,618.568 345.086669,618.354668 344.596,617.992 C344.105331,617.629332 343.86,617.101337 343.86,616.408 L343.86,616.312 C343.86,615.938665 343.939999,615.610668 344.1,615.328 C344.260001,615.045332 344.475999,614.808001 344.748,614.616 C345.020001,614.423999 345.326665,614.28 345.668,614.184 C346.009335,614.088 346.366665,614.04 346.74,614.04 C347.262669,614.04 347.721331,614.111999 348.116,614.256 C348.510669,614.400001 348.841332,614.586666 349.108,614.816 C349.374668,615.045334 349.579999,615.309332 349.724,615.608 C349.868001,615.906668 349.961333,616.205332 350.004,616.504 L348.82,616.792 C348.766666,616.279997 348.561335,615.880001 348.204,615.592 C347.846665,615.303999 347.380003,615.16 346.804,615.16 C346.579999,615.16 346.364001,615.184 346.156,615.232 C345.947999,615.28 345.764001,615.352 345.604,615.448 C345.443999,615.544 345.316,615.663999 345.22,615.808 C345.124,615.952001 345.076,616.119999 345.076,616.312 Z" id="path-72"></path>
        <rect id="path-73" x="0" y="0" width="1843" height="786"></rect>
        <path d="M590.386,441.4 C590.844669,441.4 591.236665,441.322667 591.562,441.168 C591.887335,441.013333 592.153999,440.805335 592.362,440.544 C592.570001,440.282665 592.724666,439.984002 592.826,439.648 C592.927334,439.311998 592.978,438.957335 592.978,438.584 L592.978,438.392 L594.322,438.392 L594.322,438.584 C594.322,439.149336 594.236668,439.679998 594.066,440.176 C593.895332,440.672002 593.644668,441.103998 593.314,441.472 C592.983332,441.840002 592.572669,442.127999 592.082,442.336 C591.591331,442.544001 591.026003,442.648 590.386,442.648 C589.14866,442.648 588.183337,442.258671 587.49,441.48 C586.796663,440.701329 586.45,439.565341 586.45,438.072 L586.45,435.576 C586.45,434.125326 586.796663,433.000004 587.49,432.2 C588.183337,431.399996 589.14866,431 590.386,431 C591.026003,431 591.591331,431.103999 592.082,431.312 C592.572669,431.520001 592.983332,431.807998 593.314,432.176 C593.644668,432.544002 593.895332,432.975998 594.066,433.472 C594.236668,433.968002 594.322,434.498664 594.322,435.064 L594.322,435.256 L592.978,435.256 L592.978,435.064 C592.967333,434.701332 592.911334,434.349335 592.81,434.008 C592.708666,433.666665 592.554001,433.365335 592.346,433.104 C592.137999,432.842665 591.874002,432.634667 591.554,432.48 C591.233998,432.325333 590.844669,432.248 590.386,432.248 C589.521996,432.248 588.874002,432.562664 588.442,433.192 C588.009998,433.821336 587.794,434.647995 587.794,435.672 L587.794,437.976 C587.794,439.074672 588.009998,439.919997 588.442,440.512 C588.874002,441.104003 589.521996,441.4 590.386,441.4 Z M596.562,431.224 L603.666,431.224 L603.666,432.472 L600.786,432.472 L600.786,441.176 L603.666,441.176 L603.666,442.424 L596.562,442.424 L596.562,441.176 L599.442,441.176 L599.442,432.472 L596.562,432.472 L596.562,431.224 Z M609.97,441.4 C610.428669,441.4 610.820665,441.322667 611.146,441.168 C611.471335,441.013333 611.737999,440.805335 611.946,440.544 C612.154001,440.282665 612.308666,439.984002 612.41,439.648 C612.511334,439.311998 612.562,438.957335 612.562,438.584 L612.562,438.392 L613.906,438.392 L613.906,438.584 C613.906,439.149336 613.820668,439.679998 613.65,440.176 C613.479332,440.672002 613.228668,441.103998 612.898,441.472 C612.567332,441.840002 612.156669,442.127999 611.666,442.336 C611.175331,442.544001 610.610003,442.648 609.97,442.648 C608.73266,442.648 607.767337,442.258671 607.074,441.48 C606.380663,440.701329 606.034,439.565341 606.034,438.072 L606.034,435.576 C606.034,434.125326 606.380663,433.000004 607.074,432.2 C607.767337,431.399996 608.73266,431 609.97,431 C610.610003,431 611.175331,431.103999 611.666,431.312 C612.156669,431.520001 612.567332,431.807998 612.898,432.176 C613.228668,432.544002 613.479332,432.975998 613.65,433.472 C613.820668,433.968002 613.906,434.498664 613.906,435.064 L613.906,435.256 L612.562,435.256 L612.562,435.064 C612.551333,434.701332 612.495334,434.349335 612.394,434.008 C612.292666,433.666665 612.138001,433.365335 611.93,433.104 C611.721999,432.842665 611.458002,432.634667 611.138,432.48 C610.817998,432.325333 610.428669,432.248 609.97,432.248 C609.105996,432.248 608.458002,432.562664 608.026,433.192 C607.593998,433.821336 607.378,434.647995 607.378,435.672 L607.378,437.976 C607.378,439.074672 607.593998,439.919997 608.026,440.512 C608.458002,441.104003 609.105996,441.4 609.97,441.4 Z M615.97,431.224 L619.65,431.224 C621.036674,431.224 622.049997,431.554663 622.69,432.216 C623.330003,432.877337 623.65,433.933326 623.65,435.384 L623.65,438.264 C623.65,439.714674 623.330003,440.770663 622.69,441.432 C622.049997,442.093337 621.036674,442.424 619.65,442.424 L615.97,442.424 L615.97,441.16 L616.93,441.16 L616.93,432.472 L615.97,432.472 L615.97,431.224 Z M619.458,441.176 C619.948669,441.176 620.372665,441.128 620.73,441.032 C621.087335,440.936 621.383332,440.773334 621.618,440.544 C621.852668,440.314666 622.025999,440.008002 622.138,439.624 C622.250001,439.239998 622.306,438.75467 622.306,438.168 L622.306,435.48 C622.306,434.89333 622.250001,434.408002 622.138,434.024 C622.025999,433.639998 621.852668,433.333334 621.618,433.104 C621.383332,432.874666 621.087335,432.712 620.73,432.616 C620.372665,432.52 619.948669,432.472 619.458,432.472 L618.274,432.472 L618.274,441.176 L619.458,441.176 Z" id="path-75"></path>
        <rect id="path-76" x="0" y="0" width="1843" height="786"></rect>
        <path d="M680.46,467.224 L684.14,467.224 C685.526674,467.224 686.539997,467.554663 687.18,468.216 C687.820003,468.877337 688.14,469.933326 688.14,471.384 L688.14,474.264 C688.14,475.714674 687.820003,476.770663 687.18,477.432 C686.539997,478.093337 685.526674,478.424 684.14,478.424 L680.46,478.424 L680.46,477.16 L681.42,477.16 L681.42,468.472 L680.46,468.472 L680.46,467.224 Z M683.948,477.176 C684.438669,477.176 684.862665,477.128 685.22,477.032 C685.577335,476.936 685.873332,476.773334 686.108,476.544 C686.342668,476.314666 686.515999,476.008002 686.628,475.624 C686.740001,475.239998 686.796,474.75467 686.796,474.168 L686.796,471.48 C686.796,470.89333 686.740001,470.408002 686.628,470.024 C686.515999,469.639998 686.342668,469.333334 686.108,469.104 C685.873332,468.874666 685.577335,468.712 685.22,468.616 C684.862665,468.52 684.438669,468.472 683.948,468.472 L682.764,468.472 L682.764,477.176 L683.948,477.176 Z M696.172,477.848 L696.364,477.848 L696.364,467.224 L697.708,467.224 L697.708,478.424 L695.02,478.424 L691.788,467.8 L691.596,467.8 L691.596,478.424 L690.252,478.424 L690.252,467.224 L692.94,467.224 L696.172,477.848 Z M706.412,470.456 C706.412,470.093332 706.340001,469.773335 706.196,469.496 C706.051999,469.218665 705.857335,468.989334 705.612,468.808 C705.366665,468.626666 705.084002,468.488 704.764,468.392 C704.443998,468.296 704.108002,468.248 703.756,468.248 C703.446665,468.248 703.153335,468.288 702.876,468.368 C702.598665,468.448 702.350668,468.562666 702.132,468.712 C701.913332,468.861334 701.740001,469.045332 701.612,469.264 C701.483999,469.482668 701.42,469.735999 701.42,470.024 L701.42,470.12 C701.42,470.429335 701.483999,470.693332 701.612,470.912 C701.740001,471.130668 701.929332,471.317333 702.18,471.472 C702.430668,471.626667 702.742665,471.754666 703.116,471.856 C703.489335,471.957334 703.926664,472.045333 704.428,472.12 C705.601339,472.301334 706.465331,472.645331 707.02,473.152 C707.574669,473.658669 707.852,474.338662 707.852,475.192 L707.852,475.384 C707.852,475.864002 707.769334,476.303998 707.604,476.704 C707.438666,477.104002 707.193335,477.447999 706.868,477.736 C706.542665,478.024001 706.140002,478.247999 705.66,478.408 C705.179998,478.568001 704.625336,478.648 703.996,478.648 C703.28133,478.648 702.649336,478.544001 702.1,478.336 C701.550664,478.127999 701.092002,477.840002 700.724,477.472 C700.355998,477.103998 700.076001,476.672002 699.884,476.176 C699.691999,475.679998 699.596,475.13867 699.596,474.552 L699.596,474.072 L700.94,474.072 L700.94,474.456 C700.94,475.437338 701.209331,476.173331 701.748,476.664 C702.286669,477.154669 703.035995,477.4 703.996,477.4 C704.828004,477.4 705.454665,477.216002 705.876,476.848 C706.297335,476.479998 706.508,475.992003 706.508,475.384 L706.508,475.288 C706.508,474.70133 706.292002,474.253335 705.86,473.944 C705.427998,473.634665 704.726672,473.410667 703.756,473.272 C703.190664,473.197333 702.681336,473.082667 702.228,472.928 C701.774664,472.773333 701.388002,472.570668 701.068,472.32 C700.747998,472.069332 700.502668,471.768002 700.332,471.416 C700.161332,471.063998 700.076,470.648002 700.076,470.168 L700.076,469.976 C700.076,469.538664 700.166666,469.138668 700.348,468.776 C700.529334,468.413332 700.782665,468.098668 701.108,467.832 C701.433335,467.565332 701.822664,467.360001 702.276,467.216 C702.729336,467.071999 703.227997,467 703.772,467 C704.401336,467 704.963998,467.090666 705.46,467.272 C705.956002,467.453334 706.374665,467.695998 706.716,468 C707.057335,468.304002 707.315999,468.661331 707.492,469.072 C707.668001,469.482669 707.756,469.911998 707.756,470.36 L707.756,471.032 L706.412,471.032 L706.412,470.456 Z" id="path-78"></path>
        <rect id="path-79" x="0" y="0" width="1843" height="786"></rect>
        <path d="M640.734,520.592 L640.734,525.2 L639.39,525.2 L639.39,514 L643.39,514 C643.966003,514 644.467331,514.082666 644.894,514.248 C645.320669,514.413334 645.675332,514.634665 645.958,514.912 C646.240668,515.189335 646.453999,515.511998 646.598,515.88 C646.742001,516.248002 646.814,516.634665 646.814,517.04 L646.814,517.52 C646.814,517.925335 646.742001,518.314665 646.598,518.688 C646.453999,519.061335 646.238001,519.389332 645.95,519.672 C645.661999,519.954668 645.304669,520.178666 644.878,520.344 C644.451331,520.509334 643.955336,520.592 643.39,520.592 L640.734,520.592 Z M640.734,519.344 L643.23,519.344 C644.723341,519.344 645.47,518.704006 645.47,517.424 L645.47,517.136 C645.47,516.570664 645.286002,516.114668 644.918,515.768 C644.549998,515.421332 643.987337,515.248 643.23,515.248 L640.734,515.248 L640.734,519.344 Z M654.974,523.856 L654.782,523.856 C654.525999,524.389336 654.171336,524.783999 653.718,525.04 C653.264664,525.296001 652.787336,525.424 652.286,525.424 C651.763331,525.424 651.278002,525.336001 650.83,525.16 C650.381998,524.983999 649.990002,524.722668 649.654,524.376 C649.317998,524.029332 649.054001,523.605336 648.862,523.104 C648.669999,522.602664 648.574,522.021337 648.574,521.36 L648.574,521.104 C648.574,520.45333 648.669999,519.877336 648.862,519.376 C649.054001,518.874664 649.317998,518.450668 649.654,518.104 C649.990002,517.757332 650.381998,517.493334 650.83,517.312 C651.278002,517.130666 651.752664,517.04 652.254,517.04 C652.798003,517.04 653.291331,517.159999 653.734,517.4 C654.176669,517.640001 654.525999,518.010664 654.782,518.512 L654.974,518.512 L654.974,517.264 L656.222,517.264 L656.222,523.568 C656.222,523.888002 656.365999,524.048 656.654,524.048 L657.054,524.048 L657.054,525.2 L656.206,525.2 C655.843332,525.2 655.547334,525.082668 655.318,524.848 C655.088666,524.613332 654.974,524.314668 654.974,523.952 L654.974,523.856 Z M652.414,524.24 C652.787335,524.24 653.131332,524.170667 653.446,524.032 C653.760668,523.893333 654.029999,523.696001 654.254,523.44 C654.478001,523.183999 654.653999,522.877335 654.782,522.52 C654.910001,522.162665 654.974,521.765336 654.974,521.328 L654.974,521.136 C654.974,520.709331 654.910001,520.317335 654.782,519.96 C654.653999,519.602665 654.475334,519.296001 654.246,519.04 C654.016666,518.783999 653.744668,518.584001 653.43,518.44 C653.115332,518.295999 652.776668,518.224 652.414,518.224 C652.040665,518.224 651.699335,518.293333 651.39,518.432 C651.080665,518.570667 650.811334,518.765332 650.582,519.016 C650.352666,519.266668 650.174001,519.570665 650.046,519.928 C649.917999,520.285335 649.854,520.677331 649.854,521.104 L649.854,521.36 C649.854,522.266671 650.091331,522.973331 650.566,523.48 C651.040669,523.986669 651.656663,524.24 652.414,524.24 Z M666.43,522.384 C666.344666,522.821336 666.198001,523.226665 665.99,523.6 C665.781999,523.973335 665.518002,524.295999 665.198,524.568 C664.877998,524.840001 664.504669,525.050666 664.078,525.2 C663.651331,525.349334 663.176669,525.424 662.654,525.424 C662.099331,525.424 661.574002,525.333334 661.078,525.152 C660.581998,524.970666 660.147335,524.706668 659.774,524.36 C659.400665,524.013332 659.104668,523.589336 658.886,523.088 C658.667332,522.586664 658.558,522.01067 658.558,521.36 L658.558,521.168 C658.558,520.527997 658.667332,519.952003 658.886,519.44 C659.104668,518.927997 659.400665,518.496002 659.774,518.144 C660.147335,517.791998 660.581998,517.520001 661.078,517.328 C661.574002,517.135999 662.099331,517.04 662.654,517.04 C663.155336,517.04 663.619331,517.114666 664.046,517.264 C664.472669,517.413334 664.848665,517.623999 665.174,517.896 C665.499335,518.168001 665.765999,518.490665 665.974,518.864 C666.182001,519.237335 666.323333,519.642664 666.398,520.08 L665.15,520.368 C665.118,520.090665 665.040667,519.821335 664.918,519.56 C664.795333,519.298665 664.630001,519.069334 664.422,518.872 C664.213999,518.674666 663.960668,518.517334 663.662,518.4 C663.363332,518.282666 663.016669,518.224 662.622,518.224 C662.237998,518.224 661.878002,518.295999 661.542,518.44 C661.205998,518.584001 660.910001,518.786665 660.654,519.048 C660.397999,519.309335 660.198001,519.621332 660.054,519.984 C659.909999,520.346668 659.838,520.741331 659.838,521.168 L659.838,521.36 C659.838,521.808002 659.909999,522.210665 660.054,522.568 C660.198001,522.925335 660.397999,523.226665 660.654,523.472 C660.910001,523.717335 661.208665,523.906666 661.55,524.04 C661.891335,524.173334 662.259331,524.24 662.654,524.24 C663.048669,524.24 663.392665,524.178667 663.686,524.056 C663.979335,523.933333 664.229999,523.773334 664.438,523.576 C664.646001,523.378666 664.811333,523.152001 664.934,522.896 C665.056667,522.639999 665.139333,522.373335 665.182,522.096 L666.43,522.384 Z M670.846,520.56 L671.118,520.56 L674.142,517.264 L675.678,517.264 L675.678,517.36 L672.382,520.992 L672.382,521.28 L676.062,525.104 L676.062,525.2 L674.526,525.2 L671.15,521.712 L670.846,521.712 L670.846,525.2 L669.598,525.2 L669.598,514 L670.846,514 L670.846,520.56 Z M684.35,523.856 L684.158,523.856 C683.901999,524.389336 683.547336,524.783999 683.094,525.04 C682.640664,525.296001 682.163336,525.424 681.662,525.424 C681.139331,525.424 680.654002,525.336001 680.206,525.16 C679.757998,524.983999 679.366002,524.722668 679.03,524.376 C678.693998,524.029332 678.430001,523.605336 678.238,523.104 C678.045999,522.602664 677.95,522.021337 677.95,521.36 L677.95,521.104 C677.95,520.45333 678.045999,519.877336 678.238,519.376 C678.430001,518.874664 678.693998,518.450668 679.03,518.104 C679.366002,517.757332 679.757998,517.493334 680.206,517.312 C680.654002,517.130666 681.128664,517.04 681.63,517.04 C682.174003,517.04 682.667331,517.159999 683.11,517.4 C683.552669,517.640001 683.901999,518.010664 684.158,518.512 L684.35,518.512 L684.35,517.264 L685.598,517.264 L685.598,523.568 C685.598,523.888002 685.741999,524.048 686.03,524.048 L686.43,524.048 L686.43,525.2 L685.582,525.2 C685.219332,525.2 684.923334,525.082668 684.694,524.848 C684.464666,524.613332 684.35,524.314668 684.35,523.952 L684.35,523.856 Z M681.79,524.24 C682.163335,524.24 682.507332,524.170667 682.822,524.032 C683.136668,523.893333 683.405999,523.696001 683.63,523.44 C683.854001,523.183999 684.029999,522.877335 684.158,522.52 C684.286001,522.162665 684.35,521.765336 684.35,521.328 L684.35,521.136 C684.35,520.709331 684.286001,520.317335 684.158,519.96 C684.029999,519.602665 683.851334,519.296001 683.622,519.04 C683.392666,518.783999 683.120668,518.584001 682.806,518.44 C682.491332,518.295999 682.152668,518.224 681.79,518.224 C681.416665,518.224 681.075335,518.293333 680.766,518.432 C680.456665,518.570667 680.187334,518.765332 679.958,519.016 C679.728666,519.266668 679.550001,519.570665 679.422,519.928 C679.293999,520.285335 679.23,520.677331 679.23,521.104 L679.23,521.36 C679.23,522.266671 679.467331,522.973331 679.942,523.48 C680.416669,523.986669 681.032663,524.24 681.79,524.24 Z M694.414,523.984 L694.222,523.984 C693.965999,524.464002 693.616669,524.823999 693.174,525.064 C692.731331,525.304001 692.248669,525.424 691.726,525.424 C691.192664,525.424 690.691336,525.333334 690.222,525.152 C689.752664,524.970666 689.339335,524.709335 688.982,524.368 C688.624665,524.026665 688.342001,523.602669 688.134,523.096 C687.925999,522.589331 687.822,522.01067 687.822,521.36 L687.822,521.104 C687.822,520.463997 687.928666,519.890669 688.142,519.384 C688.355334,518.877331 688.637998,518.450668 688.99,518.104 C689.342002,517.757332 689.752664,517.493334 690.222,517.312 C690.691336,517.130666 691.181997,517.04 691.694,517.04 C692.270003,517.04 692.773998,517.165332 693.206,517.416 C693.638002,517.666668 693.976665,518.031998 694.222,518.512 L694.414,518.512 L694.414,517.264 L695.662,517.264 L695.662,527.152 C695.662,527.514668 695.547334,527.813332 695.318,528.048 C695.088666,528.282668 694.792668,528.4 694.43,528.4 L689.262,528.4 L689.262,527.248 L693.982,527.248 C694.270001,527.248 694.414,527.088002 694.414,526.768 L694.414,523.984 Z M691.758,524.24 C692.131335,524.24 692.477998,524.170667 692.798,524.032 C693.118002,523.893333 693.397999,523.696001 693.638,523.44 C693.878001,523.183999 694.067333,522.877335 694.206,522.52 C694.344667,522.162665 694.414,521.765336 694.414,521.328 L694.414,521.136 C694.414,520.709331 694.344667,520.317335 694.206,519.96 C694.067333,519.602665 693.878001,519.296001 693.638,519.04 C693.397999,518.783999 693.115335,518.584001 692.79,518.44 C692.464665,518.295999 692.120668,518.224 691.758,518.224 C691.384665,518.224 691.035335,518.293333 690.71,518.432 C690.384665,518.570667 690.102001,518.767999 689.862,519.024 C689.621999,519.280001 689.435334,519.583998 689.302,519.936 C689.168666,520.288002 689.102,520.677331 689.102,521.104 L689.102,521.36 C689.102,521.808002 689.168666,522.207998 689.302,522.56 C689.435334,522.912002 689.621999,523.213332 689.862,523.464 C690.102001,523.714668 690.381998,523.906666 690.702,524.04 C691.022002,524.173334 691.373998,524.24 691.758,524.24 Z M699.086,521.616 C699.118,522.405337 699.363331,523.039998 699.822,523.52 C700.280669,524.000002 700.920663,524.24 701.742,524.24 C702.115335,524.24 702.440665,524.197334 702.718,524.112 C702.995335,524.026666 703.232666,523.909334 703.43,523.76 C703.627334,523.610666 703.787333,523.437334 703.91,523.24 C704.032667,523.042666 704.131333,522.832001 704.206,522.608 L705.39,522.928 C705.165999,523.664004 704.75267,524.263998 704.15,524.728 C703.54733,525.192002 702.734005,525.424 701.71,525.424 C701.144664,525.424 700.624669,525.325334 700.15,525.128 C699.675331,524.930666 699.267335,524.650668 698.926,524.288 C698.584665,523.925332 698.318001,523.493336 698.126,522.992 C697.933999,522.490664 697.838,521.936003 697.838,521.328 L697.838,520.944 C697.838,520.389331 697.936666,519.872002 698.134,519.392 C698.331334,518.911998 698.605998,518.498668 698.958,518.152 C699.310002,517.805332 699.723331,517.533334 700.198,517.336 C700.672669,517.138666 701.187331,517.04 701.742,517.04 C702.39267,517.04 702.955331,517.159999 703.43,517.4 C703.904669,517.640001 704.293998,517.935998 704.598,518.288 C704.902002,518.640002 705.125999,519.023998 705.27,519.44 C705.414001,519.856002 705.486,520.239998 705.486,520.592 L705.486,521.616 L699.086,521.616 Z M701.742,518.224 C701.389998,518.224 701.062002,518.279999 700.758,518.392 C700.453998,518.504001 700.187334,518.661332 699.958,518.864 C699.728666,519.066668 699.542001,519.303999 699.398,519.576 C699.253999,519.848001 699.160667,520.143998 699.118,520.464 L704.238,520.464 C704.216667,520.122665 704.134001,519.813335 703.99,519.536 C703.845999,519.258665 703.659334,519.024001 703.43,518.832 C703.200666,518.639999 702.939335,518.490667 702.646,518.384 C702.352665,518.277333 702.051335,518.224 701.742,518.224 Z M709.614,519.312 C709.614,519.696002 709.776665,519.989332 710.102,520.192 C710.427335,520.394668 711.021996,520.528 711.886,520.592 C712.814005,520.666667 713.520664,520.887998 714.006,521.256 C714.491336,521.624002 714.734,522.159996 714.734,522.864 L714.734,522.96 C714.734,523.344002 714.656667,523.687998 714.502,523.992 C714.347333,524.296002 714.134001,524.554666 713.862,524.768 C713.589999,524.981334 713.259335,525.143999 712.87,525.256 C712.480665,525.368001 712.056669,525.424 711.598,525.424 C710.97933,525.424 710.448669,525.341334 710.006,525.176 C709.563331,525.010666 709.195335,524.792001 708.902,524.52 C708.608665,524.247999 708.387334,523.938668 708.238,523.592 C708.088666,523.245332 708.003333,522.896002 707.982,522.544 L709.166,522.256 C709.219334,522.864003 709.453998,523.351998 709.87,523.72 C710.286002,524.088002 710.840663,524.272 711.534,524.272 C712.12067,524.272 712.592665,524.157334 712.95,523.928 C713.307335,523.698666 713.486,523.376002 713.486,522.96 C713.486,522.511998 713.310002,522.192001 712.958,522 C712.605998,521.807999 712.035337,521.685334 711.246,521.632 C710.328662,521.568 709.624669,521.354668 709.134,520.992 C708.643331,520.629332 708.398,520.101337 708.398,519.408 L708.398,519.312 C708.398,518.938665 708.477999,518.610668 708.638,518.328 C708.798001,518.045332 709.013999,517.808001 709.286,517.616 C709.558001,517.423999 709.864665,517.28 710.206,517.184 C710.547335,517.088 710.904665,517.04 711.278,517.04 C711.800669,517.04 712.259331,517.111999 712.654,517.256 C713.048669,517.400001 713.379332,517.586666 713.646,517.816 C713.912668,518.045334 714.117999,518.309332 714.262,518.608 C714.406001,518.906668 714.499333,519.205332 714.542,519.504 L713.358,519.792 C713.304666,519.279997 713.099335,518.880001 712.742,518.592 C712.384665,518.303999 711.918003,518.16 711.342,518.16 C711.117999,518.16 710.902001,518.184 710.694,518.232 C710.485999,518.28 710.302001,518.352 710.142,518.448 C709.981999,518.544 709.854,518.663999 709.758,518.808 C709.662,518.952001 709.614,519.119999 709.614,519.312 Z" id="path-81"></path>
        <rect id="path-82" x="0" y="0" width="1843" height="786"></rect>
        <rect id="path-84" x="0" y="0" width="1843" height="786"></rect>
        <rect id="path-86" x="0" y="0" width="1843" height="786"></rect>
        <rect id="path-88" x="0" y="0" width="1843" height="786"></rect>
        <rect id="path-90" x="0" y="0" width="1843" height="786"></rect>
        <rect id="path-92" x="0" y="0" width="1843" height="786"></rect>
        <rect id="path-94" x="0" y="0" width="1843" height="786"></rect>
        <path d="M1392.106,613.06 L1387.306,613.06 L1386.49,615.844 L1385.05,615.844 L1388.442,604.644 L1390.97,604.644 L1394.362,615.844 L1392.922,615.844 L1392.106,613.06 Z M1389.61,605.22 L1387.674,611.812 L1391.738,611.812 L1389.802,605.22 L1389.61,605.22 Z M1409.354,614.82 C1409.81267,614.82 1410.20467,614.742667 1410.53,614.588 C1410.85533,614.433333 1411.122,614.225335 1411.33,613.964 C1411.538,613.702665 1411.69267,613.404002 1411.794,613.068 C1411.89533,612.731998 1411.946,612.377335 1411.946,612.004 L1411.946,611.812 L1413.29,611.812 L1413.29,612.004 C1413.29,612.569336 1413.20467,613.099998 1413.034,613.596 C1412.86333,614.092002 1412.61267,614.523998 1412.282,614.892 C1411.95133,615.260002 1411.54067,615.547999 1411.05,615.756 C1410.55933,615.964001 1409.994,616.068 1409.354,616.068 C1408.11666,616.068 1407.15134,615.678671 1406.458,614.9 C1405.76466,614.121329 1405.418,612.985341 1405.418,611.492 L1405.418,608.996 C1405.418,607.545326 1405.76466,606.420004 1406.458,605.62 C1407.15134,604.819996 1408.11666,604.42 1409.354,604.42 C1409.994,604.42 1410.55933,604.523999 1411.05,604.732 C1411.54067,604.940001 1411.95133,605.227998 1412.282,605.596 C1412.61267,605.964002 1412.86333,606.395998 1413.034,606.892 C1413.20467,607.388002 1413.29,607.918664 1413.29,608.484 L1413.29,608.676 L1411.946,608.676 L1411.946,608.484 C1411.93533,608.121332 1411.87933,607.769335 1411.778,607.428 C1411.67667,607.086665 1411.522,606.785335 1411.314,606.524 C1411.106,606.262665 1410.842,606.054667 1410.522,605.9 C1410.202,605.745333 1409.81267,605.668 1409.354,605.668 C1408.49,605.668 1407.842,605.982664 1407.41,606.612 C1406.978,607.241336 1406.762,608.067995 1406.762,609.092 L1406.762,611.396 C1406.762,612.494672 1406.978,613.339997 1407.41,613.932 C1407.842,614.524003 1408.49,614.82 1409.354,614.82 Z M1421.274,615.268 L1421.466,615.268 L1421.466,604.644 L1422.81,604.644 L1422.81,615.844 L1420.122,615.844 L1416.89,605.22 L1416.698,605.22 L1416.698,615.844 L1415.354,615.844 L1415.354,604.644 L1418.042,604.644 L1421.274,615.268 Z M1431.274,613.06 L1426.474,613.06 L1425.658,615.844 L1424.218,615.844 L1427.61,604.644 L1430.138,604.644 L1433.53,615.844 L1432.09,615.844 L1431.274,613.06 Z M1428.778,605.22 L1426.842,611.812 L1430.906,611.812 L1428.97,605.22 L1428.778,605.22 Z M1434.682,614.596 L1435.642,614.596 L1435.642,605.892 L1434.682,605.892 L1434.682,604.644 L1439.21,604.644 C1439.74334,604.644 1440.21533,604.718666 1440.626,604.868 C1441.03667,605.017334 1441.38333,605.219999 1441.666,605.476 C1441.94867,605.732001 1442.162,606.038665 1442.306,606.396 C1442.45,606.753335 1442.522,607.139998 1442.522,607.556 L1442.522,607.748 C1442.522,608.057335 1442.474,608.339999 1442.378,608.596 C1442.282,608.852001 1442.14867,609.081332 1441.978,609.284 C1441.80733,609.486668 1441.60733,609.659999 1441.378,609.804 C1441.14867,609.948001 1440.90067,610.057333 1440.634,610.132 L1440.634,610.324 C1441.16734,610.473334 1441.61533,610.758665 1441.978,611.18 C1442.34067,611.601335 1442.522,612.115997 1442.522,612.724 L1442.522,612.916 C1442.522,613.332002 1442.45,613.718665 1442.306,614.076 C1442.162,614.433335 1441.94867,614.742665 1441.666,615.004 C1441.38333,615.265335 1441.03667,615.470666 1440.626,615.62 C1440.21533,615.769334 1439.74334,615.844 1439.21,615.844 L1434.682,615.844 L1434.682,614.596 Z M1436.986,614.596 L1439.114,614.596 C1439.74334,614.596 1440.25533,614.438668 1440.65,614.124 C1441.04467,613.809332 1441.242,613.374669 1441.242,612.82 L1441.242,612.724 C1441.242,612.147997 1441.05534,611.692002 1440.682,611.356 C1440.30866,611.019998 1439.802,610.852 1439.162,610.852 L1436.986,610.852 L1436.986,614.596 Z M1436.986,609.604 L1439.162,609.604 C1439.802,609.604 1440.30866,609.438668 1440.682,609.108 C1441.05534,608.777332 1441.242,608.324003 1441.242,607.748 L1441.242,607.652 C1441.242,607.107997 1441.04467,606.678668 1440.65,606.364 C1440.25533,606.049332 1439.74334,605.892 1439.114,605.892 L1436.986,605.892 L1436.986,609.604 Z M1447.338,614.948 C1447.338,614.638665 1447.44733,614.374668 1447.666,614.156 C1447.88467,613.937332 1448.14867,613.828 1448.458,613.828 C1448.76733,613.828 1449.03133,613.937332 1449.25,614.156 C1449.46867,614.374668 1449.578,614.638665 1449.578,614.948 C1449.578,615.257335 1449.46867,615.521332 1449.25,615.74 C1449.03133,615.958668 1448.76733,616.068 1448.458,616.068 C1448.14867,616.068 1447.88467,615.958668 1447.666,615.74 C1447.44733,615.521332 1447.338,615.257335 1447.338,614.948 Z" id="path-96"></path>
    </defs>
    <g id="Page-1" stroke="none" stroke-width="1" fill="none" fill-rule="evenodd">
        <g id="intro" transform="translate(0.000000, -296.000000)">
            <g id="white-gradient-Clipped">
                <mask id="mask-2" fill="white">
                    <use xlink:href="#path-1"></use>
                </mask>
                <g id="path-1"></g>
                <rect id="white-gradient" fill="url(#linearGradient-3)" fill-rule="nonzero" mask="url(#mask-2)" x="0" y="296" width="1878" height="516"></rect>
            </g>
            <g id="Path-3-Clipped">
                <mask id="mask-5" fill="white">
                    <use xlink:href="#path-4"></use>
                </mask>
                <g id="path-1"></g>
                <polyline id="Path-3" fill="url(#linearGradient-6)" fill-rule="nonzero" style="mix-blend-mode: screen;" mask="url(#mask-5)" points="196 397.953125 1300 520.878415 196 700.953125"></polyline>
            </g>
            <g id="Rectangle-9-Clipped">
                <mask id="mask-8" fill="white">
                    <use xlink:href="#path-7"></use>
                </mask>
                <g id="path-1"></g>
                <rect id="Rectangle-9" fill="#D8D8D8" fill-rule="nonzero" mask="url(#mask-8)" x="319" y="652" width="247" height="26"></rect>
            </g>
            <g id="Rectangle-9-Clipped">
                <mask id="mask-10" fill="white">
                    <use xlink:href="#path-9"></use>
                </mask>
                <g id="path-1"></g>
                <rect id="Rectangle-9" fill="#D8D8D8" fill-rule="nonzero" opacity="0.420703125" mask="url(#mask-10)" x="319" y="692" width="247" height="26"></rect>
            </g>
            <g id="Rectangle-9-Clipped">
                <mask id="mask-12" fill="white">
                    <use xlink:href="#path-11"></use>
                </mask>
                <g id="path-1"></g>
                <rect id="Rectangle-9" fill="#D8D8D8" fill-rule="nonzero" opacity="0.420703125" mask="url(#mask-12)" x="319" y="732" width="247" height="26"></rect>
            </g>
            <g id="DBs-Clipped">
                <mask id="mask-14" fill="white">
                    <use xlink:href="#path-13"></use>
                </mask>
                <g id="path-1"></g>
                <text id="DBs" fill="#B6B9C1" mask="url(#mask-14)" font-family="SpaceMono-Regular, Space Mono" font-size="16" font-weight="normal">
                    <tspan x="550.459059" y="639">DBs</tspan>
                </text>
            </g>
            <g id="Secrets-Clipped">
                <mask id="mask-16" fill="white">
                    <use xlink:href="#path-15"></use>
                </mask>
                <g id="path-1"></g>
                <text id="Secrets" fill="#B6B9C1" mask="url(#mask-16)" font-family="SpaceMono-Regular, Space Mono" font-size="16" font-weight="normal">
                    <tspan x="600.40447" y="608">Secrets</tspan>
                </text>
            </g>
            <g id="triangle-Clipped">
                <mask id="mask-18" fill="white">
                    <use xlink:href="#path-17"></use>
                </mask>
                <g id="path-1"></g>
                <g id="triangle" mask="url(#mask-18)">
                    <g transform="translate(139.000000, 465.000000)" id="Group">
                        <g>
                            <g id="Rectangle-2" fill="url(#linearGradient-19)" fill-rule="nonzero">
                                <polygon id="path-6" points="777 0 1554 355.378906 777 710.757812 0 355.378906"></polygon>
                            </g>
                            <g id="white-gradient-Clipped">
                                <mask id="mask-21" fill="white">
                                    <use xlink:href="#path-20"></use>
                                </mask>
                                <g id="path-6"></g>
                                <rect id="white-gradient" fill="url(#linearGradient-3)" fill-rule="nonzero" mask="url(#mask-21)" x="57" y="-163" width="1440" height="516"></rect>
                            </g>
                        </g>
                    </g>
                </g>
            </g>
            <g id="Rectangle-13-Clipped">
                <mask id="mask-23" fill="white">
                    <use xlink:href="#path-22"></use>
                </mask>
                <g id="path-1"></g>
                <rect id="Rectangle-13" fill="#E83683" fill-rule="nonzero" mask="url(#mask-23)" x="508" y="437" width="54" height="54"></rect>
            </g>
            <g id="Oval-4-Clipped">
                <mask id="mask-25" fill="white">
                    <use xlink:href="#path-24"></use>
                </mask>
                <g id="path-1"></g>
                <circle id="Oval-4" fill="#CCFF66" fill-rule="nonzero" mask="url(#mask-25)" cx="526.5" cy="620.5" r="18.5"></circle>
            </g>
            <g id="Oval-4-Clipped">
                <mask id="mask-27" fill="white">
                    <use xlink:href="#path-26"></use>
                </mask>
                <g id="path-1"></g>
                <circle id="Oval-4" fill="#D3DDF7" fill-rule="nonzero" mask="url(#mask-27)" cx="555.5" cy="592.5" r="28.5"></circle>
            </g>
            <g id="Rectangle-10-Clipped">
                <mask id="mask-29" fill="white">
                    <use xlink:href="#path-28"></use>
                </mask>
                <g id="path-1"></g>
                <rect id="Rectangle-10" fill="#D3DDF7" fill-rule="nonzero" mask="url(#mask-29)" x="415" y="602" width="36" height="36"></rect>
            </g>
            <g id="Rectangle-10-Clipped">
                <mask id="mask-31" fill="white">
                    <use xlink:href="#path-30"></use>
                </mask>
                <g id="path-1"></g>
                <rect id="Rectangle-10" fill="#0F9DDA" fill-rule="nonzero" mask="url(#mask-31)" x="435" y="622" width="36" height="36"></rect>
            </g>
            <g id="Rectangle-10-Clipped">
                <mask id="mask-33" fill="white">
                    <use xlink:href="#path-32"></use>
                </mask>
                <g id="path-1"></g>
                <rect id="Rectangle-10" fill="#CCFF66" fill-rule="nonzero" mask="url(#mask-33)" x="365" y="602" width="36" height="36"></rect>
            </g>
            <g id="Rectangle-10-Clipped">
                <mask id="mask-35" fill="white">
                    <use xlink:href="#path-34"></use>
                </mask>
                <g id="path-1"></g>
                <rect id="Rectangle-10" fill="#2EC4B6" fill-rule="nonzero" mask="url(#mask-35)" x="385" y="622" width="36" height="36"></rect>
            </g>
            <g id="Rectangle-8-Clipped">
                <mask id="mask-37" fill="white">
                    <use xlink:href="#path-36"></use>
                </mask>
                <g id="path-1"></g>
                <rect id="Rectangle-8" fill="#2EC4B6" fill-rule="nonzero" mask="url(#mask-37)" x="581" y="465" width="22" height="66"></rect>
            </g>
            <g id="Rectangle-8-Clipped">
                <mask id="mask-39" fill="white">
                    <use xlink:href="#path-38"></use>
                </mask>
                <g id="path-1"></g>
                <rect id="Rectangle-8" fill="#2EC4B6" fill-rule="nonzero" mask="url(#mask-39)" x="611" y="465" width="22" height="66"></rect>
            </g>
            <g id="Polygon-Clipped">
                <mask id="mask-41" fill="white">
                    <use xlink:href="#path-40"></use>
                </mask>
                <g id="path-1"></g>
                <polygon id="Polygon" fill="#3731AA" fill-rule="nonzero" mask="url(#mask-41)" points="454 503 493.944374 532.021286 478.686981 578.978714 429.313019 578.978714 414.055626 532.021286"></polygon>
            </g>
            <g id="Rectangle-14-Clipped">
                <mask id="mask-43" fill="white">
                    <use xlink:href="#path-42"></use>
                </mask>
                <g id="path-1"></g>
                <rect id="Rectangle-14" fill="#D3DDF7" fill-rule="nonzero" mask="url(#mask-43)" x="475" y="509" width="38" height="38"></rect>
            </g>
            <g id="Oval-3-Clipped">
                <mask id="mask-45" fill="white">
                    <use xlink:href="#path-44"></use>
                </mask>
                <g id="path-1"></g>
                <circle id="Oval-3" stroke="#D3DDF7" stroke-width="5" mask="url(#mask-45)" cx="293.5" cy="438.5" r="34"></circle>
            </g>
            <g id="Oval-3-Clipped">
                <mask id="mask-47" fill="white">
                    <use xlink:href="#path-46"></use>
                </mask>
                <g id="path-1"></g>
                <g id="Oval-3" opacity="0.474162946" style="mix-blend-mode: multiply;" stroke-dasharray="10" mask="url(#mask-47)">
                    <g transform="translate(322.000000, 402.000000)" id="path-8-link">
                        <g>
                            <g id="path-8-Clipped">
                                <mask id="mask-49" fill="white">
                                    <use xlink:href="#path-48"></use>
                                </mask>
                                <g id="path-8"></g>
                                <path d="M36.5,73 C56.658393,73 73,56.658393 73,36.5 C73,16.341607 56.658393,0 36.5,0 C16.341607,0 0,16.341607 0,36.5 C0,56.658393 16.341607,73 36.5,73 Z" id="path-8" stroke="#D3DDF7" stroke-width="10" mask="url(#mask-49)"></path>
                            </g>
                        </g>
                    </g>
                </g>
            </g>
            <g id="Oval-3-Clipped">
                <mask id="mask-51" fill="white">
                    <use xlink:href="#path-50"></use>
                </mask>
                <g id="path-1"></g>
                <circle id="Oval-3" fill="#D3DDF7" fill-rule="nonzero" mask="url(#mask-51)" cx="328" cy="493" r="42"></circle>
            </g>
            <g id="Triangle-Clipped">
                <mask id="mask-53" fill="white">
                    <use xlink:href="#path-52"></use>
                </mask>
                <g id="path-1"></g>
                <polygon id="Triangle" stroke="#E83683" stroke-width="7" mask="url(#mask-53)" points="695 422.826238 677.663119 457.5 712.336881 457.5"></polygon>
            </g>
            <g id="Triangle-Clipped">
                <mask id="mask-55" fill="white">
                    <use xlink:href="#path-54"></use>
                </mask>
                <g id="path-1"></g>
                <polygon id="Triangle" fill="#2EC4B6" fill-rule="nonzero" style="mix-blend-mode: multiply;" mask="url(#mask-55)" points="439 400 462 446 416 446"></polygon>
            </g>
            <g id="Triangle-Clipped">
                <mask id="mask-57" fill="white">
                    <use xlink:href="#path-56"></use>
                </mask>
                <g id="path-1"></g>
                <polygon id="Triangle" fill="#CCFF66" fill-rule="nonzero" style="mix-blend-mode: multiply;" mask="url(#mask-57)" points="449 406 472 452 426 452"></polygon>
            </g>
            <g id="Code-Clipped">
                <mask id="mask-59" fill="white">
                    <use xlink:href="#path-58"></use>
                </mask>
                <g id="path-1"></g>
                <g id="Code" mask="url(#mask-59)">
                    <use fill="#000000" xlink:href="#path-60"></use>
                    <use fill="#B6B9C1" xlink:href="#path-60"></use>
                </g>
            </g>
            <g id="Releases-Clipped">
                <mask id="mask-62" fill="white">
                    <use xlink:href="#path-61"></use>
                </mask>
                <g id="path-1"></g>
                <g id="Releases" mask="url(#mask-62)">
                    <use fill="#000000" xlink:href="#path-63"></use>
                    <use fill="#B6B9C1" xlink:href="#path-63"></use>
                </g>
            </g>
            <g id="Deploys-Clipped">
                <mask id="mask-65" fill="white">
                    <use xlink:href="#path-64"></use>
                </mask>
                <g id="path-1"></g>
                <g id="Deploys" mask="url(#mask-65)">
                    <use fill="#000000" xlink:href="#path-66"></use>
                    <use fill="#B6B9C1" xlink:href="#path-66"></use>
                </g>
            </g>
            <g id="Nodes-Clipped">
                <mask id="mask-68" fill="white">
                    <use xlink:href="#path-67"></use>
                </mask>
                <g id="path-1"></g>
                <g id="Nodes" mask="url(#mask-68)">
                    <use fill="#000000" xlink:href="#path-69"></use>
                    <use fill="#B6B9C1" xlink:href="#path-69"></use>
                </g>
            </g>
            <g id="Images-Clipped">
                <mask id="mask-71" fill="white">
                    <use xlink:href="#path-70"></use>
                </mask>
                <g id="path-1"></g>
                <g id="Images" mask="url(#mask-71)">
                    <use fill="#000000" xlink:href="#path-72"></use>
                    <use fill="#B6B9C1" xlink:href="#path-72"></use>
                </g>
            </g>
            <g id="CICD-Clipped">
                <mask id="mask-74" fill="white">
                    <use xlink:href="#path-73"></use>
                </mask>
                <g id="path-1"></g>
                <g id="CICD" mask="url(#mask-74)">
                    <use fill="#000000" xlink:href="#path-75"></use>
                    <use fill="#B6B9C1" xlink:href="#path-75"></use>
                </g>
            </g>
            <g id="DNS-Clipped">
                <mask id="mask-77" fill="white">
                    <use xlink:href="#path-76"></use>
                </mask>
                <g id="path-1"></g>
                <g id="DNS-Copy" mask="url(#mask-77)">
                    <use fill="#000000" xlink:href="#path-78"></use>
                    <use fill="#B6B9C1" xlink:href="#path-78"></use>
                </g>
            </g>
            <g id="Packages-Clipped">
                <mask id="mask-80" fill="white">
                    <use xlink:href="#path-79"></use>
                </mask>
                <g id="path-1"></g>
                <g id="Packages" mask="url(#mask-80)">
                    <use fill="#000000" xlink:href="#path-81"></use>
                    <use fill="#B6B9C1" xlink:href="#path-81"></use>
                </g>
            </g>
            <g id="Rectangle-11-Clipped">
                <mask id="mask-83" fill="white">
                    <use xlink:href="#path-82"></use>
                </mask>
                <g id="path-1"></g>
                <rect id="Rectangle-11" fill="#5E58CB" fill-rule="nonzero" mask="url(#mask-83)" x="706" y="513" width="30" height="30"></rect>
            </g>
            <g id="Rectangle-11-Clipped">
                <mask id="mask-85" fill="white">
                    <use xlink:href="#path-84"></use>
                </mask>
                <g id="path-1"></g>
                <rect id="Rectangle-11" fill="#5E58CB" fill-rule="nonzero" mask="url(#mask-85)" x="726" y="503" width="20" height="20"></rect>
            </g>
            <g id="Rectangle-11-Clipped">
                <mask id="mask-87" fill="white">
                    <use xlink:href="#path-86"></use>
                </mask>
                <g id="path-1"></g>
                <rect id="Rectangle-11" fill="#5E58CB" fill-rule="nonzero" mask="url(#mask-87)" x="655" y="546" width="15" height="15"></rect>
            </g>
            <g id="Rectangle-11-Clipped">
                <mask id="mask-89" fill="white">
                    <use xlink:href="#path-88"></use>
                </mask>
                <g id="path-1"></g>
                <rect id="Rectangle-11" fill="#5E58CB" fill-rule="nonzero" mask="url(#mask-89)" x="626" y="493" width="20" height="20"></rect>
            </g>
            <g id="Rectangle-18-Clipped">
                <mask id="mask-91" fill="white">
                    <use xlink:href="#path-90"></use>
                </mask>
                <g id="path-1"></g>
                <rect id="Rectangle-18" fill="#FFF9F2" fill-rule="nonzero" mask="url(#mask-91)" x="216" y="521" width="46" height="46"></rect>
            </g>
            <g id="Rectangle-18-Clipped">
                <mask id="mask-93" fill="white">
                    <use xlink:href="#path-92"></use>
                </mask>
                <g id="path-1"></g>
                <rect id="Rectangle-18" fill="#FFFFFF" fill-rule="nonzero" opacity="0.472488839" mask="url(#mask-93)" x="160" y="603" width="112" height="112"></rect>
            </g>
            <g id="A-CNAB.-Clipped">
                <mask id="mask-95" fill="white">
                    <use xlink:href="#path-94"></use>
                </mask>
                <g id="path-1"></g>
                <g id="A-CNAB." mask="url(#mask-95)">
                    <use fill="#000000" xlink:href="#path-96"></use>
                    <use fill="#B6B9C1" xlink:href="#path-96"></use>
                </g>
            </g>
        </g>
    </g>
</svg>